<svg width="16" height="16" viewBox="0 0 16 16" fill="none" xmlns="http://www.w3.org/2000/svg">
<path d="M10.8002 14.6654H5.20016C4.00016 14.6654 3.3335 14.6654 2.80016 14.3987C2.26683 14.132 1.86683 13.732 1.66683 13.2654C1.3335 12.6654 1.3335 11.9987 1.3335 10.7987V5.1987C1.3335 3.9987 1.3335 3.33203 1.60016 2.7987C1.86683 2.26536 2.26683 1.86536 2.7335 1.66536C3.3335 1.33203 4.00016 1.33203 5.20016 1.33203H10.6668C11.0668 1.33203 11.3335 1.5987 11.3335 1.9987C11.3335 2.3987 11.0668 2.66536 10.6668 2.66536H5.20016C4.20016 2.66536 3.66683 2.66536 3.40016 2.7987C3.1335 2.93203 2.9335 3.13203 2.80016 3.3987C2.66683 3.66536 2.66683 4.1987 2.66683 5.1987V10.7987C2.66683 11.7987 2.66683 12.332 2.80016 12.5987C2.9335 12.8654 3.1335 13.0654 3.40016 13.1987C3.66683 13.332 4.20016 13.332 5.20016 13.332H10.8002C11.8002 13.332 12.3335 13.332 12.6002 13.1987C12.8668 13.0654 13.0668 12.8654 13.2002 12.5987C13.3335 12.332 13.3335 11.7987 13.3335 10.7987V7.9987C13.3335 7.5987 13.6002 7.33203 14.0002 7.33203C14.4002 7.33203 14.6668 7.5987 14.6668 7.9987V10.7987C14.6668 11.9987 14.6668 12.6654 14.4002 13.1987C14.1335 13.732 13.7335 14.132 13.2668 14.332C12.6668 14.6654 12.0002 14.6654 10.8002 14.6654ZM8.00016 9.9987C7.80016 9.9987 7.66683 9.93203 7.5335 9.7987L5.5335 7.7987C5.26683 7.53203 5.26683 7.13203 5.5335 6.86536C5.80016 6.5987 6.20016 6.5987 6.46683 6.86536L8.00016 8.3987L14.2002 2.1987C14.4668 1.93203 14.8668 1.93203 15.1335 2.1987C15.4002 2.46536 15.4002 2.86536 15.1335 3.13203L8.46683 9.7987C8.3335 9.93203 8.20016 9.9987 8.00016 9.9987Z" fill="#8C8C8C"/>
</svg>
