<svg width="18" height="18" viewBox="0 0 18 18" fill="none" xmlns="http://www.w3.org/2000/svg">
<path fill-rule="evenodd" clip-rule="evenodd" d="M16.5 9C16.5 13.1421 13.1421 16.5 9 16.5C4.85786 16.5 1.5 13.1421 1.5 9C1.5 4.85786 4.85786 1.5 9 1.5C13.1421 1.5 16.5 4.85786 16.5 9ZM9 5.4375C9.31066 5.4375 9.5625 5.68934 9.5625 6V8.4375H12C12.3107 8.4375 12.5625 8.68934 12.5625 9C12.5625 9.31066 12.3107 9.5625 12 9.5625H9.5625V12C9.5625 12.3107 9.31066 12.5625 9 12.5625C8.68934 12.5625 8.4375 12.3107 8.4375 12V9.5625H6C5.68934 9.5625 5.4375 9.31066 5.4375 9C5.4375 8.68934 5.68934 8.4375 6 8.4375H8.4375V6C8.4375 5.68934 8.68934 5.4375 9 5.4375Z" fill="#FF4F00"/>
</svg>
