<svg width="25" height="24" viewBox="0 0 25 24" fill="none" xmlns="http://www.w3.org/2000/svg">
<g clip-path="url(#clip0_321_1169)">
<g clip-path="url(#clip1_321_1169)">
<path d="M6.91009 9.20184C6.65366 8.52543 5.59231 8.53748 5.35186 9.21928L3.34898 14.3707C3.01876 15.2317 4.35291 15.7288 4.6905 14.8712L5.01326 14.0411H7.24037L7.55939 14.8692C7.89962 15.7312 9.22922 15.231 8.90249 14.3727L6.91785 9.22101C6.91541 9.21459 6.91282 9.20821 6.91009 9.20184ZM5.56001 12.6348L6.13193 11.1638L6.69864 12.6348H5.56001Z" fill="#8C8C8C"/>
<path d="M20.4804 10.123C20.8768 10.123 21.1982 9.80823 21.1982 9.41992C21.1982 9.03161 20.8768 8.7168 20.4804 8.7168H18.2534C17.857 8.7168 17.5356 9.03161 17.5356 9.41992V14.5972C17.5356 14.9855 17.857 15.3003 18.2534 15.3003H20.4804C20.8768 15.3003 21.1982 14.9855 21.1982 14.5972C21.1982 14.2089 20.8768 13.8941 20.4804 13.8941H18.9712V12.7117H20.3162C20.7126 12.7117 21.0339 12.3969 21.0339 12.0085C21.0339 11.6202 20.7126 11.3054 20.3162 11.3054H18.9712V10.123H20.4804Z" fill="#8C8C8C"/>
<path d="M13.1391 10.082C13.5297 10.082 13.9064 10.1946 14.2284 10.4077C14.5569 10.625 15.003 10.5405 15.225 10.2187C15.4469 9.89692 15.3605 9.45986 15.032 9.24245C14.4718 8.87172 13.8173 8.67578 13.1391 8.67578C11.2727 8.67578 9.75439 10.1632 9.75439 11.9914C9.75439 13.8196 11.2727 15.307 13.1391 15.307C14.9172 15.307 16.159 13.9436 16.159 11.9914C16.159 11.6031 15.8377 11.2883 15.4413 11.2883H13.8457C13.4493 11.2883 13.1279 11.6031 13.1279 11.9914C13.1279 12.3797 13.4493 12.6945 13.8457 12.6945H14.6315C14.4535 13.3414 14.0015 13.9008 13.1391 13.9008C12.0643 13.9008 11.1899 13.0442 11.1899 11.9914C11.1899 10.9385 12.0643 10.082 13.1391 10.082Z" fill="#8C8C8C"/>
<path d="M23.7822 11.2969C23.3858 11.2969 23.0645 11.6117 23.0645 12C23.0645 14.8297 21.9396 17.49 19.897 19.4909C17.8544 21.4918 15.1386 22.5938 12.25 22.5938C9.36139 22.5938 6.64563 21.4918 4.60303 19.4909C2.56044 17.49 1.43555 14.8297 1.43555 12C1.43555 9.1703 2.56044 6.51 4.60303 4.50909C6.64563 2.50819 9.36139 1.40625 12.25 1.40625C13.6986 1.40625 15.104 1.68183 16.4271 2.22539C17.1825 2.53552 17.8987 2.92927 18.564 3.39909L17.6126 3.51652C16.6788 3.63637 16.8644 5.02458 17.792 4.91175L20.3598 4.59488C20.7419 4.56389 21.0456 4.20638 21.0055 3.83255L20.7767 1.3087C20.7416 0.921891 20.3929 0.636 19.9982 0.6705C19.6034 0.704859 19.3117 1.0463 19.3468 1.43306L19.4228 2.27189C18.664 1.73377 17.8456 1.28302 16.982 0.9285C15.4824 0.312375 13.8903 0 12.25 0C8.97791 0 5.90168 1.24823 3.58796 3.51473C1.27424 5.78123 0 8.79469 0 12C0 15.2053 1.27424 18.2188 3.58796 20.4853C5.90168 22.7518 8.97791 24 12.25 24C15.5221 24 18.5983 22.7518 20.912 20.4853C23.2258 18.2188 24.5 15.2053 24.5 12C24.5 11.6117 24.1786 11.2969 23.7822 11.2969Z" fill="#8C8C8C"/>
</g>
</g>
<defs>
<clipPath id="clip0_321_1169">
<rect width="24.5" height="24" fill="white"/>
</clipPath>
<clipPath id="clip1_321_1169">
<rect width="24.5" height="24" fill="white"/>
</clipPath>
</defs>
</svg>
