<svg width="25" height="24" viewBox="0 0 25 24" fill="none" xmlns="http://www.w3.org/2000/svg">
<path d="M12.2496 22.3108C11.2444 22.3416 10.244 22.1623 9.31505 21.7847C8.38611 21.4072 7.54993 20.8401 6.86219 20.1213C6.1866 19.3327 5.68983 18.4124 5.40483 17.4215C5.11983 16.4306 5.0531 15.3917 5.20907 14.3736C5.676 10.26 11.5345 2.25824 11.7838 1.91949C11.8395 1.8508 11.9103 1.79531 11.991 1.75717C12.0716 1.71903 12.16 1.69922 12.2496 1.69922C12.3392 1.69922 12.4276 1.71903 12.5082 1.75717C12.5889 1.79531 12.6597 1.8508 12.7154 1.91949C12.9648 2.25824 18.8232 10.26 19.2898 14.3736C19.4457 15.3917 19.379 16.431 19.094 17.4219C18.809 18.4128 18.3122 19.3331 17.6366 20.1216C16.9489 20.8403 16.1127 21.4073 15.1839 21.7848C14.255 22.1622 13.2547 22.3416 12.2496 22.3108ZM12.2496 3.22833C10.8425 5.22528 6.71154 11.3165 6.35078 14.4981C6.20848 15.3589 6.25692 16.2396 6.49282 17.0805C6.72871 17.9213 7.14653 18.7026 7.71791 19.3713C8.29873 19.9712 9.00318 20.4433 9.78448 20.7561C10.5658 21.069 11.4061 21.2155 12.2496 21.1858C13.093 21.2155 13.9332 21.069 14.7144 20.7561C15.4956 20.4433 16.1999 19.9712 16.7806 19.3713C17.3522 18.7026 17.7702 17.9213 18.0063 17.0804C18.2424 16.2395 18.291 15.3587 18.1488 14.4977C17.7877 11.3165 13.6567 5.22528 12.2496 3.22833Z" fill="#8C8C8C"/>
<path d="M12.25 14.0625C12.0977 14.0625 11.9517 14.0032 11.844 13.8977C11.7363 13.7922 11.6758 13.6492 11.6758 13.5V10.5C11.6758 10.3508 11.7363 10.2077 11.844 10.1023C11.9517 9.99676 12.0977 9.9375 12.25 9.9375C12.4023 9.9375 12.5483 9.99676 12.656 10.1023C12.7637 10.2077 12.8242 10.3508 12.8242 10.5V13.5C12.8242 13.6492 12.7637 13.7922 12.656 13.8977C12.5483 14.0032 12.4023 14.0625 12.25 14.0625Z" fill="#8C8C8C"/>
<path d="M13.7812 12.5625H10.7188C10.5665 12.5625 10.4204 12.5032 10.3127 12.3977C10.205 12.2923 10.1445 12.1492 10.1445 12C10.1445 11.8508 10.205 11.7077 10.3127 11.6023C10.4204 11.4968 10.5665 11.4375 10.7188 11.4375H13.7812C13.9335 11.4375 14.0796 11.4968 14.1873 11.6023C14.295 11.7077 14.3555 11.8508 14.3555 12C14.3555 12.1492 14.295 12.2923 14.1873 12.3977C14.0796 12.5032 13.9335 12.5625 13.7812 12.5625Z" fill="#8C8C8C"/>
<path d="M13.7812 17.4375H10.7188C10.5665 17.4375 10.4204 17.3782 10.3127 17.2727C10.205 17.1673 10.1445 17.0242 10.1445 16.875C10.1445 16.7258 10.205 16.5827 10.3127 16.4773C10.4204 16.3718 10.5665 16.3125 10.7188 16.3125H13.7812C13.9335 16.3125 14.0796 16.3718 14.1873 16.4773C14.295 16.5827 14.3555 16.7258 14.3555 16.875C14.3555 17.0242 14.295 17.1673 14.1873 17.2727C14.0796 17.3782 13.9335 17.4375 13.7812 17.4375Z" fill="#8C8C8C"/>
</svg>
