<svg width="48" height="48" viewBox="0 0 48 48" fill="none" xmlns="http://www.w3.org/2000/svg">
<circle cx="24" cy="24" r="24" fill="white"/>
<mask id="mask0_334_148" style="mask-type:luminance" maskUnits="userSpaceOnUse" x="8" y="8" width="32" height="32">
<path d="M8 8.00001H40V40H8V8.00001Z" fill="white"/>
</mask>
<g mask="url(#mask0_334_148)">
<path d="M16.4688 25.7441C16.4688 24.5558 17.4321 23.5924 18.6206 23.5924C19.8089 23.5924 20.7723 24.5558 20.7723 25.7441" stroke="#191919" stroke-width="1.5" stroke-miterlimit="10"/>
<path d="M27.2275 25.7441C27.2275 24.5558 28.1909 23.5924 29.3793 23.5924C30.5677 23.5924 31.5311 24.5558 31.5311 25.7441" stroke="#191919" stroke-width="1.5" stroke-miterlimit="10"/>
<path d="M20.292 30.0478C21.0406 31.3164 22.4206 32.168 24.0002 32.168C25.5798 32.168 26.9598 31.3164 27.7084 30.0478" stroke="#191919" stroke-width="1.5" stroke-miterlimit="10"/>
<path d="M39.0625 25.3684C39.0625 27.1296 37.6519 28.5615 35.8981 28.5946C34.4806 33.8365 29.6906 37.6934 24 37.6934C18.3094 37.6934 13.5194 33.8365 12.1019 28.5946C10.3481 28.5615 8.9375 27.1296 8.9375 25.3684C8.9375 24.4771 9.29875 23.6702 9.8825 23.0859C10.4531 22.5159 11.2356 22.1584 12.1019 22.1421C13.5194 16.9002 18.3094 13.0434 24 13.0434C29.6906 13.0434 34.4806 16.9002 35.8981 22.1421C36.7644 22.1584 37.5469 22.5159 38.1175 23.0859C38.7012 23.6702 39.0625 24.4771 39.0625 25.3684Z" stroke="#191919" stroke-width="1.5" stroke-miterlimit="10"/>
<path d="M19.9892 17.0538C19.9892 19.2688 21.7848 21.0645 23.9999 21.0645C26.2149 21.0645 28.0106 19.2688 28.0106 17.0538C28.0106 14.8387 26.2149 13.0431 23.9999 13.0431H23.3713C21.3417 13.0431 19.6963 11.3977 19.6963 9.36802" stroke="#191919" stroke-width="1.5" stroke-miterlimit="10"/>
<path d="M24.0002 13.043H19.0681C17.0384 13.043 15.3931 11.3976 15.3931 9.36797" stroke="#191919" stroke-width="1.5" stroke-miterlimit="10"/>
</g>
</svg>
