<svg width="48" height="48" viewBox="0 0 48 48" fill="none" xmlns="http://www.w3.org/2000/svg">
<mask id="mask0_321_1050" style="mask-type:luminance" maskUnits="userSpaceOnUse" x="0" y="0" width="48" height="48">
<path d="M0 7.62939e-06H48V48H0V7.62939e-06Z" fill="white"/>
</mask>
<g mask="url(#mask0_321_1050)">
<path d="M12.7031 26.6152C12.7031 24.8327 14.1482 23.3876 15.9308 23.3876C17.7134 23.3876 19.1585 24.8327 19.1585 26.6152" stroke="#191919" stroke-width="2" stroke-miterlimit="10"/>
<path d="M28.8413 26.6152C28.8413 24.8327 30.2864 23.3876 32.0689 23.3876C33.8516 23.3876 35.2967 24.8327 35.2967 26.6152" stroke="#191919" stroke-width="2" stroke-miterlimit="10"/>
<path d="M18.4375 33.0718C19.5603 34.9746 21.6303 36.252 23.9998 36.252C26.3692 36.252 28.4392 34.9746 29.5621 33.0718" stroke="#191919" stroke-width="2" stroke-miterlimit="10"/>
<path d="M46.5937 26.0535C46.5937 28.6954 44.4778 30.8432 41.8472 30.8929C39.7209 38.7557 32.5359 44.541 24 44.541C15.4641 44.541 8.27906 38.7557 6.15281 30.8929C3.52219 30.8432 1.40625 28.6954 1.40625 26.0535C1.40625 24.7166 1.94812 23.5063 2.82375 22.6298C3.67969 21.7748 4.85344 21.2385 6.15281 21.2141C8.27906 13.3513 15.4641 7.56602 24 7.56602C32.5359 7.56602 39.7209 13.3513 41.8472 21.2141C43.1466 21.2385 44.3203 21.7748 45.1762 22.6298C46.0519 23.5063 46.5937 24.7166 46.5937 26.0535Z" stroke="#191919" stroke-width="2" stroke-miterlimit="10"/>
<path d="M17.9837 13.5816C17.9837 16.9042 20.6772 19.5977 23.9998 19.5977C27.3224 19.5977 30.0159 16.9042 30.0159 13.5816C30.0159 10.259 27.3224 7.56559 23.9998 7.56559H23.0569C20.0125 7.56559 17.5444 5.09753 17.5444 2.053" stroke="#191919" stroke-width="2" stroke-miterlimit="10"/>
<path d="M24 7.56641H16.6019C13.5573 7.56641 11.0894 5.09834 11.0894 2.05391" stroke="#191919" stroke-width="2" stroke-miterlimit="10"/>
</g>
</svg>
