<svg width="48" height="48" viewBox="0 0 48 48" fill="none" xmlns="http://www.w3.org/2000/svg">
<mask id="mask0_340_233" style="mask-type:luminance" maskUnits="userSpaceOnUse" x="0" y="0" width="48" height="48">
<path d="M0 3.8147e-06H48V48H0V3.8147e-06Z" fill="white"/>
</mask>
<g mask="url(#mask0_340_233)">
<path d="M14.1562 5.625C14.1562 7.95497 12.2675 9.84375 9.9375 9.84375C7.60753 9.84375 5.625 7.95497 5.625 5.625C5.625 3.29503 7.60753 1.40625 9.9375 1.40625C12.2675 1.40625 14.1562 3.29503 14.1562 5.625Z" stroke="#191919" stroke-width="2" stroke-miterlimit="10"/>
<path d="M18.375 26.8125H1.40625V18.2813C1.40625 15.1747 3.92466 12.6563 7.03125 12.6563H12.75C15.8566 12.6563 18.375 15.1747 18.375 18.2813" stroke="#191919" stroke-width="2" stroke-miterlimit="10"/>
<path d="M26.8125 26.8125H15.5625L18.375 18.2813H29.625L26.8125 26.8125Z" stroke="#191919" stroke-width="2" stroke-miterlimit="10"/>
<path d="M7.03125 16.875V21.1875H9.9375C13.0441 21.1875 15.5625 23.7059 15.5625 26.8125" stroke="#191919" stroke-width="2" stroke-miterlimit="10"/>
<path d="M33.8438 25.4062C33.8438 27.7362 35.7325 29.625 38.0625 29.625C40.3925 29.625 42.2812 27.7362 42.2812 25.4062C42.2812 23.0763 40.3925 21.1875 38.0625 21.1875C35.7325 21.1875 33.8438 23.0763 33.8438 25.4062Z" stroke="#191919" stroke-width="2" stroke-miterlimit="10"/>
<path d="M29.625 46.5938H46.5937V38.0625C46.5937 34.9559 44.0753 32.4375 40.9687 32.4375H35.25C32.1434 32.4375 29.625 34.9559 29.625 38.0625" stroke="#191919" stroke-width="2" stroke-miterlimit="10"/>
<path d="M21.1875 46.5938H32.4375L29.625 38.0625H18.375L21.1875 46.5938Z" stroke="#191919" stroke-width="2" stroke-miterlimit="10"/>
<path d="M40.9687 36.6563V40.9688H38.0625C34.9559 40.9688 32.4375 43.4872 32.4375 46.5938" stroke="#191919" stroke-width="2" stroke-miterlimit="10"/>
</g>
</svg>
