<svg width="327" height="327" viewBox="0 0 327 327" fill="none" xmlns="http://www.w3.org/2000/svg">
<g clip-path="url(#clip0_321_654)">
<path d="M327 0H0V327H327V0Z" fill="white"/>
<path d="M259.803 258.436C253.205 265.237 247.302 269.235 242.782 272.253C198.698 301.688 148.306 293.204 132.726 290.304C107.59 285.626 86.371 282.325 68.1404 265.855C26.715 228.428 28.7298 150.354 60.3839 101.991C64.1371 96.2566 95.7433 49.4065 146.244 42.8049C147.48 42.6434 148.401 42.5515 149.208 42.466C157.021 41.6388 205.433 37.2733 244.908 70.3456C250.559 75.0797 259.652 83.6189 268.085 96.6426C298.919 144.263 299.017 218.016 259.803 258.436Z" fill="#F4F7FA"/>
<path d="M88.7732 152.796C88.8439 152.851 88.9149 152.905 88.9861 152.959C93.1999 156.149 98.3685 158.891 104.75 160.727C106.019 160.997 107.289 161.267 108.558 161.538C110.354 158.811 111.575 155.896 108.032 153.784C102.529 150.503 105.025 139.999 107.59 136.708C110.765 132.634 117.964 122.996 109.537 117.79C102.522 113.456 97.1091 112.093 99.0507 102.143C100.992 92.1927 97.179 84.7179 88.1303 83.0567C78.6079 81.3086 74.071 66.902 65.3448 69.1373C50.1398 73.0323 56.7996 97.7179 71.4822 108.086C86.1648 118.453 75.3581 121.961 72.8936 129.883C69.5291 140.698 84.9451 142.094 87.7745 147.389C88.733 149.183 88.9495 151.045 88.7732 152.796Z" fill="url(#paint0_linear_321_654)"/>
<mask id="mask0_321_654" style="mask-type:luminance" maskUnits="userSpaceOnUse" x="56" y="68" width="58" height="96">
<path d="M86.8174 158.731L107.269 163.718C109.166 161.113 111.99 156.144 108.032 153.784C102.53 150.502 105.025 139.999 107.591 136.707C110.766 132.634 117.964 122.996 109.537 117.79C102.522 113.456 97.1095 112.093 99.051 102.143C100.993 92.1927 97.1793 84.7178 88.1306 83.0567C78.6082 81.3085 74.0714 66.902 65.3451 69.1373C50.14 73.0322 56.7999 97.7178 71.4824 108.086C86.165 118.453 75.3583 121.961 72.8938 129.883C69.5293 140.698 84.9453 142.094 87.7748 147.389C89.9931 151.541 88.2482 156.057 86.8174 158.731Z" fill="white"/>
</mask>
<g mask="url(#mask0_321_654)">
<g opacity="0.5">
<path d="M97.2317 157.861L97.6875 157.882C99.1813 124.566 84.4986 90.6877 59.3692 69.4688L59.075 69.8173C84.0984 90.9468 98.7192 124.683 97.2317 157.861Z" fill="#FCFDFE"/>
<path d="M96.4902 139.628L96.933 139.738C100.094 127.019 113.447 119.81 113.581 119.739L113.368 119.336C113.231 119.408 99.7012 126.708 96.4902 139.628Z" fill="#FCFDFE"/>
<path d="M97.3394 151.725L97.7813 151.612C94.4788 138.741 71.4478 131.312 71.2156 131.238L71.0779 131.673C71.3076 131.746 94.0997 139.099 97.3394 151.725Z" fill="#FCFDFE"/>
<path d="M87.615 108.167L88.065 108.092C86.3263 97.6954 96.0406 84.7767 96.1388 84.6474L95.776 84.3711C95.6764 84.502 85.8441 97.5785 87.615 108.167Z" fill="#FCFDFE"/>
<path d="M77.2059 89.7219L77.5316 89.4024C69.1179 80.831 52.8991 80.3803 52.736 80.377L52.7261 80.8331C52.8871 80.8362 68.9234 81.2838 77.2059 89.7219Z" fill="#FCFDFE"/>
</g>
</g>
<mask id="mask1_321_654" style="mask-type:luminance" maskUnits="userSpaceOnUse" x="72" y="45" width="65" height="139">
<path d="M120.009 183.716L97.4505 182.044C97.4505 182.044 94.0617 170.157 100.195 162.4C112.709 146.574 97.9748 136.718 92.4209 131.667C84.0451 124.049 79.9864 113.683 93.383 110.295C106.78 106.906 95.1436 85.6706 79.8437 75.3177C64.8717 65.1866 74.2416 32.7262 108.66 51.6783C129.214 62.9965 124.21 85.3077 124.361 97.1756C124.513 109.043 141.978 111.319 134.908 125.279C128.869 137.204 118.463 145.454 125.27 154.464C132.077 163.474 132.143 173.016 120.009 183.716Z" fill="white"/>
</mask>
<g mask="url(#mask1_321_654)">
<path d="M120.009 183.716L97.4505 182.044C97.4505 182.044 94.0617 170.157 100.195 162.4C112.709 146.574 97.9748 136.718 92.4209 131.667C84.0451 124.049 80.7934 114.768 91.9182 109.728C104.505 104.026 95.1436 85.6706 79.8437 75.3177C64.8717 65.1866 74.2416 32.7262 108.66 51.6783C129.214 62.9965 124.21 85.3077 124.361 97.1756C124.513 109.043 141.978 111.319 134.908 125.279C128.869 137.204 118.463 145.454 125.27 154.464C132.077 163.474 132.143 173.016 120.009 183.716Z" fill="url(#paint1_linear_321_654)"/>
</g>
<mask id="mask2_321_654" style="mask-type:luminance" maskUnits="userSpaceOnUse" x="72" y="45" width="65" height="139">
<path d="M120.009 183.716L97.4505 182.044C97.4505 182.044 94.0617 170.157 100.195 162.4C112.709 146.574 97.9748 136.718 92.4209 131.667C84.0451 124.049 79.9864 113.683 93.383 110.295C106.78 106.906 95.1436 85.6706 79.8437 75.3177C64.8717 65.1866 74.2416 32.7262 108.66 51.6783C129.214 62.9965 124.21 85.3077 124.361 97.1756C124.513 109.043 141.978 111.319 134.908 125.279C128.869 137.204 118.463 145.454 125.27 154.464C132.077 163.474 132.143 173.016 120.009 183.716Z" fill="white"/>
</mask>
<g mask="url(#mask2_321_654)">
<g opacity="0.5">
<path d="M110.09 185.084L109.628 184.963C109.703 184.677 117.077 155.998 115.815 125.362C114.652 97.1389 105.707 61.432 69.6992 51.6013L69.8249 51.1406C85.854 55.5167 97.9449 65.295 105.762 80.2037C112.007 92.1132 115.549 107.303 116.292 125.352C117.556 156.058 110.165 184.797 110.09 185.084Z" fill="#BEB8F2"/>
<path d="M108.759 86.5751L108.291 86.481C111.415 70.8972 107.079 48.1103 107.035 47.8819L107.504 47.791C107.548 48.0204 111.902 70.8999 108.759 86.5751Z" fill="#BEB8F2"/>
<path d="M103.279 76.7843C87.9878 65.608 72.6545 69.2903 72.5016 69.3288L72.385 68.8658C72.5403 68.8265 88.0821 65.0854 103.561 76.3986L103.279 76.7843Z" fill="#BEB8F2"/>
<path d="M115.549 145.436C111.888 122.589 81.7591 114.819 81.4592 114.768L81.5085 114.293C81.8076 114.315 112.327 122.31 116.02 145.361L115.549 145.436Z" fill="#BEB8F2"/>
<path d="M116.401 135.933L115.942 135.801C120.009 121.607 136.382 112.847 136.547 112.76L136.769 113.182C136.606 113.268 120.411 121.937 116.401 135.933Z" fill="#BEB8F2"/>
<path d="M110.689 180.426C110.65 171.636 98.6864 163.792 98.5657 163.713L98.8251 163.312C99.3273 163.637 111.127 171.375 111.167 180.424L110.689 180.426Z" fill="#BEB8F2"/>
<path d="M112.527 173.657L112.063 173.542C113.736 166.797 124.628 159.951 128.207 157.701C128.713 157.384 129.149 157.109 129.217 157.045L129.55 157.388C129.455 157.48 129.165 157.663 128.461 158.106C124.922 160.33 114.154 167.098 112.527 173.657Z" fill="#BEB8F2"/>
</g>
</g>
<path d="M146.74 97.3397L52.5305 93.5232C50.3471 93.4347 48.5725 94.9652 48.5725 96.9418V255.63C48.5725 257.607 50.3471 259.093 52.5305 258.949L146.74 252.762C148.663 252.636 150.217 251.036 150.217 249.188V100.827C150.217 98.9785 148.663 97.4175 146.74 97.3397Z" fill="url(#paint2_linear_321_654)"/>
<path d="M145.531 99.8881L52.5305 93.5232C50.3471 93.4347 48.5725 94.9652 48.5725 96.9418V255.63C48.5725 257.607 50.3471 259.093 52.5305 258.949L146.74 252.762C148.663 252.636 150.217 251.036 150.217 249.188V100.827C150.217 98.9785 147.454 99.9661 145.531 99.8881Z" fill="url(#paint3_linear_321_654)"/>
<path d="M148.656 97.3397L54.4456 93.5232C52.2622 93.4347 50.4875 94.9652 50.4875 96.9418V255.63C50.4875 257.607 52.2622 259.093 54.4456 258.949L148.656 252.762C150.578 252.636 152.132 251.036 152.132 249.188V100.827C152.132 98.9785 150.578 97.4175 148.656 97.3397Z" fill="#D8DEE8"/>
<g opacity="0.3">
<path d="M110.304 213.185C108.706 195.2 120.682 187.727 116.12 171.456C110.472 151.315 88.6672 150.417 81.2107 130.564C78.3494 122.947 77.2184 111.442 85.4052 94.7773L54.4456 93.5232C52.2622 93.4347 50.4875 94.9652 50.4875 96.9418V255.63C50.4875 257.607 52.2622 259.093 54.4456 258.949L138.57 253.425C117.356 238.5 111.287 224.235 110.304 213.185Z" fill="#D8DEE8"/>
</g>
<path d="M148.656 99.3156L54.4457 95.6264C53.5509 95.5914 52.822 96.2214 52.822 97.0309V255.482C52.822 256.292 53.5508 256.903 54.4457 256.846L148.656 250.786C149.445 250.735 150.086 250.077 150.086 249.318V100.748C150.086 99.9892 149.445 99.3465 148.656 99.3156Z" fill="url(#paint4_linear_321_654)"/>
<path d="M103.019 168.804C85.3586 168.946 70.6829 155.526 70.6829 138.885C70.6829 122.243 85.3586 109.161 103.019 109.71C120.276 110.247 134.027 123.656 134.027 139.614C134.027 155.571 120.276 168.664 103.019 168.804Z" fill="#D8DEE8"/>
<path d="M131.929 139.591C131.929 154.492 119.124 166.659 103.019 166.767C86.5634 166.877 72.9575 154.407 72.9575 138.912C72.9575 123.416 86.5634 111.259 103.019 111.749C119.124 112.227 131.929 124.689 131.929 139.591Z" fill="white"/>
<path opacity="0.74" d="M138.204 179.289L66.1139 180.397C64.0864 180.428 62.439 181.953 62.439 183.802C62.439 185.651 64.0864 187.117 66.1139 187.077L138.204 185.658C140.042 185.622 141.529 184.17 141.529 182.416C141.529 180.661 140.042 179.261 138.204 179.289Z" fill="url(#paint5_linear_321_654)"/>
<path d="M138.204 191.827L79.2135 193.235C77.2202 193.283 75.6006 194.808 75.6006 196.641C75.6006 198.475 77.2202 199.915 79.2135 199.859L138.204 198.196C140.042 198.144 141.529 196.68 141.529 194.925C141.529 193.17 140.042 191.783 138.204 191.827Z" fill="#D8DEE8"/>
<path d="M66.1475 200.226L66.0803 200.228C64.0713 200.285 62.439 198.897 62.439 197.129V196.836C62.439 195.068 64.0713 193.596 66.0803 193.548L66.1475 193.546C68.151 193.498 69.7714 194.886 69.7714 196.646V196.938C69.7714 198.698 68.1511 200.17 66.1475 200.226Z" fill="#FF4F00"/>
<path d="M66.114 200.854C63.7097 200.923 61.748 199.194 61.748 197.001C61.748 194.808 63.7096 192.978 66.114 192.921C68.5109 192.865 70.4554 194.594 70.4554 196.775C70.4554 198.956 68.5109 200.785 66.114 200.854ZM66.114 194.174C64.4696 194.214 63.1295 195.466 63.1295 196.965C63.1295 198.465 64.4697 199.647 66.114 199.601C67.7548 199.556 69.087 198.304 69.087 196.81C69.0871 195.317 67.7548 194.134 66.114 194.174Z" fill="#D8DEE8"/>
<path d="M138.204 203.172L79.2135 205.034C77.2202 205.097 75.6006 206.634 75.6006 208.467C75.6006 210.301 77.2202 211.729 79.2135 211.657L138.204 209.54C140.042 209.474 141.529 207.998 141.529 206.244C141.529 204.489 140.042 203.114 138.204 203.172Z" fill="#D8DEE8"/>
<path d="M66.1472 212.126L66.0801 212.128C64.0711 212.2 62.4387 210.825 62.4387 209.057V208.764C62.4387 206.996 64.0711 205.511 66.0801 205.448L66.1472 205.445C68.1508 205.382 69.7712 206.758 69.7712 208.517V208.809C69.7712 210.569 68.1507 212.054 66.1472 212.126Z" fill="#FF4F00"/>
<path d="M66.1137 212.753C63.7095 212.841 61.7478 211.128 61.7478 208.934C61.7478 206.741 63.7094 204.896 66.1137 204.821C68.5106 204.746 70.4552 206.46 70.4552 208.641C70.4552 210.822 68.5106 212.666 66.1137 212.753ZM66.1137 206.073C64.4694 206.126 63.1292 207.389 63.1292 208.888C63.1292 210.387 64.4695 211.559 66.1137 211.501C67.7546 211.443 69.0868 210.18 69.0868 208.687C69.0868 207.193 67.7546 206.021 66.1137 206.073Z" fill="#D8DEE8"/>
<path d="M138.204 214.514L79.2135 216.831C77.2202 216.909 75.6006 218.459 75.6006 220.292C75.6006 222.125 77.2202 223.541 79.2135 223.454L138.204 220.883C140.042 220.803 141.529 219.316 141.529 217.561C141.529 215.806 140.042 214.442 138.204 214.514Z" fill="#D8DEE8"/>
<path d="M66.1137 224.653C63.7095 224.759 61.7478 223.061 61.7478 220.868C61.7478 218.674 63.7094 216.814 66.1137 216.72C68.5106 216.627 70.4552 218.326 70.4552 220.507C70.4552 222.688 68.5106 224.548 66.1137 224.653ZM66.1137 217.973C64.4694 218.038 63.1292 219.311 63.1292 220.81C63.1292 222.309 64.4695 223.471 66.1137 223.4C67.7546 223.33 69.0868 222.057 69.0868 220.564C69.0869 219.07 67.7546 217.908 66.1137 217.973Z" fill="#D8DEE8"/>
<path d="M138.204 225.859L79.2135 228.629C77.2202 228.723 75.6006 230.285 75.6006 232.119C75.6006 233.952 77.2202 235.355 79.2135 235.253L138.204 232.228C140.042 232.134 141.529 230.635 141.529 228.88C141.529 227.126 140.042 225.773 138.204 225.859Z" fill="#D8DEE8"/>
<path d="M66.1472 235.923L66.0801 235.926C64.0711 236.029 62.4387 234.68 62.4387 232.912V232.618C62.4387 230.85 64.0711 229.34 66.0801 229.246L66.1472 229.243C68.1508 229.149 69.7712 230.499 69.7712 232.259V232.551C69.7712 234.311 68.1508 235.82 66.1472 235.923Z" fill="#FF4F00"/>
<path d="M66.1137 236.551C63.7095 236.675 61.7478 234.992 61.7478 232.799C61.7478 230.606 63.7094 228.73 66.1137 228.619C68.5106 228.507 70.4552 230.191 70.4552 232.372C70.4552 234.552 68.5106 236.427 66.1137 236.551ZM66.1137 229.871C64.4694 229.949 63.1292 231.232 63.1292 232.731C63.1292 234.231 64.4695 235.382 66.1137 235.299C67.7546 235.215 69.0868 233.932 69.0868 232.439C69.0868 230.945 67.7546 229.793 66.1137 229.871Z" fill="#D8DEE8"/>
<mask id="mask3_321_654" style="mask-type:luminance" maskUnits="userSpaceOnUse" x="75" y="113" width="55" height="52">
<path d="M129.826 139.566C129.826 153.383 117.943 164.648 103.019 164.728C87.7947 164.81 75.2253 153.263 75.2253 138.937C75.2253 124.61 87.7947 113.353 103.019 113.785C117.943 114.209 129.826 125.748 129.826 139.566Z" fill="white"/>
</mask>
<g mask="url(#mask3_321_654)">
<path d="M99.4752 120.141C94.2516 119.99 89.2928 122.685 87.0906 126.431C84.4366 130.947 87.9802 133.202 86.2499 140.539C84.6559 147.297 80.9328 148.452 81.5482 152.889C82.2223 157.748 87.308 160.83 89.3171 162.048C98.3499 167.522 112.45 167.294 119.604 160.227C120.201 159.637 125.136 154.763 123.804 150.28C122.612 146.267 117.501 146.239 116.442 142.069C115.53 138.477 119.023 137.316 118.69 132.11C118.625 131.091 118.317 126.269 114.43 124.04C111.84 122.555 108.994 122.981 107.951 123.188C106.698 122.258 103.647 120.261 99.4752 120.141Z" fill="#26264F"/>
<path d="M72.958 157.845C72.958 157.845 99.3741 143.525 131.93 157.798C131.93 157.798 127.789 170.028 103.02 170.862C77.4097 171.725 72.958 157.845 72.958 157.845Z" fill="url(#paint6_linear_321_654)"/>
<path d="M98.3457 139.203L97.357 146.039C97.0196 148.372 95.2895 150.322 92.8823 151.078L84.8328 153.603C84.8328 153.603 100.233 160.493 119.648 153.607L110.802 150.736C108.289 149.856 106.577 147.643 106.467 145.128L106.213 139.294L98.3457 139.203Z" fill="url(#paint7_linear_321_654)"/>
<path d="M110.333 133.31C110.333 139.077 106.596 145.246 101.962 145.211C97.2986 145.175 93.4971 138.881 93.4971 133.048C93.4971 127.216 97.2986 124.107 101.962 124.207C106.596 124.307 110.333 127.542 110.333 133.31Z" fill="url(#paint8_linear_321_654)"/>
<path d="M105.669 128.02C103.153 128.094 99.3392 128.588 96.6962 131.124C92.2574 135.383 94.3656 142.258 92.3908 142.645C90.6313 142.991 87.9054 138.082 87.9495 132.726C87.9863 128.24 89.6389 122.984 93.9392 121.75C96.4638 121.025 97.2071 122.31 105.343 123.233C110.08 123.77 108.222 125.708 109.288 126.465C114.017 129.827 113.418 140.577 110.873 140.687C109.666 140.739 107.998 137.909 105.669 128.02Z" fill="#26264F"/>
</g>
<path opacity="0.35" d="M110.304 213.185C108.706 195.2 120.682 187.727 116.12 171.456C110.472 151.315 88.6673 150.417 81.2107 130.564C78.4677 123.261 77.3147 112.384 84.4447 96.8011L54.4457 95.6264C53.5509 95.5914 52.822 96.2214 52.822 97.0309V255.482C52.822 256.292 53.5508 256.903 54.4457 256.846L136.044 251.597C116.864 237.328 111.246 223.778 110.304 213.185Z" fill="white"/>
<path d="M274.318 101.248L192.468 97.9326C190.579 97.8561 189.044 99.2841 189.044 101.122V248.697C189.044 250.535 190.579 251.924 192.468 251.8L274.318 246.425C275.996 246.315 277.352 244.826 277.352 243.1V104.497C277.352 102.771 275.995 101.316 274.318 101.248Z" fill="url(#paint9_linear_321_654)"/>
<path d="M273.444 106.362L192.468 97.9326C190.579 97.8561 189.044 99.2841 189.044 101.122V248.697C189.044 250.535 190.579 251.924 192.468 251.8L274.318 246.425C275.996 246.315 277.352 244.826 277.352 243.1V104.497C277.352 102.771 275.121 106.43 273.444 106.362Z" fill="url(#paint10_linear_321_654)"/>
<path d="M276.233 101.248L194.383 97.9326C192.494 97.8561 190.959 99.2841 190.959 101.122V248.697C190.959 250.535 192.494 251.924 194.383 251.8L276.233 246.425C277.911 246.315 279.267 244.826 279.267 243.1V104.497C279.267 102.771 277.911 101.316 276.233 101.248Z" fill="#D8DEE8"/>
<g opacity="0.3">
<path d="M242.83 209.365C241.44 192.592 251.857 185.641 247.887 170.459C242.976 151.674 224.035 150.842 217.566 132.357C215.085 125.267 214.105 114.556 221.204 99.0191L194.383 97.9326C192.494 97.8561 190.959 99.2841 190.959 101.122V248.697C190.959 250.535 192.494 251.924 194.383 251.8L267.437 247.002C248.963 232.995 243.684 219.672 242.83 209.365Z" fill="#D8DEE8"/>
</g>
<path d="M276.233 103.095L194.383 99.8898C193.609 99.8595 192.979 100.447 192.979 101.2V248.569C192.979 249.322 193.609 249.894 194.383 249.844L276.233 244.58C276.922 244.535 277.481 243.923 277.481 243.214V104.43C277.481 103.721 276.922 103.122 276.233 103.095Z" fill="url(#paint11_linear_321_654)"/>
<path opacity="0.35" d="M242.83 209.366C241.44 192.593 251.857 185.642 247.888 170.46C242.976 151.675 224.035 150.843 217.566 132.357C215.188 125.56 214.188 115.434 220.371 100.907L194.383 99.8898C193.609 99.8595 192.979 100.447 192.979 101.2V248.569C192.979 249.322 193.609 249.894 194.383 249.844L265.236 245.287C248.535 231.902 243.649 219.246 242.83 209.366Z" fill="white"/>
<path d="M236.498 167.979C221.164 168.103 208.441 155.603 208.441 140.114C208.441 124.624 221.164 112.418 236.498 112.894C251.504 113.361 263.478 125.852 263.478 140.747C263.478 155.643 251.504 167.858 236.498 167.979Z" fill="#D8DEE8"/>
<path d="M261.651 140.725C261.651 154.634 250.501 165.985 236.498 166.079C222.209 166.174 210.412 154.56 210.412 140.135C210.412 125.711 222.209 114.368 236.498 114.793C250.501 115.209 261.651 126.816 261.651 140.725Z" fill="white"/>
<path opacity="0.74" d="M267.119 177.785L204.483 178.748C202.727 178.775 201.301 180.192 201.301 181.912C201.301 183.632 202.727 184.999 204.483 184.965L267.119 183.732C268.721 183.7 270.017 182.346 270.017 180.708C270.017 179.069 268.721 177.761 267.119 177.785Z" fill="url(#paint12_linear_321_654)"/>
<path d="M267.119 189.491L215.834 190.715C214.106 190.757 212.702 192.174 212.702 193.881C212.702 195.588 214.106 196.932 215.834 196.883L267.119 195.437C268.721 195.392 270.018 194.027 270.018 192.389C270.018 190.75 268.721 189.453 267.119 189.491Z" fill="#D8DEE8"/>
<path d="M204.512 197.202L204.454 197.203C202.714 197.252 201.301 195.959 201.301 194.314V194.041C201.301 192.396 202.714 191.028 204.454 190.987L204.512 190.985C206.247 190.944 207.651 192.238 207.651 193.876V194.148C207.651 195.786 206.247 197.153 204.512 197.202Z" fill="#B19AF3"/>
<path d="M204.483 197.786C202.401 197.845 200.702 196.233 200.702 194.193C200.702 192.152 202.401 190.452 204.483 190.403C206.559 190.355 208.243 191.967 208.243 193.997C208.243 196.027 206.559 197.726 204.483 197.786ZM204.483 191.569C203.059 191.604 201.898 192.767 201.898 194.162C201.898 195.557 203.059 196.66 204.483 196.62C205.904 196.581 207.058 195.418 207.058 194.027C207.058 192.637 205.904 191.535 204.483 191.569Z" fill="#D8DEE8"/>
<path d="M267.119 200.083L215.834 201.702C214.106 201.757 212.702 203.185 212.702 204.892C212.702 206.599 214.106 207.932 215.834 207.87L267.119 206.029C268.721 205.972 270.018 204.597 270.018 202.959C270.018 201.32 268.721 200.033 267.119 200.083Z" fill="#D8DEE8"/>
<path d="M204.512 208.275L204.454 208.277C202.714 208.339 201.301 207.057 201.301 205.412V205.138C201.301 203.493 202.714 202.115 204.454 202.06L204.512 202.058C206.247 202.004 207.651 203.287 207.651 204.925V205.197C207.651 206.835 206.247 208.213 204.512 208.275Z" fill="#FF4F00"/>
<path d="M204.483 208.859C202.401 208.934 200.703 207.336 200.703 205.295C200.703 203.255 202.401 201.541 204.483 201.477C206.559 201.412 208.244 203.011 208.244 205.041C208.244 207.071 206.559 208.783 204.483 208.859ZM204.483 202.642C203.059 202.688 201.899 203.86 201.899 205.255C201.899 206.65 203.059 207.744 204.483 207.693C205.904 207.643 207.058 206.471 207.058 205.081C207.058 203.69 205.904 202.597 204.483 202.642Z" fill="#D8DEE8"/>
<path d="M267.119 210.674L215.834 212.688C214.106 212.756 212.702 214.194 212.702 215.901C212.702 217.608 214.106 218.931 215.834 218.855L267.119 216.62C268.721 216.55 270.018 215.166 270.018 213.527C270.018 211.889 268.721 210.611 267.119 210.674Z" fill="#D8DEE8"/>
<path d="M204.512 219.348L204.454 219.351C202.714 219.426 201.301 218.154 201.301 216.509V216.236C201.301 214.591 202.714 213.202 204.454 213.134L204.512 213.132C206.247 213.063 207.651 214.336 207.651 215.974V216.246C207.651 217.884 206.247 219.272 204.512 219.348Z" fill="#FF4F00"/>
<path d="M204.483 219.932C202.401 220.024 200.703 218.438 200.703 216.397C200.703 214.357 202.401 212.631 204.483 212.55C206.559 212.469 208.244 214.055 208.244 216.085C208.244 218.115 206.559 219.841 204.483 219.932ZM204.483 213.715C203.059 213.772 201.899 214.953 201.899 216.348C201.899 217.743 203.059 218.828 204.483 218.766C205.904 218.705 207.058 217.524 207.058 216.134C207.058 214.744 205.904 213.659 204.483 213.715Z" fill="#D8DEE8"/>
<path d="M267.119 221.265L215.834 223.673C214.106 223.754 212.702 225.204 212.702 226.911C212.702 228.618 214.106 229.929 215.834 229.841L267.119 227.211C268.721 227.129 270.018 225.734 270.018 224.096C270.018 222.457 268.721 221.19 267.119 221.265Z" fill="#D8DEE8"/>
<path d="M204.512 230.421L204.454 230.424C202.714 230.514 201.301 229.253 201.301 227.608V227.334C201.301 225.689 202.714 224.289 204.454 224.208L204.512 224.205C206.247 224.123 207.651 225.385 207.651 227.023V227.295C207.651 228.933 206.247 230.333 204.512 230.421Z" fill="#FF4F00"/>
<path d="M204.483 231.006C202.401 231.113 200.702 229.541 200.702 227.5C200.702 225.459 202.401 223.72 204.483 223.623C206.559 223.527 208.243 225.1 208.243 227.13C208.243 229.16 206.559 230.898 204.483 231.006ZM204.483 224.789C203.059 224.856 201.898 226.046 201.898 227.441C201.898 228.836 203.059 229.912 204.483 229.84C205.904 229.768 207.058 228.578 207.058 227.188C207.058 225.798 205.904 224.722 204.483 224.789Z" fill="#D8DEE8"/>
<mask id="mask4_321_654" style="mask-type:luminance" maskUnits="userSpaceOnUse" x="212" y="116" width="48" height="49">
<path d="M259.818 140.705C259.818 153.601 249.474 164.111 236.498 164.18C223.278 164.251 212.377 153.497 212.377 140.159C212.377 126.821 223.278 116.318 236.498 116.693C249.474 117.062 259.818 127.809 259.818 140.705Z" fill="white"/>
</mask>
<g mask="url(#mask4_321_654)">
<path d="M210.412 157.827C210.412 157.827 233.33 144.481 261.651 157.784C261.651 157.784 258.044 169.196 236.498 169.962C214.27 170.751 210.412 157.827 210.412 157.827Z" fill="url(#paint13_linear_321_654)"/>
<path d="M232.437 140.391L231.578 146.762C231.329 150.82 227.304 152.333 227.304 152.333C232.029 157.937 241.059 157.73 244.216 152.434C242.035 151.616 239.589 148.253 239.494 145.909L239.273 140.469L232.437 140.391Z" fill="url(#paint14_linear_321_654)"/>
<path d="M242.854 134.886C242.854 140.264 239.606 146.018 235.578 145.987C231.528 145.957 228.227 140.093 228.227 134.659C228.227 129.225 231.528 126.323 235.578 126.41C239.606 126.497 242.854 129.508 242.854 134.886Z" fill="url(#paint15_linear_321_654)"/>
<path d="M228.009 136.028C228.414 135.97 228.819 135.912 229.224 135.854C229.038 135.407 228.27 133.425 229.224 131.718C230.138 130.079 232.292 129.313 233.936 129.454C235.803 129.613 236.923 130.493 237.86 129.846C238.386 129.482 238.557 128.807 238.617 128.28C238.659 128.618 238.753 129.12 238.995 129.678C239.692 131.278 240.87 131.63 241.511 132.691C241.943 133.405 242.224 134.593 241.511 136.666C241.867 136.65 242.222 136.634 242.578 136.618C242.953 135.454 243.403 133.802 243.683 131.776C244.098 128.769 244.384 126.699 243.204 125.663C242.969 125.456 241.93 124.635 239.441 125.331C238.858 124.712 237.629 123.576 235.738 122.974C235.083 122.765 231.837 121.731 228.958 123.735C226.999 125.098 225.464 127.691 225.957 129.874C226.218 131.028 226.932 131.558 227.56 133.791C227.826 134.734 227.948 135.525 228.009 136.028Z" fill="url(#paint16_linear_321_654)"/>
<path d="M241.843 136.857C241.843 136.857 242.31 134.508 243.728 134.764C245.144 135.019 243.115 138.849 241.843 139.297V136.857Z" fill="url(#paint17_linear_321_654)"/>
<path d="M229.138 136.678C229.138 136.678 228.662 134.292 227.214 134.506C225.762 134.719 227.84 138.655 229.138 139.14V136.678Z" fill="url(#paint18_linear_321_654)"/>
</g>
<path opacity="0.5" d="M240.694 100.111L194.383 97.9326C192.494 97.8561 190.959 99.2841 190.959 101.122V248.697C190.959 250.535 192.494 251.924 194.383 251.8L240.65 248.551L240.694 100.111Z" fill="#D8DEE8"/>
<path d="M231.966 228.956C233.684 232.666 232.047 236.377 230.476 238.874C230.101 238.876 229.884 238.98 229.505 239.072C226.088 239.904 224.486 239.481 221.012 239.732C220.264 239.786 218.043 239.229 217.151 238.938L215.496 238.368C215.496 238.368 212.559 229.344 217.174 226.852C221.788 224.359 220.021 215.379 219.635 210.481C218.585 197.192 232.945 198.4 232.962 181.216C232.966 176.645 231.446 167.927 235.299 164.287C239.689 160.14 242.894 164.208 245.717 160.74C250.129 155.319 257.288 153.375 261.556 158.953C265.768 164.459 260.65 175.419 247.927 184.228C239.516 191.582 239.384 193.783 240.046 199.144C240.51 202.899 244.092 212.682 238.995 216.588C233.898 220.494 230.003 224.715 231.966 228.956Z" fill="url(#paint19_linear_321_654)"/>
<mask id="mask5_321_654" style="mask-type:luminance" maskUnits="userSpaceOnUse" x="214" y="155" width="50" height="87">
<path d="M228.259 241.911L215.775 238.696C215.775 238.696 212.56 229.344 217.175 226.852C221.789 224.359 220.022 215.379 219.635 210.481C218.586 197.192 232.946 198.4 232.962 181.216C232.967 176.645 231.447 167.927 235.3 164.287C239.69 160.14 242.895 164.208 245.718 160.74C250.13 155.319 257.289 153.375 261.557 158.953C265.769 164.459 260.651 175.419 247.928 184.228C239.517 191.582 239.385 193.783 240.047 199.144C240.511 202.899 244.093 212.682 238.996 216.588C233.899 220.494 230.003 224.715 231.967 228.956C234.955 235.409 228.259 241.911 228.259 241.911Z" fill="white"/>
</mask>
<g mask="url(#mask5_321_654)">
<g opacity="0.5">
<path d="M222.821 239.872L222.567 239.84C222.756 238.329 222.964 236.808 223.187 235.318C224.84 224.287 227.462 213.81 230.982 204.177C233.964 196.015 237.631 188.343 241.88 181.375C245.297 175.772 249.108 170.591 253.207 165.976C256.088 162.732 259.081 159.8 262.102 157.26C262.628 156.818 263.191 156.395 263.736 155.985C264.461 155.44 265.211 154.876 265.88 154.262L266.053 154.45C265.375 155.073 264.62 155.641 263.889 156.19C263.347 156.597 262.787 157.018 262.266 157.456C259.255 159.988 256.271 162.911 253.398 166.146C249.309 170.749 245.508 175.918 242.098 181.508C237.858 188.462 234.199 196.118 231.222 204.265C227.708 213.881 225.09 224.342 223.44 235.356C223.217 236.843 223.009 238.363 222.821 239.872Z" fill="#FCFDFE"/>
<path d="M237.28 190.199L237.048 190.09C241.708 180.16 237.616 161.813 237.574 161.629L237.824 161.572C237.866 161.757 241.976 180.189 237.28 190.199Z" fill="#FCFDFE"/>
<path d="M226.681 219.121L226.439 219.041C228.816 211.921 242.144 206.426 242.278 206.371L242.374 206.608C242.241 206.662 229.021 212.113 226.681 219.121Z" fill="#FCFDFE"/>
<path d="M225.682 223.276L225.429 223.239C226.134 218.391 224.506 211.402 220.843 203.561C220.659 203.166 220.659 203.166 220.665 203.118L220.918 203.152L220.792 203.135L220.915 203.104C220.924 203.131 220.994 203.28 221.074 203.453C224.758 211.339 226.394 218.379 225.682 223.276Z" fill="#FCFDFE"/>
<path d="M223.204 237.119L222.972 237.011C225.244 232.117 233.012 230.185 233.09 230.166L233.15 230.414C233.073 230.433 225.424 232.336 223.204 237.119Z" fill="#FCFDFE"/>
<path d="M222.435 239.892C221.472 235.649 219.259 231.543 215.669 227.34L215.864 227.174C219.481 231.409 221.711 235.551 222.684 239.836L222.435 239.892Z" fill="#FCFDFE"/>
<path d="M251.029 168.903L250.804 168.782C253.702 163.405 255.5 157.085 256.091 155.008C256.234 154.505 256.285 154.328 256.314 154.27L256.543 154.381C256.522 154.426 256.441 154.714 256.337 155.078C255.744 157.161 253.94 163.502 251.029 168.903Z" fill="#FCFDFE"/>
<path d="M245.023 176.949L244.844 176.767C248.926 172.749 260.381 172.877 260.867 172.885L260.863 173.14C260.745 173.139 249.029 173.006 245.023 176.949Z" fill="#FCFDFE"/>
</g>
</g>
<mask id="mask6_321_654" style="mask-type:luminance" maskUnits="userSpaceOnUse" x="209" y="178" width="65" height="88">
<path d="M211.697 261.095L226.59 265.763C226.59 265.763 231.788 259.002 229.828 252.467C225.83 239.132 237.787 236.561 242.635 234.735C249.945 231.981 255.185 226.366 247.456 220.783C239.727 215.201 252.593 204.543 265.04 201.797C277.22 199.109 279.471 175.907 252.574 179.304C236.512 181.332 234.044 196.914 230.927 204.487C227.81 212.059 216.03 209.074 217.012 219.827C217.85 229.011 222.425 236.95 215.766 240.996C209.108 245.043 206.638 251.145 211.697 261.095Z" fill="white"/>
</mask>
<g mask="url(#mask6_321_654)">
<path d="M211.697 261.095L226.59 265.763C226.59 265.763 231.788 259.002 229.828 252.467C225.83 239.132 237.787 236.561 242.635 234.735C249.945 231.981 254.392 226.856 248.54 220.793C241.918 213.933 252.593 204.543 265.04 201.797C277.22 199.109 279.471 175.907 252.574 179.304C236.512 181.332 234.044 196.914 230.927 204.487C227.81 212.059 216.03 209.074 217.012 219.827C217.85 229.011 222.425 236.95 215.766 240.996C209.108 245.043 206.638 251.145 211.697 261.095Z" fill="url(#paint20_linear_321_654)"/>
</g>
<mask id="mask7_321_654" style="mask-type:luminance" maskUnits="userSpaceOnUse" x="209" y="178" width="65" height="88">
<path d="M211.697 261.095L226.59 265.763C226.59 265.763 231.788 259.002 229.828 252.467C225.83 239.132 237.787 236.561 242.635 234.735C249.945 231.981 255.185 226.366 247.456 220.783C239.727 215.201 252.593 204.543 265.04 201.797C277.22 199.109 279.471 175.907 252.574 179.304C236.512 181.332 234.044 196.914 230.927 204.487C227.81 212.059 216.03 209.074 217.012 219.827C217.85 229.011 222.425 236.95 215.766 240.996C209.108 245.043 206.638 251.145 211.697 261.095Z" fill="white"/>
</mask>
<g mask="url(#mask7_321_654)">
<g opacity="0.5">
<path d="M217.71 264.498L218.037 264.538C218.062 264.336 220.63 244.066 229.236 224.74C237.163 206.935 251.986 186.312 277.581 189.17L277.617 188.842C266.224 187.57 255.981 190.764 247.174 198.337C240.139 204.385 234.001 213.226 228.932 224.612C220.308 243.983 217.735 264.295 217.71 264.498Z" fill="#BEB8F2"/>
<path d="M243.631 201.659L243.955 201.718C245.917 190.929 254.496 177.418 254.583 177.283L254.305 177.105C254.218 177.241 245.604 190.807 243.631 201.659Z" fill="#BEB8F2"/>
<path d="M249.637 196.775C262.287 193.498 271.184 199.762 271.272 199.826L271.465 199.558C271.375 199.493 262.36 193.139 249.554 196.456L249.637 196.775Z" fill="#BEB8F2"/>
<path d="M224.298 237.681C232.46 223.96 253.76 226.644 253.965 226.687L254.054 226.371C253.857 226.309 232.249 223.67 224.015 237.513L224.298 237.681Z" fill="#BEB8F2"/>
<path d="M226.17 231.369L226.498 231.401C227.502 221.263 219.23 211.479 219.146 211.381L218.896 211.595C218.979 211.692 227.16 221.372 226.17 231.369Z" fill="#BEB8F2"/>
<path d="M218.511 261.357C220.773 255.729 230.442 253.743 230.539 253.723L230.475 253.4C230.07 253.481 220.534 255.44 218.205 261.234L218.511 261.357Z" fill="#BEB8F2"/>
<path d="M219.055 256.55L219.381 256.594C220.025 251.842 214.782 244.68 213.059 242.327C212.816 241.994 212.606 241.707 212.578 241.648L212.278 241.784C212.315 241.867 212.454 242.058 212.793 242.521C214.497 244.848 219.681 251.929 219.055 256.55Z" fill="#BEB8F2"/>
</g>
</g>
<path d="M225.794 264.869C225.738 264.895 225.682 264.921 225.626 264.946C222.314 266.472 218.425 267.553 213.852 267.845C212.957 267.839 212.061 267.833 211.166 267.827C210.36 265.723 209.969 263.578 212.67 262.679C216.864 261.284 216.739 253.836 215.498 251.238C213.963 248.022 210.54 240.461 216.99 238.202C222.36 236.321 226.209 236.205 226.376 229.212C226.542 222.219 230.22 217.747 236.563 217.969C243.239 218.202 248.432 209.167 253.981 211.966C263.649 216.845 255.503 232.492 244.072 237.303C232.642 242.113 239.404 246.078 239.89 251.782C240.555 259.568 229.96 258.224 227.268 261.373C226.356 262.44 225.935 263.662 225.794 264.869Z" fill="url(#paint21_linear_321_654)"/>
<mask id="mask8_321_654" style="mask-type:luminance" maskUnits="userSpaceOnUse" x="210" y="211" width="49" height="59">
<path d="M226.232 269.155L211.712 269.485C210.819 267.449 209.653 263.681 212.67 262.678C216.864 261.282 216.739 253.834 215.498 251.236C213.963 248.02 210.54 240.459 216.99 238.2C222.36 236.319 226.209 236.203 226.376 229.21C226.542 222.217 230.22 217.745 236.563 217.967C243.239 218.2 248.432 209.165 253.981 211.964C263.65 216.843 255.503 232.49 244.072 237.301C232.642 242.111 239.404 246.076 239.891 251.78C240.555 259.566 229.96 258.222 227.268 261.371C225.158 263.84 225.664 267.142 226.232 269.155Z" fill="white"/>
</mask>
<g mask="url(#mask8_321_654)">
<g opacity="0.5">
<path d="M219.344 267.027L219.033 266.973C222.965 244.301 237.88 223.648 257.959 213.074L258.105 213.353C238.111 223.882 223.259 244.449 219.344 267.027Z" fill="#FCFDFE"/>
<path d="M222.546 254.849L222.231 254.858C221.986 245.818 214.056 238.982 213.976 238.914L214.18 238.674C214.261 238.743 222.297 245.667 222.546 254.849Z" fill="#FCFDFE"/>
<path d="M220.18 262.877L219.899 262.735C224.032 254.551 240.653 252.958 240.821 252.943L240.849 253.257C240.683 253.272 224.235 254.849 220.18 262.877Z" fill="#FCFDFE"/>
<path d="M233.189 234.965L232.897 234.848C235.609 228.1 230.978 217.955 230.931 217.853L231.217 217.721C231.264 217.824 235.952 228.093 233.189 234.965Z" fill="#FCFDFE"/>
<path d="M242.937 224.078L242.765 223.814C249.705 219.285 260.701 221.386 260.811 221.407L260.75 221.716C260.642 221.695 249.769 219.619 242.937 224.078Z" fill="#FCFDFE"/>
</g>
</g>
<path d="M218.231 81.8912L117.718 73.2807C115.383 73.1862 113.486 75.0797 113.486 77.5103V272.648C113.486 275.079 115.383 276.924 117.718 276.771L219.27 270.102C221.359 269.965 223.049 267.996 223.049 265.704V81.6976C223.049 79.4057 220.32 81.9759 218.231 81.8912Z" fill="url(#paint22_linear_321_654)"/>
<path d="M195.094 76.9728C195.094 75.6167 196.142 74.5244 197.419 74.5494L198.29 74.5039L202.466 76.1698V77.6926L195.094 76.9728Z" fill="url(#paint23_linear_321_654)"/>
<path d="M221.98 77.3946L120.427 73.2807C118.093 73.1862 116.196 75.0797 116.196 77.5103V272.648C116.196 275.079 118.093 276.924 120.427 276.771L221.98 270.102C224.069 269.965 225.759 267.996 225.759 265.704V81.6976C225.759 79.4057 224.069 77.4792 221.98 77.3946Z" fill="#D8DEE8"/>
<g opacity="0.3">
<path d="M180.445 220.803C178.719 198.57 191.657 189.375 186.726 169.241C180.626 144.339 157.13 143.244 149.115 118.773C146.042 109.392 144.828 95.2159 153.622 74.6255L120.427 73.2807C118.093 73.1862 116.196 75.0797 116.196 77.5103V272.648C116.196 275.079 118.093 276.924 120.427 276.771L211.031 270.821C188.061 252.151 181.505 234.467 180.445 220.803Z" fill="#D8DEE8"/>
</g>
<path d="M221.98 79.8453L120.427 75.8685C119.47 75.831 118.691 76.6105 118.691 77.6062V272.49C118.691 273.486 119.47 274.246 120.427 274.184L221.98 267.652C222.837 267.597 223.534 266.786 223.534 265.845V81.613C223.534 80.6719 222.837 79.8789 221.98 79.8453Z" fill="url(#paint24_linear_321_654)"/>
<path d="M172.586 165.945C153.572 166.099 137.816 149.549 137.816 129.051C137.816 108.553 153.572 92.3659 172.586 92.9571C191.219 93.5364 206.105 110.076 206.105 129.837C206.105 149.598 191.219 165.795 172.586 165.945Z" fill="#D8DEE8"/>
<path d="M203.832 129.811C203.832 148.262 189.973 163.312 172.586 163.429C154.868 163.548 140.255 148.17 140.255 129.079C140.255 109.989 154.868 94.9474 172.586 95.4744C189.973 95.9914 203.832 111.361 203.832 129.811Z" fill="white"/>
<path opacity="0.74" d="M210.634 178.979L132.918 180.173C130.746 180.207 128.981 182.079 128.981 184.355C128.981 186.631 130.746 188.441 132.918 188.398L210.634 186.868C212.628 186.829 214.241 185.035 214.241 182.86C214.241 180.686 212.628 178.948 210.634 178.979Z" fill="url(#paint25_linear_321_654)"/>
<path d="M210.634 194.511L146.97 196.031C144.83 196.082 143.091 197.955 143.091 200.214C143.091 202.473 144.83 204.255 146.97 204.195L210.634 202.4C212.628 202.344 214.241 200.536 214.241 198.362C214.241 196.187 212.628 194.463 210.634 194.511Z" fill="#D8DEE8"/>
<path d="M132.954 204.59L132.882 204.592C130.73 204.652 128.981 202.937 128.981 200.761V200.4C128.981 198.223 130.73 196.418 132.882 196.366L132.954 196.364C135.101 196.313 136.838 198.029 136.838 200.196V200.556C136.838 202.723 135.101 204.529 132.954 204.59Z" fill="#FF4F00"/>
<path d="M132.918 205.362C130.342 205.436 128.241 203.3 128.241 200.6C128.241 197.901 130.342 195.655 132.918 195.595C135.486 195.535 137.571 197.671 137.571 200.358C137.571 203.044 135.486 205.289 132.918 205.362ZM132.918 197.137C131.156 197.18 129.72 198.716 129.72 200.562C129.72 202.407 131.156 203.869 132.918 203.82C134.676 203.771 136.104 202.235 136.104 200.396C136.104 198.556 134.676 197.095 132.918 197.137Z" fill="#D8DEE8"/>
<path d="M210.634 208.564L146.97 210.574C144.83 210.641 143.091 212.528 143.091 214.787C143.091 217.046 144.83 218.815 146.97 218.738L210.634 216.454C212.628 216.382 214.241 214.562 214.241 212.387C214.241 210.213 212.628 208.501 210.634 208.564Z" fill="#D8DEE8"/>
<path d="M132.954 219.241L132.882 219.243C130.73 219.321 128.981 217.619 128.981 215.443V215.081C128.981 212.905 130.73 211.086 132.882 211.018L132.954 211.016C135.101 210.948 136.838 212.65 136.838 214.817V215.177C136.838 217.344 135.101 219.164 132.954 219.241Z" fill="#FF4F00"/>
<path d="M132.918 220.014C130.342 220.107 128.241 217.987 128.241 215.288C128.241 212.588 130.342 210.327 132.918 210.246C135.486 210.166 137.571 212.287 137.571 214.973C137.571 217.659 135.486 219.92 132.918 220.014ZM132.918 211.789C131.156 211.845 129.72 213.392 129.72 215.238C129.72 217.083 131.156 218.534 132.918 218.472C134.676 218.409 136.104 216.862 136.104 215.023C136.104 213.183 134.676 211.732 132.918 211.789Z" fill="#D8DEE8"/>
<path d="M210.634 222.616L146.97 225.115C144.83 225.2 143.091 227.099 143.091 229.358C143.091 231.618 144.83 233.373 146.97 233.28L210.634 230.505C212.628 230.418 214.241 228.585 214.241 226.411C214.241 224.237 212.628 222.538 210.634 222.616Z" fill="#D8DEE8"/>
<path d="M132.918 234.665C130.342 234.779 128.241 232.675 128.241 229.975C128.241 227.276 130.342 224.998 132.918 224.898C135.486 224.798 137.571 226.903 137.571 229.589C137.571 232.275 135.486 234.552 132.918 234.665ZM132.918 226.44C131.156 226.51 129.72 228.069 129.72 229.914C129.72 231.76 131.156 233.199 132.918 233.123C134.676 233.047 136.104 231.489 136.104 229.65C136.104 227.81 134.676 226.37 132.918 226.44Z" fill="#D8DEE8"/>
<path d="M210.634 236.67L146.97 239.659C144.83 239.76 143.091 241.673 143.091 243.932C143.091 246.191 144.83 247.934 146.97 247.824L210.634 244.559C212.628 244.457 214.241 242.612 214.241 240.437C214.241 238.263 212.628 236.576 210.634 236.67Z" fill="#D8DEE8"/>
<path d="M132.953 248.542L132.882 248.546C130.729 248.656 128.981 246.981 128.981 244.805V244.444C128.981 242.268 130.729 240.421 132.882 240.32L132.953 240.317C135.101 240.216 136.838 241.891 136.838 244.059V244.419C136.838 246.586 135.101 248.432 132.953 248.542Z" fill="#FF4F00"/>
<path d="M132.917 249.315C130.342 249.448 128.241 247.361 128.241 244.661C128.241 241.962 130.342 239.668 132.917 239.548C135.486 239.428 137.571 241.517 137.571 244.203C137.571 246.889 135.486 249.183 132.917 249.315ZM132.917 241.09C131.156 241.174 129.72 242.743 129.72 244.589C129.72 246.434 131.156 247.863 132.917 247.773C134.676 247.684 136.104 246.114 136.104 244.275C136.104 242.436 134.676 241.007 132.917 241.09Z" fill="#D8DEE8"/>
<mask id="mask9_321_654" style="mask-type:luminance" maskUnits="userSpaceOnUse" x="142" y="97" width="60" height="64">
<path d="M201.554 129.786C201.554 146.891 188.697 160.826 172.586 160.913C156.192 161.001 142.689 146.762 142.689 129.108C142.689 111.454 156.192 97.5263 172.586 97.9918C188.697 98.4492 201.554 112.681 201.554 129.786Z" fill="white"/>
</mask>
<g mask="url(#mask9_321_654)">
<path d="M178.224 104.855C184.36 108.61 186.08 115.158 186.472 116.747C189.181 127.739 180.834 133.319 184.39 141.09C187.304 147.459 195.547 149.469 195.208 150.167C194.904 150.791 189.021 147.747 183.34 146.368C164.815 141.869 148.715 155.138 146.433 151.82C144.818 149.471 154.255 144.801 156.203 133.883C158.046 123.547 151.314 118.053 155.402 110.341C158.127 105.199 163.392 103.353 164.291 103.054C171.263 100.731 177.281 104.278 178.224 104.855Z" fill="url(#paint26_linear_321_654)"/>
<path d="M140.255 152.407C140.255 152.407 168.656 134.729 203.833 152.357C203.833 152.357 199.348 167.492 172.586 168.489C145.033 169.515 140.255 152.407 140.255 152.407Z" fill="url(#paint27_linear_321_654)"/>
<path d="M167.548 129.395L166.483 137.836C166.12 140.716 164.257 143.125 161.665 144.059L153.007 147.178C153.007 147.178 169.582 155.681 190.54 147.171L180.982 143.626C178.27 142.54 176.422 139.807 176.304 136.7L176.03 129.492L167.548 129.395Z" fill="url(#paint28_linear_321_654)"/>
<path d="M168.667 135.108C164.312 133.864 161.978 130.07 160.595 127.82C158.275 124.05 155.075 116.245 158.088 111.81C158.257 111.561 158.452 111.439 158.801 111.001C160.849 108.43 160.612 106.323 161.408 104.974C163.329 101.719 171.143 103.085 171.618 103.173C179.968 104.711 183.589 112.36 183.66 112.531C183.726 112.686 183.791 112.845 183.791 112.845C184.297 114.086 187.197 121.194 183.558 127.853C180.641 133.192 174.353 136.732 168.667 135.108Z" fill="url(#paint29_linear_321_654)"/>
<path d="M180.475 122.09C180.475 129.219 176.443 136.846 171.445 136.809C166.42 136.771 162.327 129.007 162.327 121.809C162.327 114.611 166.42 110.762 171.445 110.869C176.444 110.977 180.475 114.962 180.475 122.09Z" fill="url(#paint30_linear_321_654)"/>
<path d="M162.024 126.447C162.89 126.408 161.64 118.917 164.995 116.883C167.223 115.532 171.09 116.83 173.265 119.297C176.694 123.187 174.775 128.702 177.372 129.91C179.021 130.677 181.223 129.113 182.278 127.963C185.572 124.369 185.123 116.68 181.229 112.293C178.125 108.796 173.914 108.608 172.912 108.596C167.181 108.529 161.92 112.992 160.714 118.324C159.787 122.422 161.384 126.475 162.024 126.447Z" fill="url(#paint31_linear_321_654)"/>
</g>
<path opacity="0.35" d="M180.445 220.804C178.719 198.57 191.657 189.375 186.726 169.241C180.626 144.34 157.13 143.244 149.115 118.774C146.169 109.779 144.931 96.3769 152.59 77.128L120.427 75.8685C119.47 75.831 118.691 76.6105 118.691 77.6062V272.49C118.691 273.486 119.47 274.246 120.427 274.184L208.291 268.533C187.53 250.698 181.462 233.902 180.445 220.804Z" fill="white"/>
<path d="M217.563 104.658L208.267 97.2888L198.876 104.209V80.9551C198.876 79.1421 198.059 77.399 196.661 76.2304L196.589 76.1699L214.313 76.8659C216.11 76.9364 217.563 78.4985 217.563 80.3549L217.563 104.658Z" fill="#D8DEE8"/>
<path d="M219.265 104.658L209.968 96.8578L200.577 104.182V79.569C200.577 77.6499 199.76 75.8049 198.362 74.5679L198.29 74.5039L216.014 75.2405C217.811 75.3151 219.265 76.9686 219.265 78.9337V104.658Z" fill="url(#paint32_linear_321_654)"/>
</g>
<defs>
<linearGradient id="paint0_linear_321_654" x1="76.3073" y1="76.4115" x2="104.017" y2="163.912" gradientUnits="userSpaceOnUse">
<stop stop-color="#FF9085"/>
<stop offset="1" stop-color="#FB6FBB"/>
</linearGradient>
<linearGradient id="paint1_linear_321_654" x1="89.817" y1="49.4634" x2="125.268" y2="180.427" gradientUnits="userSpaceOnUse">
<stop stop-color="#FFC444"/>
<stop offset="0.9964" stop-color="#F36F56"/>
</linearGradient>
<linearGradient id="paint2_linear_321_654" x1="48.5726" y1="176.239" x2="150.217" y2="176.239" gradientUnits="userSpaceOnUse">
<stop stop-color="#444B8C"/>
<stop offset="0.9964" stop-color="#26264F"/>
</linearGradient>
<linearGradient id="paint3_linear_321_654" x1="48.5725" y1="176.239" x2="150.217" y2="176.239" gradientUnits="userSpaceOnUse">
<stop stop-color="#444B8C"/>
<stop offset="0.9964" stop-color="#26264F"/>
</linearGradient>
<linearGradient id="paint4_linear_321_654" x1="144.818" y1="102.223" x2="79.3207" y2="209.401" gradientUnits="userSpaceOnUse">
<stop stop-color="white"/>
<stop offset="0.9964" stop-color="#EBEFF2"/>
</linearGradient>
<linearGradient id="paint5_linear_321_654" x1="62.439" y1="183.184" x2="141.529" y2="183.184" gradientUnits="userSpaceOnUse">
<stop stop-color="#FF4F00" stop-opacity="0.5"/>
<stop offset="0.9964" stop-color="#FF4F00"/>
</linearGradient>
<linearGradient id="paint6_linear_321_654" x1="72.958" y1="161.184" x2="131.93" y2="161.184" gradientUnits="userSpaceOnUse">
<stop stop-color="#FF9085"/>
<stop offset="1" stop-color="#FB6FBB"/>
</linearGradient>
<linearGradient id="paint7_linear_321_654" x1="102.662" y1="160.06" x2="100.58" y2="128.189" gradientUnits="userSpaceOnUse">
<stop stop-color="#893976"/>
<stop offset="1" stop-color="#311944"/>
</linearGradient>
<linearGradient id="paint8_linear_321_654" x1="106.339" y1="131.158" x2="71.906" y2="155.661" gradientUnits="userSpaceOnUse">
<stop stop-color="#893976"/>
<stop offset="1" stop-color="#311944"/>
</linearGradient>
<linearGradient id="paint9_linear_321_654" x1="189.044" y1="174.869" x2="277.352" y2="174.869" gradientUnits="userSpaceOnUse">
<stop stop-color="#444B8C"/>
<stop offset="0.9964" stop-color="#26264F"/>
</linearGradient>
<linearGradient id="paint10_linear_321_654" x1="189.044" y1="174.869" x2="277.352" y2="174.869" gradientUnits="userSpaceOnUse">
<stop stop-color="#444B8C"/>
<stop offset="0.9964" stop-color="#26264F"/>
</linearGradient>
<linearGradient id="paint11_linear_321_654" x1="226.768" y1="177.318" x2="267.913" y2="152.575" gradientUnits="userSpaceOnUse">
<stop stop-color="white"/>
<stop offset="0.9964" stop-color="#EBEFF2"/>
</linearGradient>
<linearGradient id="paint12_linear_321_654" x1="201.301" y1="181.375" x2="270.017" y2="181.375" gradientUnits="userSpaceOnUse">
<stop stop-color="#FF4F00" stop-opacity="0.5"/>
<stop offset="0.9964" stop-color="#FF4F00"/>
</linearGradient>
<linearGradient id="paint13_linear_321_654" x1="210.412" y1="160.94" x2="261.651" y2="160.94" gradientUnits="userSpaceOnUse">
<stop stop-color="#AB316D"/>
<stop offset="1" stop-color="#792D3D"/>
</linearGradient>
<linearGradient id="paint14_linear_321_654" x1="235.709" y1="142.535" x2="235.805" y2="161.163" gradientUnits="userSpaceOnUse">
<stop offset="0.0036" stop-color="#F36F56"/>
<stop offset="1" stop-color="#FFC444"/>
</linearGradient>
<linearGradient id="paint15_linear_321_654" x1="238.435" y1="116.963" x2="233.754" y2="145.872" gradientUnits="userSpaceOnUse">
<stop offset="0.0036" stop-color="#F36F56"/>
<stop offset="1" stop-color="#FFC444"/>
</linearGradient>
<linearGradient id="paint16_linear_321_654" x1="235.963" y1="122.897" x2="233.688" y2="136.947" gradientUnits="userSpaceOnUse">
<stop stop-color="#444B8C"/>
<stop offset="0.9964" stop-color="#26264F"/>
</linearGradient>
<linearGradient id="paint17_linear_321_654" x1="245.907" y1="118.451" x2="241.269" y2="147.091" gradientUnits="userSpaceOnUse">
<stop offset="0.0036" stop-color="#F36F56"/>
<stop offset="1" stop-color="#FFC444"/>
</linearGradient>
<linearGradient id="paint18_linear_321_654" x1="231.433" y1="115.479" x2="226.698" y2="144.719" gradientUnits="userSpaceOnUse">
<stop offset="0.0036" stop-color="#F36F56"/>
<stop offset="1" stop-color="#FFC444"/>
</linearGradient>
<linearGradient id="paint19_linear_321_654" x1="254.583" y1="153.801" x2="209.309" y2="252.781" gradientUnits="userSpaceOnUse">
<stop stop-color="#FF9668"/>
<stop offset="0.9964" stop-color="#FF4F00"/>
</linearGradient>
<linearGradient id="paint20_linear_321_654" x1="265.222" y1="182.678" x2="209.161" y2="257.647" gradientUnits="userSpaceOnUse">
<stop offset="0.0036" stop-color="#E38DDD"/>
<stop offset="1" stop-color="#9571F6"/>
</linearGradient>
<linearGradient id="paint21_linear_321_654" x1="245.515" y1="215.243" x2="213.875" y2="270.1" gradientUnits="userSpaceOnUse">
<stop stop-color="#FFC444"/>
<stop offset="0.9964" stop-color="#F36F56"/>
</linearGradient>
<linearGradient id="paint22_linear_321_654" x1="113.486" y1="175.029" x2="223.049" y2="175.029" gradientUnits="userSpaceOnUse">
<stop stop-color="#444B8C"/>
<stop offset="0.9964" stop-color="#26264F"/>
</linearGradient>
<linearGradient id="paint23_linear_321_654" x1="195.094" y1="76.0982" x2="202.466" y2="76.0982" gradientUnits="userSpaceOnUse">
<stop stop-color="#AB316D"/>
<stop offset="1" stop-color="#792D3D"/>
</linearGradient>
<linearGradient id="paint24_linear_321_654" x1="223.024" y1="86.7914" x2="144.994" y2="214.477" gradientUnits="userSpaceOnUse">
<stop stop-color="white"/>
<stop offset="0.9964" stop-color="#EBEFF2"/>
</linearGradient>
<linearGradient id="paint25_linear_321_654" x1="128.981" y1="183.689" x2="214.241" y2="183.689" gradientUnits="userSpaceOnUse">
<stop stop-color="#FF4F00" stop-opacity="0.5"/>
<stop offset="0.9964" stop-color="#FF4F00"/>
</linearGradient>
<linearGradient id="paint26_linear_321_654" x1="207.706" y1="91.2353" x2="140.831" y2="171.301" gradientUnits="userSpaceOnUse">
<stop stop-color="#AB316D"/>
<stop offset="1" stop-color="#792D3D"/>
</linearGradient>
<linearGradient id="paint27_linear_321_654" x1="176.687" y1="130.971" x2="169.97" y2="161.943" gradientUnits="userSpaceOnUse">
<stop stop-color="#FF4F00" stop-opacity="0.5"/>
<stop offset="0.9964" stop-color="#FF4F00"/>
</linearGradient>
<linearGradient id="paint28_linear_321_654" x1="171.697" y1="132.269" x2="171.825" y2="157.239" gradientUnits="userSpaceOnUse">
<stop offset="0.0036" stop-color="#F36F56"/>
<stop offset="1" stop-color="#FFC444"/>
</linearGradient>
<linearGradient id="paint29_linear_321_654" x1="197.516" y1="86.6343" x2="139.06" y2="156.621" gradientUnits="userSpaceOnUse">
<stop stop-color="#AB316D"/>
<stop offset="1" stop-color="#792D3D"/>
</linearGradient>
<linearGradient id="paint30_linear_321_654" x1="175.261" y1="96.0213" x2="169.481" y2="134.975" gradientUnits="userSpaceOnUse">
<stop offset="0.0036" stop-color="#F36F56"/>
<stop offset="1" stop-color="#FFC444"/>
</linearGradient>
<linearGradient id="paint31_linear_321_654" x1="199.66" y1="88.4259" x2="141.204" y2="158.413" gradientUnits="userSpaceOnUse">
<stop stop-color="#AB316D"/>
<stop offset="1" stop-color="#792D3D"/>
</linearGradient>
<linearGradient id="paint32_linear_321_654" x1="221.423" y1="67.1688" x2="193.234" y2="117.129" gradientUnits="userSpaceOnUse">
<stop stop-color="#FF9085"/>
<stop offset="1" stop-color="#FB6FBB"/>
</linearGradient>
<clipPath id="clip0_321_654">
<rect width="327" height="327" fill="white"/>
</clipPath>
</defs>
</svg>
