<svg width="32" height="32" viewBox="0 0 32 32" fill="none" xmlns="http://www.w3.org/2000/svg">
<circle cx="16" cy="16" r="16" fill="#FFDCCC"/>
<g clip-path="url(#clip0_324_1253)">
<path d="M22.8397 12.2545C22.8315 11.8225 22.8237 11.4144 22.8237 11.0196C22.8237 10.7103 22.573 10.4596 22.2636 10.4596C19.8685 10.4596 18.0449 9.77125 16.5249 8.29334C16.3075 8.08187 15.9614 8.08194 15.7441 8.29334C14.2242 9.77125 12.4009 10.4596 10.006 10.4596C9.69666 10.4596 9.44591 10.7103 9.44591 11.0196C9.44591 11.4145 9.43815 11.8227 9.42986 12.2548C9.3531 16.2748 9.24796 21.7805 15.9511 24.1039C16.0105 24.1245 16.0725 24.1348 16.1344 24.1348C16.1964 24.1348 16.2585 24.1245 16.3178 24.1039C23.0215 21.7804 22.9165 16.2746 22.8397 12.2545ZM16.1345 22.9805C10.3857 20.8921 10.4727 16.3173 10.5498 12.2761C10.5544 12.0336 10.5589 11.7985 10.562 11.5681C12.8052 11.4734 14.599 10.7937 16.1345 9.45599C17.6702 10.7937 19.4643 11.4735 21.7076 11.5681C21.7107 11.7985 21.7152 12.0334 21.7198 12.2758C21.7969 16.3171 21.8838 20.892 16.1345 22.9805Z" fill="#FF4F00"/>
<path d="M18.063 14.1894L15.36 16.8923L14.2065 15.7388C13.9878 15.5202 13.6332 15.5202 13.4145 15.7388C13.1958 15.9576 13.1958 16.3122 13.4145 16.5309L14.964 18.0803C15.0733 18.1897 15.2167 18.2443 15.36 18.2443C15.5033 18.2443 15.6466 18.1897 15.7559 18.0803L18.8549 14.9814C19.0737 14.7627 19.0737 14.4081 18.855 14.1895C18.6363 13.9707 18.2817 13.9707 18.063 14.1894Z" fill="#FF4F00"/>
</g>
<defs>
<clipPath id="clip0_324_1253">
<rect width="16" height="16" fill="white" transform="translate(8.13477 8.13477)"/>
</clipPath>
</defs>
</svg>
