<svg width="25" height="24" viewBox="0 0 25 24" fill="none" xmlns="http://www.w3.org/2000/svg">
<circle cx="12" cy="12" r="12" fill="#FFDCCC"/>
<g clip-path="url(#clip0_326_1322)">
<path d="M9.46211 15.6195H8.78945V13.8289L8.9207 13.9602C9.05898 14.0984 9.28164 14.0984 9.41758 13.9602C9.55586 13.8219 9.55586 13.5992 9.41758 13.4633C8.55508 12.6008 8.70273 12.7484 8.68398 12.7297C8.5457 12.5938 8.32539 12.5961 8.18945 12.732L7.4582 13.4633C7.31992 13.6016 7.31992 13.8242 7.4582 13.9602C7.59648 14.0984 7.81914 14.0984 7.95508 13.9602L8.08633 13.8289V15.9711C8.08633 16.1656 8.24336 16.3227 8.43789 16.3227H9.46211C9.65664 16.3227 9.81367 16.1656 9.81367 15.9711C9.81367 15.7766 9.65664 15.6195 9.46211 15.6195Z" fill="#FF4F00"/>
<path d="M14.0693 8.86719H14.9834V10.6578L14.8521 10.5266C14.7139 10.3883 14.4912 10.3883 14.3553 10.5266C14.217 10.6648 14.217 10.8875 14.3553 11.0234L15.0865 11.7547L15.0889 11.757C15.2271 11.893 15.4475 11.893 15.5834 11.7547L16.3146 11.0234C16.4529 10.8852 16.4529 10.6625 16.3146 10.5266C16.1764 10.3883 15.9537 10.3883 15.8178 10.5266L15.6865 10.6578V8.51562C15.6865 8.32109 15.5295 8.16406 15.335 8.16406H14.0693C13.8748 8.16406 13.7178 8.32109 13.7178 8.51562C13.7178 8.71016 13.8748 8.86719 14.0693 8.86719Z" fill="#FF4F00"/>
<path d="M12.3516 10.9758V6.71719C12.3516 6.52266 12.1945 6.36563 12 6.36563H8.50078L8.43047 6.20859C8.37187 6.08203 8.24766 6 8.10938 6H6.35156C6.15703 6 6 6.15703 6 6.35156V10.9758C6 11.1703 6.15703 11.3273 6.35156 11.3273H12C12.1945 11.3273 12.3516 11.1703 12.3516 10.9758ZM11.6484 7.06641V7.76953H9.13359L8.81719 7.06641C8.81719 7.06875 11.6484 7.06875 11.6484 7.06641ZM11.6484 10.6242H6.70312V6.70312H7.88203L8.5875 8.26641C8.64375 8.39062 8.77031 8.47266 8.90859 8.47266H11.6508V10.6242H11.6484Z" fill="#FF4F00"/>
<path d="M18 13.3867C18 13.1922 17.843 13.0352 17.6484 13.0352H14.1492L14.0789 12.8781C14.0227 12.7516 13.8961 12.6719 13.7578 12.6719H12C11.8055 12.6719 11.6484 12.8289 11.6484 13.0234V17.6477C11.6484 17.8422 11.8055 17.9992 12 17.9992H17.6484C17.843 17.9992 18 17.8422 18 17.6477V13.3867ZM17.2969 13.7383V14.4414H14.782L14.4656 13.7383H17.2969ZM17.2969 17.2961H12.3516V13.375H13.5305C13.6289 13.593 14.1398 14.7273 14.2359 14.9383C14.2922 15.0625 14.4164 15.1445 14.557 15.1445H17.2992V17.2961H17.2969Z" fill="#FF4F00"/>
</g>
<defs>
<clipPath id="clip0_326_1322">
<rect width="12" height="12" fill="white" transform="translate(6 6)"/>
</clipPath>
</defs>
</svg>
