<svg width="25" height="24" viewBox="0 0 25 24" fill="none" xmlns="http://www.w3.org/2000/svg">
<circle cx="12" cy="12" r="12" fill="#FFDCCC"/>
<g clip-path="url(#clip0_326_1315)">
<path d="M17.1305 10.6811C17.2407 11.1094 17.2966 11.553 17.2966 11.9997C17.2966 14.9205 14.9205 17.2966 11.9998 17.2966C10.3293 17.2966 8.70824 16.4759 7.71041 15.1638H8.46069V14.4607H6.77994L6.36182 16.1332L7.04394 16.3038L7.20482 15.6603C8.31611 17.0803 10.0861 17.9997 11.9998 17.9997C15.3035 17.9997 17.9998 15.3033 17.9998 11.9997C17.9998 11.4939 17.9364 10.9913 17.8114 10.5059L17.1305 10.6811Z" fill="#FF4F00"/>
<path d="M6.18832 13.4939L6.86925 13.3186C6.75902 12.8904 6.70312 12.4467 6.70312 12C6.70312 9.07929 9.07929 6.70312 12 6.70312C13.6704 6.70312 15.2915 7.52381 16.2893 8.83594H15.5391V9.53906H17.2198L17.6379 7.86652L16.9558 7.69598L16.7949 8.33941C15.6836 6.91943 13.9137 6 12 6C8.69625 6 6 8.69646 6 12C6 12.5058 6.06335 13.0084 6.18832 13.4939Z" fill="#FF4F00"/>
<path d="M9.53906 9.89062V14.1094C9.53906 14.838 10.7751 15.1641 12 15.1641C13.2249 15.1641 14.4609 14.838 14.4609 14.1094V9.89062C14.4609 9.16205 13.2249 8.83594 12 8.83594C10.7751 8.83594 9.53906 9.16205 9.53906 9.89062ZM13.7578 11.267C13.6547 11.3891 13.0513 11.6484 12 11.6484C10.9487 11.6484 10.3453 11.3891 10.2422 11.267V10.6646C10.7109 10.8554 11.3569 10.9453 12 10.9453C12.6431 10.9453 13.2891 10.8554 13.7578 10.6646V11.267ZM13.7578 12.6732C13.6547 12.7953 13.0513 13.0547 12 13.0547C10.9487 13.0547 10.3453 12.7953 10.2422 12.6732V12.0708C10.7109 12.2616 11.3569 12.3516 12 12.3516C12.6431 12.3516 13.2891 12.2616 13.7578 12.0708V12.6732ZM12 14.4609C10.9491 14.4609 10.3456 14.2017 10.2422 14.0796V13.4771C10.7109 13.6679 11.3569 13.7578 12 13.7578C12.6431 13.7578 13.2891 13.6679 13.7578 13.4771V14.0796C13.6544 14.2017 13.0509 14.4609 12 14.4609ZM12 10.2422C11.0283 10.2422 10.4392 10.0206 10.2741 9.89062C10.4392 9.76066 11.0283 9.53906 12 9.53906C12.9717 9.53906 13.5608 9.76066 13.7259 9.89062C13.5608 10.0206 12.9717 10.2422 12 10.2422Z" fill="#FF4F00"/>
</g>
<defs>
<clipPath id="clip0_326_1315">
<rect width="12" height="12" fill="white" transform="translate(6 6)"/>
</clipPath>
</defs>
</svg>
