<svg width="25" height="24" viewBox="0 0 25 24" fill="none" xmlns="http://www.w3.org/2000/svg">
<g clip-path="url(#clip0_321_1176)">
<path d="M12.9678 6.375C12.9678 2.8598 10.0698 0 6.50781 0C2.93612 0 0 2.87714 0 6.375C0 9.62845 2.53814 12.3159 5.79004 12.6645V16.9219H3.63672C3.24032 16.9219 2.91895 17.2367 2.91895 17.625C2.91895 18.0133 3.24032 18.3281 3.63672 18.3281H5.79004V20.4375C5.79004 20.8258 6.11141 21.1406 6.50781 21.1406C6.90421 21.1406 7.22559 20.8258 7.22559 20.4375V18.3281H9.37891C9.77531 18.3281 10.0967 18.0133 10.0967 17.625C10.0967 17.2367 9.77531 16.9219 9.37891 16.9219H7.22559V12.6638C10.4511 12.3129 12.9678 9.62667 12.9678 6.375ZM1.43555 6.375C1.43555 3.6352 3.71098 1.40625 6.50781 1.40625C9.27827 1.40625 11.5322 3.6352 11.5322 6.375C11.5322 9.08892 9.27827 11.2969 6.50781 11.2969C3.71098 11.2969 1.43555 9.08892 1.43555 6.375Z" fill="#8C8C8C"/>
<path d="M18.71 11.3356V5.26001L20.3558 6.87218C20.636 7.14677 21.0905 7.14682 21.3708 6.87218C21.6512 6.59759 21.6512 6.15241 21.3708 5.87782L18.4997 3.06532C18.2195 2.79073 17.765 2.79073 17.4847 3.06532L14.6136 5.87782C14.3333 6.15241 14.3333 6.59759 14.6136 6.87218C14.8938 7.14677 15.3483 7.14677 15.6287 6.87218L17.2744 5.26001V11.3362C14.0489 11.6871 11.5322 14.3734 11.5322 17.625C11.5322 21.1402 14.4302 24 17.9922 24C21.5639 24 24.5 21.1229 24.5 17.625C24.5 14.3716 21.9619 11.6841 18.71 11.3356ZM17.9922 22.5938C15.2217 22.5938 12.9678 20.3648 12.9678 17.625C12.9678 14.9111 15.2217 12.7031 17.9922 12.7031C20.789 12.7031 23.0645 14.9111 23.0645 17.625C23.0645 20.3648 20.789 22.5938 17.9922 22.5938Z" fill="#8C8C8C"/>
</g>
<defs>
<clipPath id="clip0_321_1176">
<rect width="24.5" height="24" fill="white"/>
</clipPath>
</defs>
</svg>
