<svg width="48" height="48" viewBox="0 0 48 48" fill="none" xmlns="http://www.w3.org/2000/svg">
<circle cx="24" cy="24" r="24" fill="white"/>
<path d="M24 23.18C22.9004 23.18 21.9587 22.788 21.1747 22.004C20.3907 21.22 19.9991 20.2787 20 19.18C20.0009 18.0813 20.3924 17.1391 21.1747 16.3533C21.9569 15.5675 22.8987 15.1769 24 15.1813C25.1013 15.1858 26.0431 15.5769 26.8253 16.3547C27.6076 17.1324 27.9991 18.0747 28 19.1813C28.0009 20.288 27.6093 21.2293 26.8253 22.0053C26.0413 22.7813 25.0996 23.172 24 23.18ZM14.6667 32.8213V30.6267C14.6667 30.0764 14.8267 29.5618 15.1467 29.0827C15.4676 28.6027 15.8987 28.2302 16.44 27.9653C17.6987 27.3618 18.9582 26.9093 20.2187 26.608C21.4782 26.3058 22.7387 26.1547 24 26.1547C25.2613 26.1547 26.5222 26.3058 27.7827 26.608C29.0431 26.9102 30.3018 27.3627 31.5587 27.9653C32.1009 28.2302 32.532 28.6027 32.852 29.0827C33.1729 29.5618 33.3333 30.0764 33.3333 30.6267V32.8213H14.6667ZM16 31.488H32V30.6267C32 30.3315 31.9044 30.0538 31.7133 29.7933C31.5231 29.5338 31.2596 29.3142 30.9227 29.1347C29.8258 28.6031 28.6942 28.196 27.528 27.9133C26.3618 27.6307 25.1858 27.4889 24 27.488C22.8142 27.4871 21.6382 27.6284 20.472 27.912C19.3058 28.1955 18.1742 28.6027 17.0773 29.1333C16.7396 29.3129 16.476 29.5324 16.2867 29.792C16.0956 30.0524 16 30.3307 16 30.6267V31.488ZM24 21.848C24.7333 21.848 25.3613 21.5867 25.884 21.064C26.4067 20.5413 26.6676 19.9129 26.6667 19.1787C26.6658 18.4444 26.4049 17.8169 25.884 17.296C25.3631 16.7751 24.7351 16.5138 24 16.512C23.2649 16.5102 22.6373 16.7715 22.1173 17.296C21.5973 17.8204 21.336 18.448 21.3333 19.1787C21.3307 19.9093 21.592 20.5373 22.1173 21.0627C22.6427 21.588 23.2702 21.8489 24 21.8453" fill="black"/>
</svg>
