<svg width="32" height="32" viewBox="0 0 32 32" fill="none" xmlns="http://www.w3.org/2000/svg">
<circle cx="16" cy="16" r="16" fill="#FFDCCC"/>
<path d="M22.2812 9.28906H9.71875C8.77103 9.28906 8 10.0601 8 11.0078V19.5848C8 20.5325 8.77103 21.3036 9.71875 21.3036H14.6758L15.63 22.5301C15.7188 22.6443 15.8553 22.711 16 22.711C16.1446 22.711 16.2812 22.6443 16.3699 22.5301L17.3241 21.3036H22.2812C23.229 21.3036 24 20.5325 24 19.5848V11.0078C24 10.0601 23.229 9.28906 22.2812 9.28906ZM23.0625 19.5848C23.0625 20.0156 22.712 20.3661 22.2812 20.3661H17.0949C16.9503 20.3661 16.8137 20.4328 16.7249 20.547L16 21.4789L15.275 20.547C15.1862 20.4328 15.0497 20.3661 14.905 20.3661H9.71875C9.28797 20.3661 8.9375 20.0156 8.9375 19.5848V11.0078C8.9375 10.577 9.28797 10.2266 9.71875 10.2266H22.2812C22.712 10.2266 23.0625 10.577 23.0625 11.0078V19.5848Z" fill="#FF4F00"/>
<path d="M16.0001 11.209C13.7322 11.209 11.8872 13.054 11.8872 15.3219C11.8872 17.5897 13.7322 19.4348 16.0001 19.4348C18.268 19.4348 20.113 17.5897 20.113 15.3219C20.113 13.054 18.268 11.209 16.0001 11.209ZM16.0001 18.4973C14.2492 18.4973 12.8247 17.0728 12.8247 15.3219C12.8247 13.571 14.2492 12.1465 16.0001 12.1465C17.751 12.1465 19.1755 13.571 19.1755 15.3219C19.1755 17.0728 17.751 18.4973 16.0001 18.4973Z" fill="#FF4F00"/>
<path d="M15.5406 13.71C15.5965 14.0304 15.9941 14.1952 16.2603 14.0081C16.5875 13.7949 16.511 13.2796 16.1363 13.17C15.8064 13.063 15.4661 13.3712 15.5406 13.71Z" fill="#FF4F00"/>
<path d="M16 14.6973C15.7411 14.6973 15.5312 14.9071 15.5312 15.166V17.0238C15.5312 17.2827 15.7411 17.4925 16 17.4925C16.2589 17.4925 16.4688 17.2827 16.4688 17.0238V15.166C16.4688 14.9071 16.2589 14.6973 16 14.6973Z" fill="#FF4F00"/>
</svg>
