<svg width="25" height="24" viewBox="0 0 25 24" fill="none" xmlns="http://www.w3.org/2000/svg">
<path d="M14.8325 9.46992L9.66709 14.5299C9.00355 13.8799 8.59521 12.9899 8.59521 11.9999C8.59521 10.0199 10.2285 8.41992 12.2498 8.41992C13.2604 8.41992 14.169 8.81992 14.8325 9.46992Z" stroke="#8C8C8C" stroke-width="1.5" stroke-linecap="round" stroke-linejoin="round"/>
<path d="M18.1913 5.77047C16.4049 4.45047 14.3632 3.73047 12.2501 3.73047C8.64654 3.73047 5.288 5.81047 2.95029 9.41047C2.03154 10.8205 2.03154 13.1905 2.95029 14.6005C3.75675 15.8405 4.69592 16.9105 5.71675 17.7705" stroke="#8C8C8C" stroke-width="1.5" stroke-linecap="round" stroke-linejoin="round"/>
<path d="M8.5957 19.5297C9.75945 20.0097 10.9947 20.2697 12.2503 20.2697C15.8538 20.2697 19.2124 18.1897 21.5501 14.5897C22.4688 13.1797 22.4688 10.8097 21.5501 9.39969C21.2132 8.87969 20.8457 8.38969 20.468 7.92969" stroke="#8C8C8C" stroke-width="1.5" stroke-linecap="round" stroke-linejoin="round"/>
<path d="M15.8329 12.6992C15.5674 14.1092 14.3935 15.2592 12.9541 15.5192" stroke="#8C8C8C" stroke-width="1.5" stroke-linecap="round" stroke-linejoin="round"/>
<path d="M9.66713 14.5312L2.0415 22.0013" stroke="#8C8C8C" stroke-width="1.5" stroke-linecap="round" stroke-linejoin="round"/>
<path d="M22.4581 2L14.8325 9.47" stroke="#8C8C8C" stroke-width="1.5" stroke-linecap="round" stroke-linejoin="round"/>
</svg>
