<svg width="32" height="32" viewBox="0 0 32 32" fill="none" xmlns="http://www.w3.org/2000/svg">
<circle cx="16" cy="16" r="16" fill="#FFDCCC"/>
<g clip-path="url(#clip0_324_1267)">
<path d="M19.6111 17.2927C19.335 17.2927 19.1111 17.5166 19.1111 17.7927V19.7445C19.1111 20.1215 18.8045 20.4281 18.4275 20.4281H15.8057V12.6173C15.8057 11.9996 15.4988 11.4682 14.9638 11.1593L11.2239 9H18.4275C18.8045 9 19.1111 9.30666 19.1111 9.68362V11.9099C19.1111 12.1861 19.335 12.4099 19.6111 12.4099C19.8873 12.4099 20.1111 12.1861 20.1111 11.9099V9.68362C20.1111 8.75528 19.3558 8 18.4275 8H10.5415C9.61319 8 8.85791 8.75528 8.85791 9.68362V20.2448C8.85791 20.8625 9.16472 21.3939 9.69972 21.7028L13.2802 23.77C13.5478 23.9244 13.8349 24.0017 14.122 24.0017C14.4092 24.0016 14.6964 23.9244 14.9638 23.77C15.4988 23.4612 15.8056 22.9297 15.8056 22.312V21.4281H18.4275C19.3558 21.4281 20.1111 20.6728 20.1111 19.7445V17.7927C20.1111 17.5166 19.8873 17.2927 19.6111 17.2927ZM14.8057 22.312C14.8057 22.5665 14.6843 22.7767 14.4638 22.904C14.2434 23.0312 14.0007 23.0312 13.7803 22.904L10.1997 20.8368C9.97929 20.7096 9.85791 20.4993 9.85791 20.2448V9.68362C9.85791 9.583 9.87975 9.48738 9.91897 9.40128L14.4638 12.0253C14.6843 12.1525 14.8057 12.3628 14.8057 12.6173V22.312ZM22.9958 15.0676L21.3711 16.6924C21.2734 16.79 21.1455 16.8388 21.0175 16.8388C20.8896 16.8388 20.7616 16.79 20.664 16.6924C20.4687 16.4971 20.4687 16.1805 20.664 15.9853L21.4352 15.2141H16.8415C16.5653 15.2141 16.3415 14.9902 16.3415 14.7141C16.3415 14.4379 16.5653 14.2141 16.8415 14.2141H21.4352L20.664 13.4428C20.4687 13.2476 20.4687 12.931 20.664 12.7358C20.8593 12.5405 21.1758 12.5405 21.3711 12.7358L22.9958 14.3605C23.1911 14.5558 23.1911 14.8724 22.9958 15.0676Z" fill="#FF4F00"/>
</g>
<defs>
<clipPath id="clip0_324_1267">
<rect width="16" height="16" fill="white" transform="translate(8 8)"/>
</clipPath>
</defs>
</svg>
