<svg width="63" height="62" viewBox="0 0 63 62" fill="none" xmlns="http://www.w3.org/2000/svg">
    <rect x=".5" width="62" height="62" rx="31" fill="#FF4F00"/>
    <g clip-path="url(#m1ceecnwca)">
        <path d="M39.222 33.585a1 1 0 0 0-1 1v3.904c0 .754-.613 1.367-1.367 1.367h-5.244V24.235a3.29 3.29 0 0 0-1.683-2.916L22.448 17h14.407c.754 0 1.367.613 1.367 1.367v4.453a1 1 0 1 0 2 0v-4.453A3.371 3.371 0 0 0 36.855 15H21.083a3.371 3.371 0 0 0-3.367 3.367V39.49a3.29 3.29 0 0 0 1.683 2.917l7.161 4.134c.536.309 1.11.463 1.684.463.574 0 1.149-.154 1.684-.463a3.29 3.29 0 0 0 1.683-2.916v-1.768h5.244a3.371 3.371 0 0 0 3.367-3.367v-3.904a1 1 0 0 0-1-1zm-9.61 10.039c0 .509-.243.93-.684 1.184a1.32 1.32 0 0 1-1.367 0l-7.162-4.134a1.32 1.32 0 0 1-.683-1.184V18.366c0-.201.043-.392.122-.564l9.09 5.248c.44.254.683.675.683 1.184v19.389zm16.38-14.489-3.25 3.25a.997.997 0 0 1-1.414 0 1 1 0 0 1 0-1.414l1.542-1.543h-9.187a1 1 0 0 1 0-2h9.187l-1.542-1.542a1 1 0 1 1 1.414-1.415l3.25 3.25a1 1 0 0 1 0 1.414z" fill="#fff"/>
    </g>
    <defs>
        <clipPath id="m1ceecnwca">
            <path fill="#fff" transform="translate(16 15)" d="M0 0h32v32H0z"/>
        </clipPath>
    </defs>
</svg>
