<svg width="25" height="24" viewBox="0 0 25 24" fill="none" xmlns="http://www.w3.org/2000/svg">
<path d="M12.2498 15.5C14.5059 15.5 16.3332 13.71 16.3332 11.5V6C16.3332 3.79 14.5059 2 12.2498 2C9.9938 2 8.1665 3.79 8.1665 6V11.5C8.1665 13.71 9.9938 15.5 12.2498 15.5Z" stroke="#8C8C8C" stroke-width="1.5" stroke-linecap="round" stroke-linejoin="round"/>
<path d="M4.44092 9.65039V11.3504C4.44092 15.5704 7.94238 19.0004 12.2503 19.0004C16.5582 19.0004 20.0597 15.5704 20.0597 11.3504V9.65039" stroke="#8C8C8C" stroke-width="1.5" stroke-linecap="round" stroke-linejoin="round"/>
<path d="M10.8311 6.42914C11.7498 6.09914 12.7502 6.09914 13.669 6.42914" stroke="#8C8C8C" stroke-width="1.5" stroke-linecap="round" stroke-linejoin="round"/>
<path d="M11.4336 8.55031C11.9746 8.41031 12.5361 8.41031 13.0771 8.55031" stroke="#8C8C8C" stroke-width="1.5" stroke-linecap="round" stroke-linejoin="round"/>
<path d="M12.25 19V22" stroke="#8C8C8C" stroke-width="1.5" stroke-linecap="round" stroke-linejoin="round"/>
</svg>
