<svg width="48" height="48" viewBox="0 0 48 48" fill="none" xmlns="http://www.w3.org/2000/svg">
<circle cx="24" cy="24" r="24" fill="white"/>
<g clip-path="url(#clip0_334_198)">
<mask id="mask0_334_198" style="mask-type:luminance" maskUnits="userSpaceOnUse" x="8" y="8" width="32" height="32">
<path d="M8 8H40V40H8V8Z" fill="white"/>
</mask>
<g mask="url(#mask0_334_198)">
<path d="M17.5 26.818C18.5624 26.3888 18.9792 24.9653 18.4319 23.6391C17.8846 22.3128 16.5799 21.5835 15.5175 22.0128C14.4551 22.442 14.0383 23.8655 14.5856 25.1917C15.1329 26.5196 16.4376 27.2472 17.5 26.818ZM21.4264 21.1839C22.5294 20.8686 23.0971 19.4971 22.6955 18.1206C22.2939 16.7441 21.074 15.8823 19.9725 16.1975C18.8711 16.5127 18.3018 17.8842 18.7034 19.2608C19.105 20.6372 20.3233 21.499 21.4264 21.1839ZM32.4459 22.2471C31.3835 21.8179 30.0788 22.5456 29.5315 23.8735C28.9842 25.2014 29.401 26.6248 30.4634 27.0524C31.5258 27.4799 32.8305 26.754 33.3779 25.426C33.9252 24.0981 33.5084 22.6763 32.4459 22.2471ZM26.8123 21.1839C27.9153 21.499 29.1337 20.6372 29.5352 19.2591C29.9368 17.8825 29.3692 16.511 28.2661 16.1958C27.163 15.8806 25.9447 16.7424 25.5431 18.1206C25.1416 19.4971 25.7092 20.8686 26.8123 21.1839ZM29.117 29.7977C29.5254 31.6521 27.4904 32.0545 26.594 31.813C25.6977 31.5716 23.8694 31.5313 23.8694 31.5313C23.8694 31.5313 22.036 31.5716 21.1396 31.813C20.2433 32.0561 18.2066 31.6521 18.6132 29.7977C19.0199 27.9433 20.8126 28.0238 21.304 25.524C21.7937 23.0241 23.8711 23.185 23.8711 23.185C23.8711 23.185 25.9433 23.0241 26.4331 25.524C26.921 28.0238 28.7104 27.9433 29.117 29.7977Z" stroke="#191919" stroke-width="1.5" stroke-miterlimit="10"/>
<path d="M39.0444 24.0039C39.0444 32.3227 32.3007 39.0664 23.9819 39.0664C15.6631 39.0664 8.91943 32.3227 8.91943 24.0039C8.91943 15.6851 15.6631 8.94141 23.9819 8.94141C32.3007 8.94141 39.0444 15.6851 39.0444 24.0039Z" stroke="#191919" stroke-width="1.5" stroke-miterlimit="10"/>
</g>
</g>
<defs>
<clipPath id="clip0_334_198">
<rect width="32" height="32" fill="white" transform="translate(8 8)"/>
</clipPath>
</defs>
</svg>
