<svg width="48" height="48" viewBox="0 0 48 48" fill="none" xmlns="http://www.w3.org/2000/svg">
<g clip-path="url(#clip0_321_1157)">
<mask id="mask0_321_1157" style="mask-type:luminance" maskUnits="userSpaceOnUse" x="0" y="0" width="48" height="48">
<path d="M0 3.8147e-06H48V48H0V3.8147e-06Z" fill="white"/>
</mask>
<g mask="url(#mask0_321_1157)">
<path d="M14.25 28.226C15.8436 27.5822 16.4688 25.4469 15.6479 23.4576C14.8269 21.4683 12.8699 20.3743 11.2762 21.0182C9.68265 21.662 9.05743 23.7972 9.8784 25.7866C10.6993 27.7784 12.6564 28.8698 14.25 28.226ZM20.1395 19.7749C21.7941 19.302 22.6457 17.2447 22.0432 15.18C21.4409 13.1151 19.611 11.8224 17.9588 12.2953C16.3067 12.7681 15.4527 14.8253 16.0551 16.8902C16.6575 18.9548 18.4849 20.2475 20.1395 19.7749ZM36.6689 21.3697C35.0753 20.7259 33.1182 21.8174 32.2972 23.8092C31.4762 25.8011 32.1016 27.9363 33.6951 28.5776C35.2887 29.2189 37.2458 28.13 38.0668 26.138C38.8877 24.1461 38.2625 22.0135 36.6689 21.3697ZM28.2184 19.7749C29.873 20.2475 31.7005 18.9548 32.3028 16.8876C32.9052 14.8228 32.0537 12.7655 30.3991 12.2928C28.7445 11.8199 26.9171 13.1126 26.3147 15.18C25.7124 17.2447 26.5638 19.302 28.2184 19.7749ZM31.6756 32.6956C32.288 35.4772 29.2356 36.0807 27.8911 35.7185C26.5465 35.3564 23.804 35.296 23.804 35.296C23.804 35.296 21.054 35.3565 19.7094 35.7185C18.3649 36.0832 15.3099 35.4771 15.9198 32.6956C16.5298 29.914 19.2189 30.0348 19.956 26.285C20.6905 22.5351 23.8067 22.7765 23.8067 22.7765C23.8067 22.7765 26.915 22.5351 27.6496 26.285C28.3816 30.0348 31.0655 29.914 31.6756 32.6956Z" stroke="#191919" stroke-width="2" stroke-miterlimit="10"/>
<path d="M46.5664 24.0039C46.5664 36.4821 36.4509 46.5977 23.9727 46.5977C11.4944 46.5977 1.37891 36.4821 1.37891 24.0039C1.37891 11.5257 11.4944 1.41016 23.9727 1.41016C36.4509 1.41016 46.5664 11.5257 46.5664 24.0039Z" stroke="#191919" stroke-width="2" stroke-miterlimit="10"/>
</g>
</g>
<defs>
<clipPath id="clip0_321_1157">
<rect width="48" height="48" fill="white"/>
</clipPath>
</defs>
</svg>
