<svg width="32" height="32" viewBox="0 0 32 32" fill="none" xmlns="http://www.w3.org/2000/svg">
<circle cx="16" cy="16" r="16" fill="#FFDCCC"/>
<g clip-path="url(#clip0_324_1246)">
<path d="M20.8438 16.2144V14.7188C20.8438 12.5368 19.3934 10.6875 17.4063 10.0834V9.40625C17.4063 8.63084 16.7754 8 16 8C15.2246 8 14.5938 8.63084 14.5938 9.40625V10.0834C12.6066 10.6875 11.1563 12.5368 11.1563 14.7188V16.2144C11.1563 18.1311 10.4257 19.9484 9.09919 21.3318C8.96919 21.4674 8.93266 21.6674 9.00635 21.8402C9.08004 22.0129 9.24972 22.125 9.43754 22.125H13.7034C13.9212 23.1935 14.8682 24 16 24C17.1319 24 18.0788 23.1935 18.2966 22.125H22.5625C22.7503 22.125 22.92 22.0129 22.9937 21.8402C23.0674 21.6674 23.0308 21.4674 22.9009 21.3318C21.5743 19.9484 20.8438 18.131 20.8438 16.2144ZM15.5313 9.40625C15.5313 9.14778 15.7416 8.9375 16 8.9375C16.2585 8.9375 16.4688 9.14778 16.4688 9.40625V9.89775C16.3145 9.88287 16.1582 9.875 16 9.875C15.8419 9.875 15.6856 9.88287 15.5313 9.89775V9.40625ZM16 23.0625C15.3889 23.0625 14.8679 22.6706 14.6744 22.125H17.3257C17.1322 22.6706 16.6111 23.0625 16 23.0625ZM10.4478 21.1875C11.5154 19.7565 12.0938 18.0247 12.0938 16.2144V14.7188C12.0938 12.5648 13.8461 10.8125 16 10.8125C18.1539 10.8125 19.9063 12.5648 19.9063 14.7188V16.2144C19.9063 18.0247 20.4847 19.7565 21.5523 21.1875H10.4478Z" fill="#FF4F00"/>
<path d="M22.094 14.7185C22.094 14.9774 22.3039 15.1873 22.5627 15.1873C22.8216 15.1873 23.0315 14.9774 23.0315 14.7185C23.0315 12.8404 22.3001 11.0747 20.9721 9.74666C20.789 9.56363 20.4922 9.5636 20.3092 9.74666C20.1261 9.92972 20.1261 10.2265 20.3092 10.4096C21.4601 11.5605 22.094 13.0908 22.094 14.7185Z" fill="#FF4F00"/>
<path d="M9.4375 15.1873C9.69638 15.1873 9.90625 14.9774 9.90625 14.7185C9.90625 13.0908 10.5401 11.5605 11.6911 10.4096C11.8741 10.2265 11.8741 9.92973 11.6911 9.74667C11.508 9.56361 11.2112 9.56361 11.0282 9.74667C9.70012 11.0747 8.96875 12.8404 8.96875 14.7185C8.96875 14.9774 9.17862 15.1873 9.4375 15.1873Z" fill="#FF4F00"/>
</g>
<defs>
<clipPath id="clip0_324_1246">
<rect width="16" height="16" fill="white" transform="translate(8 8)"/>
</clipPath>
</defs>
</svg>
