<svg width="375" height="375" viewBox="0 0 375 375" fill="none" xmlns="http://www.w3.org/2000/svg">
<path d="M48.5175 241.403C48.5175 241.403 69.9375 289.688 123.705 305.251C177.472 320.813 234.607 299.423 281.34 283.336C328.072 267.248 352.477 226.576 341.835 185.086C331.192 143.596 291.765 146.783 254.835 110.086C217.905 73.3882 213.585 58.0057 162.585 47.3707C111.585 36.7357 55.935 79.9207 42.2925 140.768C28.65 201.616 48.5175 241.403 48.5175 241.403Z" fill="#FF4F00"/>
<path opacity="0.7" d="M48.5175 241.403C48.5175 241.403 69.9375 289.688 123.705 305.251C177.472 320.813 234.607 299.423 281.34 283.336C328.072 267.248 352.477 226.576 341.835 185.086C331.192 143.596 291.765 146.783 254.835 110.086C217.905 73.3882 213.585 58.0057 162.585 47.3707C111.585 36.7357 55.935 79.9207 42.2925 140.768C28.65 201.616 48.5175 241.403 48.5175 241.403Z" fill="white"/>
<path d="M153.75 183.855C153.75 183.855 172.155 185.67 181.5 197.085C181.5 197.085 191.362 183.863 209.062 184.14C213.389 178.921 216.144 172.581 217.006 165.857C217.869 159.132 216.804 152.302 213.934 146.16C211.065 140.018 206.51 134.817 200.8 131.163C195.09 127.509 188.459 125.553 181.68 125.522C174.901 125.491 168.252 127.386 162.508 130.987C156.764 134.588 152.162 139.746 149.236 145.861C146.31 151.977 145.182 158.797 145.983 165.529C146.783 172.261 149.479 178.627 153.757 183.885L153.75 183.855Z" fill="#FF4F00"/>
<path opacity="0.5" d="M153.75 183.855C153.75 183.855 172.155 185.67 181.5 197.085C181.5 197.085 191.362 183.863 209.062 184.14C213.389 178.921 216.144 172.581 217.006 165.857C217.869 159.132 216.804 152.302 213.934 146.16C211.065 140.018 206.51 134.817 200.8 131.163C195.09 127.509 188.459 125.553 181.68 125.522C174.901 125.491 168.252 127.386 162.508 130.987C156.764 134.588 152.162 139.746 149.236 145.861C146.31 151.977 145.182 158.797 145.983 165.529C146.783 172.261 149.479 178.627 153.757 183.885L153.75 183.855Z" fill="white"/>
<path d="M180.877 128.047L180.255 314.804H183.367L180.877 128.047Z" fill="#828282"/>
<path d="M181.808 193.604C181.808 193.604 188.025 182.422 199.207 179.002C199.207 179.002 187.403 181.799 181.5 191.429L181.808 193.604Z" fill="#828282"/>
<path d="M181.132 162.217C181.132 162.217 188.025 150.727 199.207 147.314C199.207 147.314 187.035 150.817 181.132 160.447V162.217Z" fill="#828282"/>
<path d="M181.373 178.559C181.373 178.559 188.025 166.559 199.208 163.154C199.208 163.154 187.118 166.507 181.208 176.144L181.373 178.559Z" fill="#828282"/>
<path d="M180.892 169.995C180.892 169.995 174.892 158.805 164.1 155.393C164.1 155.393 175.492 158.19 181.192 167.82L180.892 169.995Z" fill="#828282"/>
<path d="M180.892 185.526C180.892 185.526 174.892 174.344 164.1 170.924C164.1 170.924 175.492 173.721 181.192 183.351L180.892 185.526Z" fill="#828282"/>
<path d="M54.8625 156.622C54.8625 156.622 87.015 159.802 103.305 179.737C103.305 179.737 120.555 156.645 151.44 157.117C158.995 148.002 163.806 136.929 165.312 125.186C166.817 113.443 164.956 101.514 159.945 90.7881C154.934 80.0619 146.979 70.9799 137.007 64.5995C127.034 58.2191 115.454 54.8029 103.615 54.7487C91.7766 54.6945 80.1659 58.0044 70.1352 64.2931C60.1046 70.5819 52.0668 79.5906 46.9576 90.2704C41.8485 100.95 39.8783 112.862 41.2764 124.618C42.6746 136.374 47.3835 147.491 54.855 156.675L54.8625 156.622Z" fill="#FF4F00"/>
<path opacity="0.3" d="M54.8625 156.622C54.8625 156.622 87.015 159.802 103.305 179.737C103.305 179.737 120.555 156.645 151.44 157.117C158.995 148.002 163.806 136.929 165.312 125.186C166.817 113.443 164.956 101.514 159.945 90.7881C154.934 80.0619 146.979 70.9799 137.007 64.5995C127.034 58.2191 115.454 54.8029 103.615 54.7487C91.7766 54.6945 80.1659 58.0044 70.1352 64.2931C60.1046 70.5819 52.0668 79.5906 46.9576 90.2704C41.8485 100.95 39.8783 112.862 41.2764 124.618C42.6746 136.374 47.3835 147.491 54.855 156.675L54.8625 156.622Z" fill="white"/>
<path d="M102.24 59.168L101.16 314.805H106.582L102.24 59.168Z" fill="#828282"/>
<path d="M103.875 173.662C103.875 173.662 114.75 154.124 134.25 148.154C134.25 148.154 113.633 153.037 103.32 169.859L103.875 173.662Z" fill="#263238"/>
<path d="M103.057 119.4C103.057 119.4 114.75 98.7747 134.25 92.8047C134.25 92.8047 113.437 98.4672 103.132 115.305L103.057 119.4Z" fill="#828282"/>
<path d="M103.38 146.685C103.38 146.685 114.75 126.45 134.25 120.48C134.25 120.48 113.633 125.363 103.32 142.185L103.38 146.685Z" fill="#828282"/>
<path d="M102.263 132.42C102.263 132.42 91.7626 112.882 72.9451 106.92C72.9451 106.92 92.8351 111.802 102.788 128.625L102.263 132.42Z" fill="#828282"/>
<path d="M102.263 159.555C102.263 159.555 91.7626 140.017 72.9451 134.055C72.9451 134.055 92.8351 138.937 102.788 155.76L102.263 159.555Z" fill="#828282"/>
<path d="M290.145 211.568C290.108 211.568 290.603 209.131 290.648 208.981C291.218 207.233 293.333 204.203 295.38 204.203C295.728 204.208 296.07 204.287 296.384 204.435C296.699 204.583 296.978 204.797 297.202 205.062C297.427 205.327 297.592 205.638 297.686 205.972C297.781 206.306 297.803 206.657 297.75 207.001C297.608 208.441 296.31 209.671 295.14 210.376C293.73 211.171 290.153 211.568 290.145 211.568Z" fill="#FF4F00"/>
<path d="M286.178 195.135C288.105 195.833 289.065 199.403 289.005 201.233C289.005 201.39 288.638 203.858 288.6 203.843H288.563C288.72 204.405 288.878 205.013 289.043 205.673C289.328 206.903 289.65 208.298 289.89 209.835C290.167 211.491 290.35 213.161 290.438 214.838C290.539 216.715 290.473 218.597 290.243 220.463C290.243 220.463 290.243 220.508 290.243 220.53C290.49 219.983 291.255 218.483 291.323 218.378C292.328 216.84 295.17 214.478 297.15 215.018C297.474 215.12 297.773 215.289 298.027 215.514C298.282 215.739 298.486 216.015 298.627 216.324C298.769 216.632 298.844 216.967 298.848 217.307C298.852 217.647 298.784 217.983 298.65 218.295C298.133 219.645 296.558 220.493 295.245 220.86C293.745 221.288 290.453 220.785 290.19 220.748C289.905 222.64 289.497 224.511 288.968 226.35C288.668 227.423 288.33 228.495 287.97 229.56C288.21 229.095 288.42 228.683 288.458 228.63C289.463 227.13 292.305 224.73 294.278 225.278C294.602 225.378 294.901 225.546 295.156 225.77C295.411 225.994 295.616 226.269 295.758 226.578C295.9 226.886 295.974 227.221 295.978 227.561C295.981 227.9 295.913 228.236 295.778 228.548C295.253 229.898 293.685 230.745 292.365 231.12C291.045 231.495 288.203 231.12 287.46 231.023C287.318 231.428 287.183 231.84 287.04 232.245C286.365 234.21 285.675 236.16 285.068 238.095C284.85 238.778 284.663 239.46 284.468 240.135C284.678 239.723 284.858 239.385 284.888 239.333C285.893 237.795 288.735 235.433 290.715 235.973C291.039 236.075 291.338 236.244 291.592 236.469C291.847 236.694 292.051 236.97 292.192 237.279C292.334 237.587 292.409 237.922 292.413 238.262C292.417 238.602 292.349 238.938 292.215 239.25C291.69 240.6 290.115 241.44 288.803 241.815C287.49 242.19 284.918 241.86 284.025 241.74C283.853 242.445 283.673 243.143 283.538 243.833C283.455 244.305 283.343 244.755 283.283 245.228C283.223 245.7 283.155 246.173 283.088 246.63C282.998 247.53 282.893 248.453 282.825 249.33C282.773 249.938 282.735 250.523 282.698 251.108C282.9 250.425 283.335 249.098 283.388 248.993C284.111 247.555 285.19 246.326 286.523 245.423C286.598 245.257 286.688 245.099 286.793 244.95C286.979 244.665 287.223 244.422 287.509 244.237C287.795 244.053 288.117 243.93 288.454 243.878C288.791 243.825 289.134 243.844 289.463 243.934C289.792 244.023 290.098 244.18 290.363 244.395C291.915 245.738 291.525 249.413 290.813 251.1C290.768 251.205 290.19 252.233 289.815 252.87C290.093 252.525 290.355 252.188 290.648 251.843C291.218 251.145 291.81 250.463 292.44 249.728L293.4 248.685C293.715 248.333 294.09 248.003 294.435 247.65C295.26 246.855 296.13 246.09 297.023 245.34C296.415 244.845 294.27 243.038 293.655 241.808C293.04 240.578 292.605 238.853 293.243 237.555C293.383 237.245 293.587 236.967 293.842 236.741C294.096 236.515 294.396 236.345 294.721 236.242C295.046 236.139 295.388 236.107 295.727 236.145C296.065 236.184 296.392 236.294 296.685 236.468C298.425 237.555 298.598 241.253 298.185 243.023C298.185 243.135 297.69 244.373 297.435 245.048C297.975 244.598 298.515 244.155 299.078 243.72C300.698 242.468 302.378 241.245 304.05 240.023C304.56 239.648 305.07 239.273 305.55 238.89C305.333 238.718 302.745 236.64 302.055 235.245C301.44 234.023 300.998 232.298 301.643 231C301.782 230.689 301.986 230.411 302.24 230.184C302.494 229.957 302.794 229.786 303.119 229.683C303.444 229.579 303.787 229.546 304.126 229.584C304.465 229.622 304.791 229.732 305.085 229.905C306.825 230.993 306.998 234.69 306.548 236.468C306.51 236.603 305.835 238.38 305.648 238.823C306.765 237.99 307.898 237.15 308.925 236.28C310.359 235.121 311.715 233.869 312.983 232.53C312.885 232.455 310.17 230.28 309.465 228.87C308.85 227.648 308.408 225.915 309.053 224.618C309.193 224.307 309.397 224.03 309.652 223.804C309.906 223.577 310.206 223.407 310.531 223.305C310.856 223.202 311.198 223.169 311.537 223.208C311.875 223.247 312.202 223.357 312.495 223.53C314.235 224.618 314.408 228.315 313.958 230.085C313.958 230.205 313.41 231.585 313.155 232.2L313.253 232.26C314.498 230.865 315.613 229.359 316.583 227.76C317.13 226.898 317.61 226.035 318.083 225.188C317.535 224.835 315.083 223.193 314.273 222C313.463 220.808 312.908 219.18 313.403 217.815C313.508 217.492 313.681 217.194 313.909 216.942C314.138 216.69 314.416 216.488 314.727 216.35C315.038 216.212 315.375 216.141 315.715 216.142C316.055 216.142 316.392 216.214 316.703 216.353C318.548 217.245 319.125 220.905 318.878 222.713C318.878 222.818 318.608 223.8 318.42 224.52C318.615 224.138 318.818 223.77 318.998 223.365C319.673 221.97 320.205 220.65 320.67 219.48C320.925 218.805 321.143 218.198 321.345 217.628C320.985 216.998 319.583 214.455 319.448 213.06C319.313 211.665 319.53 209.925 320.595 208.95C320.838 208.711 321.129 208.526 321.448 208.407C321.768 208.288 322.109 208.238 322.449 208.259C322.789 208.28 323.121 208.373 323.423 208.53C323.725 208.688 323.991 208.908 324.203 209.175C325.433 210.818 324.263 214.32 323.198 215.82C323.108 215.948 321.443 217.8 321.428 217.77V217.733C321.248 218.288 321.045 218.88 320.813 219.525C320.378 220.71 319.875 222.045 319.223 223.463C318.547 225.008 317.778 226.511 316.92 227.963C315.971 229.587 314.879 231.123 313.658 232.553L313.613 232.598C314.123 232.283 315.585 231.45 315.705 231.398C317.385 230.648 321.068 230.273 322.41 231.818C322.628 232.08 322.787 232.385 322.879 232.713C322.97 233.041 322.992 233.385 322.941 233.722C322.891 234.059 322.771 234.381 322.587 234.668C322.404 234.955 322.162 235.201 321.878 235.388C320.693 236.228 318.915 236.063 317.618 235.643C316.118 235.178 313.658 232.935 313.463 232.763C312.18 234.183 310.808 235.518 309.353 236.76C308.513 237.51 307.635 238.193 306.75 238.89C307.208 238.635 307.613 238.403 307.673 238.38C309.353 237.63 313.028 237.248 314.378 238.793C314.595 239.056 314.754 239.362 314.845 239.691C314.936 240.02 314.957 240.365 314.906 240.702C314.855 241.04 314.734 241.363 314.55 241.65C314.365 241.937 314.123 242.183 313.838 242.37C312.66 243.203 310.883 243.038 309.578 242.625C308.273 242.213 306.098 240.338 305.535 239.835L304.5 240.578C302.858 241.838 301.208 243.09 299.633 244.365C299.078 244.815 298.545 245.28 298.013 245.738C298.41 245.513 298.763 245.318 298.808 245.295C300.488 244.545 304.163 244.17 305.513 245.715C305.73 245.978 305.889 246.283 305.98 246.612C306.071 246.94 306.092 247.284 306.041 247.621C305.99 247.958 305.868 248.28 305.684 248.567C305.5 248.854 305.258 249.099 304.973 249.285C303.795 250.125 302.018 249.96 300.713 249.54C299.408 249.12 297.443 247.44 296.775 246.84C296.243 247.335 295.703 247.823 295.215 248.34C294.885 248.693 294.54 249 294.233 249.368L293.25 250.41C292.68 251.108 292.088 251.82 291.548 252.51C291.165 252.99 290.798 253.455 290.46 253.92C291.008 253.47 292.103 252.6 292.2 252.54C293.753 251.573 297.323 250.613 298.89 251.933C299.144 252.161 299.346 252.439 299.485 252.751C299.624 253.062 299.696 253.399 299.696 253.74C299.696 254.081 299.624 254.418 299.485 254.73C299.346 255.041 299.144 255.32 298.89 255.548C297.848 256.553 296.063 256.658 294.713 256.448C293.213 256.215 290.535 254.46 290.213 254.243C289.628 254.993 289.058 255.743 288.54 256.493C286.725 258.998 285.308 261.15 284.34 262.673C284.31 262.727 284.278 262.78 284.243 262.83L282.99 262.215L283.185 261.923C284.198 260.423 285.675 258.255 287.558 255.765C288.158 255.015 288.803 254.145 289.478 253.305C288.785 252.538 288.136 251.731 287.535 250.89C286.095 251.453 283.095 251.475 282.705 251.475C282.638 252.45 282.585 253.395 282.555 254.28C282.42 257.37 282.435 259.95 282.465 261.78V261.998L281.085 261.323C281.085 259.538 281.16 257.115 281.34 254.25C281.4 253.268 281.483 252.21 281.58 251.138C281.198 251.04 278.078 250.238 276.9 249.293C275.723 248.348 274.703 247.043 274.748 245.61C274.745 245.27 274.814 244.932 274.95 244.62C275.087 244.308 275.287 244.028 275.539 243.799C275.791 243.569 276.089 243.396 276.413 243.289C276.736 243.183 277.079 243.145 277.418 243.18C279.45 243.435 281.168 246.72 281.49 248.52C281.49 248.625 281.595 249.803 281.64 250.545C281.64 250.11 281.715 249.675 281.76 249.225C281.85 248.333 281.97 247.44 282.09 246.48C282.165 246.015 282.24 245.55 282.323 245.078C282.405 244.605 282.518 244.125 282.608 243.638C282.855 242.528 283.163 241.388 283.493 240.293C282.705 240.21 279.923 239.88 278.738 239.198C277.553 238.515 276.225 237.315 276.045 235.883C275.991 235.548 276.008 235.205 276.094 234.877C276.18 234.549 276.335 234.243 276.546 233.978C276.758 233.713 277.024 233.495 277.325 233.339C277.626 233.183 277.956 233.091 278.295 233.07C280.343 233.018 282.525 236.003 283.133 237.735C283.17 237.84 283.463 239.13 283.613 239.843C283.815 239.175 284.018 238.5 284.243 237.833C284.91 235.89 285.638 233.948 286.358 232.005C286.575 231.413 286.785 230.82 287.003 230.22C286.725 230.22 283.41 229.875 282.075 229.11C280.89 228.428 279.563 227.228 279.383 225.795C279.329 225.46 279.345 225.118 279.432 224.79C279.518 224.462 279.672 224.155 279.884 223.89C280.096 223.625 280.361 223.408 280.662 223.251C280.963 223.095 281.294 223.004 281.633 222.983C283.68 222.938 285.87 225.923 286.47 227.648C286.515 227.783 286.935 229.635 287.018 230.115C287.49 228.803 287.955 227.49 288.353 226.185C288.901 224.417 289.336 222.616 289.658 220.793C289.523 220.793 286.065 220.463 284.693 219.683C283.508 219 282.188 217.8 282.008 216.36C281.953 216.026 281.97 215.684 282.057 215.356C282.143 215.028 282.297 214.722 282.509 214.458C282.721 214.194 282.987 213.977 283.288 213.821C283.589 213.666 283.919 213.575 284.258 213.555C286.305 213.503 288.488 216.488 289.095 218.22C289.133 218.333 289.455 219.72 289.59 220.418H289.71C289.977 218.576 290.08 216.713 290.018 214.853C290.018 213.825 289.92 212.85 289.823 211.898C289.17 211.898 286.2 211.898 284.888 211.335C283.575 210.773 282.188 209.738 281.888 208.335C281.797 208.007 281.776 207.662 281.827 207.325C281.878 206.988 282 206.665 282.184 206.378C282.367 206.091 282.61 205.845 282.895 205.658C283.18 205.471 283.501 205.345 283.838 205.29C285.87 205.013 288.338 207.743 289.163 209.393C289.2 209.483 289.538 210.45 289.77 211.148C289.725 210.72 289.68 210.278 289.62 209.873C289.418 208.335 289.133 206.94 288.87 205.703C288.713 205.005 288.555 204.375 288.405 203.79C287.768 203.46 285.195 202.118 284.31 201.023C283.425 199.928 282.653 198.368 282.998 196.965C283.065 196.625 283.205 196.302 283.408 196.02C283.611 195.738 283.871 195.502 284.172 195.329C284.473 195.155 284.808 195.049 285.154 195.015C285.5 194.982 285.849 195.023 286.178 195.135Z" fill="#FF4F00"/>
<path d="M323.25 226.755C321.645 226.688 318.443 225.045 318.435 225.045C318.428 225.045 320.16 223.26 320.288 223.163C321.72 222.023 325.155 220.658 326.865 221.79C327.144 221.986 327.379 222.238 327.554 222.53C327.729 222.823 327.84 223.149 327.88 223.487C327.921 223.825 327.889 224.168 327.788 224.494C327.687 224.819 327.518 225.119 327.293 225.375C326.378 226.5 324.623 226.808 323.25 226.755Z" fill="#FF4F00"/>
<g opacity="0.5">
<path d="M290.145 211.568C290.108 211.568 290.603 209.131 290.648 208.981C291.218 207.233 293.333 204.203 295.38 204.203C295.728 204.208 296.07 204.287 296.384 204.435C296.699 204.583 296.978 204.797 297.202 205.062C297.427 205.327 297.592 205.638 297.686 205.972C297.781 206.306 297.803 206.657 297.75 207.001C297.608 208.441 296.31 209.671 295.14 210.376C293.73 211.171 290.153 211.568 290.145 211.568Z" fill="white"/>
<path d="M286.178 195.135C288.105 195.833 289.065 199.403 289.005 201.233C289.005 201.39 288.638 203.858 288.6 203.843H288.563C288.72 204.405 288.878 205.013 289.043 205.673C289.328 206.903 289.65 208.298 289.89 209.835C290.167 211.491 290.35 213.161 290.438 214.838C290.539 216.715 290.473 218.597 290.243 220.463C290.243 220.463 290.243 220.508 290.243 220.53C290.49 219.983 291.255 218.483 291.323 218.378C292.328 216.84 295.17 214.478 297.15 215.018C297.474 215.12 297.773 215.289 298.027 215.514C298.282 215.739 298.486 216.015 298.627 216.324C298.769 216.632 298.844 216.967 298.848 217.307C298.852 217.647 298.784 217.983 298.65 218.295C298.133 219.645 296.558 220.493 295.245 220.86C293.745 221.288 290.453 220.785 290.19 220.748C289.905 222.64 289.497 224.511 288.968 226.35C288.668 227.423 288.33 228.495 287.97 229.56C288.21 229.095 288.42 228.683 288.458 228.63C289.463 227.13 292.305 224.73 294.278 225.278C294.602 225.378 294.901 225.546 295.156 225.77C295.411 225.994 295.616 226.269 295.758 226.578C295.9 226.886 295.974 227.221 295.978 227.561C295.981 227.9 295.913 228.236 295.778 228.548C295.253 229.898 293.685 230.745 292.365 231.12C291.045 231.495 288.203 231.12 287.46 231.023C287.318 231.428 287.183 231.84 287.04 232.245C286.365 234.21 285.675 236.16 285.068 238.095C284.85 238.778 284.663 239.46 284.468 240.135C284.678 239.723 284.858 239.385 284.888 239.333C285.893 237.795 288.735 235.433 290.715 235.973C291.039 236.075 291.338 236.244 291.592 236.469C291.847 236.694 292.051 236.97 292.192 237.279C292.334 237.587 292.409 237.922 292.413 238.262C292.417 238.602 292.349 238.938 292.215 239.25C291.69 240.6 290.115 241.44 288.803 241.815C287.49 242.19 284.918 241.86 284.025 241.74C283.853 242.445 283.673 243.143 283.538 243.833C283.455 244.305 283.343 244.755 283.283 245.228C283.223 245.7 283.155 246.173 283.088 246.63C282.998 247.53 282.893 248.453 282.825 249.33C282.773 249.938 282.735 250.523 282.698 251.108C282.9 250.425 283.335 249.098 283.388 248.993C284.111 247.555 285.19 246.326 286.523 245.423C286.598 245.257 286.688 245.099 286.793 244.95C286.979 244.665 287.223 244.422 287.509 244.237C287.795 244.053 288.117 243.93 288.454 243.878C288.791 243.825 289.134 243.844 289.463 243.934C289.792 244.023 290.098 244.18 290.363 244.395C291.915 245.738 291.525 249.413 290.813 251.1C290.768 251.205 290.19 252.233 289.815 252.87C290.093 252.525 290.355 252.188 290.648 251.843C291.218 251.145 291.81 250.463 292.44 249.728L293.4 248.685C293.715 248.333 294.09 248.003 294.435 247.65C295.26 246.855 296.13 246.09 297.023 245.34C296.415 244.845 294.27 243.038 293.655 241.808C293.04 240.578 292.605 238.853 293.243 237.555C293.383 237.245 293.587 236.967 293.842 236.741C294.096 236.515 294.396 236.345 294.721 236.242C295.046 236.139 295.388 236.107 295.727 236.145C296.065 236.184 296.392 236.294 296.685 236.468C298.425 237.555 298.598 241.253 298.185 243.023C298.185 243.135 297.69 244.373 297.435 245.048C297.975 244.598 298.515 244.155 299.078 243.72C300.698 242.468 302.378 241.245 304.05 240.023C304.56 239.648 305.07 239.273 305.55 238.89C305.333 238.718 302.745 236.64 302.055 235.245C301.44 234.023 300.998 232.298 301.643 231C301.782 230.689 301.986 230.411 302.24 230.184C302.494 229.957 302.794 229.786 303.119 229.683C303.444 229.579 303.787 229.546 304.126 229.584C304.465 229.622 304.791 229.732 305.085 229.905C306.825 230.993 306.998 234.69 306.548 236.468C306.51 236.603 305.835 238.38 305.648 238.823C306.765 237.99 307.898 237.15 308.925 236.28C310.359 235.121 311.715 233.869 312.983 232.53C312.885 232.455 310.17 230.28 309.465 228.87C308.85 227.648 308.408 225.915 309.053 224.618C309.193 224.307 309.397 224.03 309.652 223.804C309.906 223.577 310.206 223.407 310.531 223.305C310.856 223.202 311.198 223.169 311.537 223.208C311.875 223.247 312.202 223.357 312.495 223.53C314.235 224.618 314.408 228.315 313.958 230.085C313.958 230.205 313.41 231.585 313.155 232.2L313.253 232.26C314.498 230.865 315.613 229.359 316.583 227.76C317.13 226.898 317.61 226.035 318.083 225.188C317.535 224.835 315.083 223.193 314.273 222C313.463 220.808 312.908 219.18 313.403 217.815C313.508 217.492 313.681 217.194 313.909 216.942C314.138 216.69 314.416 216.488 314.727 216.35C315.038 216.212 315.375 216.141 315.715 216.142C316.055 216.142 316.392 216.214 316.703 216.353C318.548 217.245 319.125 220.905 318.878 222.713C318.878 222.818 318.608 223.8 318.42 224.52C318.615 224.138 318.818 223.77 318.998 223.365C319.673 221.97 320.205 220.65 320.67 219.48C320.925 218.805 321.143 218.198 321.345 217.628C320.985 216.998 319.583 214.455 319.448 213.06C319.313 211.665 319.53 209.925 320.595 208.95C320.838 208.711 321.129 208.526 321.448 208.407C321.768 208.288 322.109 208.238 322.449 208.259C322.789 208.28 323.121 208.373 323.423 208.53C323.725 208.688 323.991 208.908 324.203 209.175C325.433 210.818 324.263 214.32 323.198 215.82C323.108 215.948 321.443 217.8 321.428 217.77V217.733C321.248 218.288 321.045 218.88 320.813 219.525C320.378 220.71 319.875 222.045 319.223 223.463C318.547 225.008 317.778 226.511 316.92 227.963C315.971 229.587 314.879 231.123 313.658 232.553L313.613 232.598C314.123 232.283 315.585 231.45 315.705 231.398C317.385 230.648 321.068 230.273 322.41 231.818C322.628 232.08 322.787 232.385 322.879 232.713C322.97 233.041 322.992 233.385 322.941 233.722C322.891 234.059 322.771 234.381 322.587 234.668C322.404 234.955 322.162 235.201 321.878 235.388C320.693 236.228 318.915 236.063 317.618 235.643C316.118 235.178 313.658 232.935 313.463 232.763C312.18 234.183 310.808 235.518 309.353 236.76C308.513 237.51 307.635 238.193 306.75 238.89C307.208 238.635 307.613 238.403 307.673 238.38C309.353 237.63 313.028 237.248 314.378 238.793C314.595 239.056 314.754 239.362 314.845 239.691C314.936 240.02 314.957 240.365 314.906 240.702C314.855 241.04 314.734 241.363 314.55 241.65C314.365 241.937 314.123 242.183 313.838 242.37C312.66 243.203 310.883 243.038 309.578 242.625C308.273 242.213 306.098 240.338 305.535 239.835L304.5 240.578C302.858 241.838 301.208 243.09 299.633 244.365C299.078 244.815 298.545 245.28 298.013 245.738C298.41 245.513 298.763 245.318 298.808 245.295C300.488 244.545 304.163 244.17 305.513 245.715C305.73 245.978 305.889 246.283 305.98 246.612C306.071 246.94 306.092 247.284 306.041 247.621C305.99 247.958 305.868 248.28 305.684 248.567C305.5 248.854 305.258 249.099 304.973 249.285C303.795 250.125 302.018 249.96 300.713 249.54C299.408 249.12 297.443 247.44 296.775 246.84C296.243 247.335 295.703 247.823 295.215 248.34C294.885 248.693 294.54 249 294.233 249.368L293.25 250.41C292.68 251.108 292.088 251.82 291.548 252.51C291.165 252.99 290.798 253.455 290.46 253.92C291.008 253.47 292.103 252.6 292.2 252.54C293.753 251.573 297.323 250.613 298.89 251.933C299.144 252.161 299.346 252.439 299.485 252.751C299.624 253.062 299.696 253.399 299.696 253.74C299.696 254.081 299.624 254.418 299.485 254.73C299.346 255.041 299.144 255.32 298.89 255.548C297.848 256.553 296.063 256.658 294.713 256.448C293.213 256.215 290.535 254.46 290.213 254.243C289.628 254.993 289.058 255.743 288.54 256.493C286.725 258.998 285.308 261.15 284.34 262.673C284.31 262.727 284.278 262.78 284.243 262.83L282.99 262.215L283.185 261.923C284.198 260.423 285.675 258.255 287.558 255.765C288.158 255.015 288.803 254.145 289.478 253.305C288.785 252.538 288.136 251.731 287.535 250.89C286.095 251.453 283.095 251.475 282.705 251.475C282.638 252.45 282.585 253.395 282.555 254.28C282.42 257.37 282.435 259.95 282.465 261.78V261.998L281.085 261.323C281.085 259.538 281.16 257.115 281.34 254.25C281.4 253.268 281.483 252.21 281.58 251.138C281.198 251.04 278.078 250.238 276.9 249.293C275.723 248.348 274.703 247.043 274.748 245.61C274.745 245.27 274.814 244.932 274.95 244.62C275.087 244.308 275.287 244.028 275.539 243.799C275.791 243.569 276.089 243.396 276.413 243.289C276.736 243.183 277.079 243.145 277.418 243.18C279.45 243.435 281.168 246.72 281.49 248.52C281.49 248.625 281.595 249.803 281.64 250.545C281.64 250.11 281.715 249.675 281.76 249.225C281.85 248.333 281.97 247.44 282.09 246.48C282.165 246.015 282.24 245.55 282.323 245.078C282.405 244.605 282.518 244.125 282.608 243.638C282.855 242.528 283.163 241.388 283.493 240.293C282.705 240.21 279.923 239.88 278.738 239.198C277.553 238.515 276.225 237.315 276.045 235.883C275.991 235.548 276.008 235.205 276.094 234.877C276.18 234.549 276.335 234.243 276.546 233.978C276.758 233.713 277.024 233.495 277.325 233.339C277.626 233.183 277.956 233.091 278.295 233.07C280.343 233.018 282.525 236.003 283.133 237.735C283.17 237.84 283.463 239.13 283.613 239.843C283.815 239.175 284.018 238.5 284.243 237.833C284.91 235.89 285.638 233.948 286.358 232.005C286.575 231.413 286.785 230.82 287.003 230.22C286.725 230.22 283.41 229.875 282.075 229.11C280.89 228.428 279.563 227.228 279.383 225.795C279.329 225.46 279.345 225.118 279.432 224.79C279.518 224.462 279.672 224.155 279.884 223.89C280.096 223.625 280.361 223.408 280.662 223.251C280.963 223.095 281.294 223.004 281.633 222.983C283.68 222.938 285.87 225.923 286.47 227.648C286.515 227.783 286.935 229.635 287.018 230.115C287.49 228.803 287.955 227.49 288.353 226.185C288.901 224.417 289.336 222.616 289.658 220.793C289.523 220.793 286.065 220.463 284.693 219.683C283.508 219 282.188 217.8 282.008 216.36C281.953 216.026 281.97 215.684 282.057 215.356C282.143 215.028 282.297 214.722 282.509 214.458C282.721 214.194 282.987 213.977 283.288 213.821C283.589 213.666 283.919 213.575 284.258 213.555C286.305 213.503 288.488 216.488 289.095 218.22C289.133 218.333 289.455 219.72 289.59 220.418H289.71C289.977 218.576 290.08 216.713 290.018 214.853C290.018 213.825 289.92 212.85 289.823 211.898C289.17 211.898 286.2 211.898 284.888 211.335C283.575 210.773 282.188 209.738 281.888 208.335C281.797 208.007 281.776 207.662 281.827 207.325C281.878 206.988 282 206.665 282.184 206.378C282.367 206.091 282.61 205.845 282.895 205.658C283.18 205.471 283.501 205.345 283.838 205.29C285.87 205.013 288.338 207.743 289.163 209.393C289.2 209.483 289.538 210.45 289.77 211.148C289.725 210.72 289.68 210.278 289.62 209.873C289.418 208.335 289.133 206.94 288.87 205.703C288.713 205.005 288.555 204.375 288.405 203.79C287.768 203.46 285.195 202.118 284.31 201.023C283.425 199.928 282.653 198.368 282.998 196.965C283.065 196.625 283.205 196.302 283.408 196.02C283.611 195.738 283.871 195.502 284.172 195.329C284.473 195.155 284.808 195.049 285.154 195.015C285.5 194.982 285.849 195.023 286.178 195.135Z" fill="white"/>
<path d="M323.25 226.755C321.645 226.688 318.443 225.045 318.435 225.045C318.428 225.045 320.16 223.26 320.288 223.163C321.72 222.023 325.155 220.658 326.865 221.79C327.144 221.986 327.379 222.238 327.554 222.53C327.729 222.823 327.84 223.149 327.88 223.487C327.921 223.825 327.889 224.168 327.788 224.494C327.687 224.819 327.518 225.119 327.293 225.375C326.378 226.5 324.623 226.808 323.25 226.755Z" fill="white"/>
</g>
<path d="M304.537 266.887C304.537 266.887 294.787 243.442 289.372 244.462C283.957 245.482 298.702 281.842 298.702 281.842C298.702 281.842 281.588 249.592 269.918 249.592C258.248 249.592 274.2 285.27 288.982 297.165C288.982 297.165 265.643 272.017 252.03 277.455C238.418 282.892 279.255 308.377 279.255 308.377C279.255 308.377 255.532 300.877 258.255 306.675C260.977 312.472 268.365 313.47 268.365 313.47L241.5 314.805H334.875L313.875 312.765C313.875 312.765 335.625 301.89 329.82 297.472C324.015 293.055 311.152 302.572 311.152 302.572C311.152 302.572 333.323 278.1 329.048 268.927C324.773 259.755 305.707 285.577 305.707 285.577C305.707 285.577 321.263 252.615 318.15 246.84C315.038 241.065 304.537 266.887 304.537 266.887Z" fill="#FF4F00"/>
<path opacity="0.4" d="M304.537 266.887C304.537 266.887 294.787 243.442 289.372 244.462C283.957 245.482 298.702 281.842 298.702 281.842C298.702 281.842 281.588 249.592 269.918 249.592C258.248 249.592 274.2 285.27 288.982 297.165C288.982 297.165 265.643 272.017 252.03 277.455C238.418 282.892 279.255 308.377 279.255 308.377C279.255 308.377 255.532 300.877 258.255 306.675C260.977 312.472 268.365 313.47 268.365 313.47L241.5 314.805H334.875L313.875 312.765C313.875 312.765 335.625 301.89 329.82 297.472C324.015 293.055 311.152 302.572 311.152 302.572C311.152 302.572 333.323 278.1 329.048 268.927C324.773 259.755 305.707 285.577 305.707 285.577C305.707 285.577 321.263 252.615 318.15 246.84C315.038 241.065 304.537 266.887 304.537 266.887Z" fill="white"/>
<path d="M307.65 268.125C299.093 293.408 299.093 311.303 299.093 311.303C299.093 311.303 309.21 311.692 319.71 303.907" stroke="#787878" stroke-linecap="round" stroke-linejoin="round"/>
<path d="M303.375 281.738C301.609 274.181 299.267 266.769 296.37 259.568" stroke="#787878" stroke-linecap="round" stroke-linejoin="round"/>
<path d="M278.093 267L299.843 299.25C299.843 299.25 314.625 286.808 319.68 279.803" stroke="#787878" stroke-linecap="round" stroke-linejoin="round"/>
<path d="M299.483 307.021C299.483 307.021 276.533 296.131 267.195 289.906" stroke="#787878" stroke-linecap="round" stroke-linejoin="round"/>
<path d="M152.55 248.49C152.55 248.49 152.843 246.923 152.873 246.825C153.233 245.708 154.598 243.758 155.873 243.758C156.091 243.764 156.306 243.817 156.503 243.911C156.701 244.006 156.876 244.142 157.017 244.309C157.158 244.475 157.263 244.67 157.324 244.88C157.386 245.09 157.402 245.311 157.373 245.528C157.268 245.991 157.064 246.426 156.773 246.801C156.483 247.177 156.114 247.485 155.693 247.703C154.689 248.117 153.63 248.382 152.55 248.49Z" fill="#FF4F00"/>
<path d="M150 237.938C151.238 238.381 151.853 240.676 151.815 241.853C151.815 241.951 151.575 243.533 151.56 243.526C151.665 243.893 151.763 244.276 151.868 244.703C152.055 245.498 152.258 246.391 152.415 247.381C152.593 248.443 152.711 249.515 152.768 250.591C152.832 251.797 152.789 253.007 152.64 254.206C152.644 254.221 152.644 254.236 152.64 254.251C152.805 253.898 153.293 252.931 153.338 252.863C153.983 251.881 155.805 250.358 157.088 250.711C157.297 250.774 157.49 250.881 157.655 251.024C157.82 251.168 157.953 251.344 158.045 251.543C158.137 251.741 158.186 251.956 158.189 252.175C158.192 252.393 158.149 252.61 158.063 252.811C157.84 253.229 157.529 253.593 157.15 253.878C156.772 254.163 156.336 254.362 155.873 254.461C154.792 254.6 153.697 254.575 152.625 254.386C152.452 255.601 152.202 256.803 151.875 257.986C151.68 258.676 151.463 259.366 151.23 260.048C151.38 259.748 151.523 259.486 151.545 259.448C152.19 258.466 154.013 256.943 155.295 257.296C155.504 257.36 155.698 257.468 155.863 257.612C156.028 257.756 156.161 257.933 156.253 258.132C156.345 258.331 156.394 258.547 156.397 258.766C156.4 258.985 156.357 259.202 156.27 259.403C156.045 259.819 155.733 260.181 155.355 260.464C154.977 260.748 154.542 260.946 154.08 261.046C153.031 261.188 151.966 261.168 150.923 260.986C150.833 261.248 150.75 261.511 150.653 261.773C150.218 263.033 149.782 264.286 149.385 265.523C149.25 265.958 149.13 266.401 149.003 266.836C149.138 266.573 149.25 266.348 149.273 266.318C149.918 265.336 151.748 263.813 153.023 264.158C153.232 264.223 153.425 264.33 153.59 264.474C153.755 264.618 153.888 264.796 153.98 264.994C154.072 265.193 154.121 265.409 154.124 265.628C154.127 265.847 154.084 266.064 153.998 266.266C153.776 266.684 153.465 267.049 153.086 267.334C152.708 267.62 152.271 267.818 151.808 267.916C150.789 268.058 149.753 268.041 148.74 267.863C148.628 268.313 148.515 268.763 148.425 269.206C148.372 269.513 148.305 269.798 148.268 270.106C148.23 270.413 148.178 270.713 148.14 271.006C148.08 271.583 148.012 272.176 147.967 272.738C147.967 273.128 147.915 273.488 147.885 273.878C148.02 273.443 148.298 272.596 148.328 272.521C148.797 271.599 149.491 270.809 150.345 270.226C150.395 270.122 150.453 270.021 150.518 269.926C150.637 269.742 150.794 269.586 150.979 269.468C151.163 269.349 151.37 269.271 151.586 269.237C151.803 269.204 152.024 269.217 152.235 269.275C152.446 269.333 152.643 269.434 152.813 269.573C153.81 270.428 153.563 272.798 153.098 273.878C153.098 273.946 152.7 274.628 152.46 275.018L152.993 274.351C153.36 273.901 153.743 273.466 154.148 272.993L154.763 272.326C154.965 272.101 155.205 271.883 155.43 271.658C155.955 271.148 156.518 270.661 157.088 270.158C156.258 269.521 155.53 268.763 154.928 267.908C154.687 267.5 154.539 267.044 154.494 266.572C154.449 266.101 154.507 265.625 154.665 265.178C154.754 264.973 154.886 264.79 155.053 264.64C155.219 264.491 155.416 264.379 155.629 264.312C155.842 264.245 156.068 264.225 156.29 264.253C156.511 264.281 156.725 264.356 156.915 264.473C158.025 265.178 158.138 267.548 157.853 268.688C157.853 268.763 157.53 269.558 157.358 269.986C157.71 269.701 158.055 269.416 158.415 269.138C159.458 268.328 160.538 267.548 161.61 266.761L162.585 266.011C161.721 265.349 160.962 264.56 160.335 263.671C160.094 263.263 159.944 262.807 159.898 262.336C159.851 261.864 159.908 261.388 160.065 260.941C160.154 260.735 160.286 260.552 160.453 260.402C160.619 260.253 160.816 260.141 161.03 260.075C161.243 260.009 161.469 259.99 161.691 260.019C161.913 260.048 162.126 260.124 162.315 260.243C163.433 260.941 163.545 263.311 163.253 264.451C163.253 264.541 162.802 265.681 162.675 265.951C163.425 265.418 164.108 264.878 164.783 264.323C165.703 263.57 166.575 262.758 167.393 261.893C166.53 261.224 165.772 260.43 165.143 259.538C164.904 259.129 164.757 258.673 164.711 258.202C164.666 257.731 164.723 257.255 164.88 256.808C164.971 256.609 165.102 256.431 165.266 256.286C165.43 256.141 165.622 256.032 165.831 255.967C166.04 255.901 166.26 255.88 166.477 255.904C166.694 255.929 166.904 256 167.092 256.111C168.21 256.808 168.315 259.186 168.03 260.326C168.03 260.401 167.685 261.271 167.513 261.683L167.58 261.721C168.377 260.829 169.092 259.868 169.717 258.848C170.07 258.293 170.378 257.738 170.663 257.198C169.747 256.642 168.923 255.949 168.217 255.143C167.933 254.764 167.735 254.327 167.637 253.863C167.54 253.399 167.546 252.92 167.655 252.458C167.723 252.25 167.834 252.059 167.981 251.897C168.128 251.734 168.307 251.605 168.507 251.516C168.707 251.428 168.924 251.383 169.143 251.383C169.362 251.384 169.578 251.431 169.778 251.521C170.963 252.098 171.33 254.438 171.173 255.608C171.173 255.668 171 256.306 170.88 256.763C171 256.516 171.135 256.268 171.248 256.013C171.683 255.113 171.998 254.266 172.32 253.508C172.485 253.081 172.628 252.691 172.755 252.323C172.204 251.413 171.794 250.424 171.54 249.391C171.466 248.923 171.495 248.444 171.625 247.988C171.754 247.532 171.981 247.11 172.29 246.751C172.445 246.596 172.632 246.476 172.837 246.398C173.042 246.321 173.262 246.288 173.481 246.301C173.7 246.315 173.913 246.374 174.108 246.476C174.302 246.578 174.472 246.721 174.608 246.893C175.395 247.951 174.645 250.201 173.963 251.161C173.903 251.243 172.837 252.436 172.822 252.413C172.71 252.766 172.583 253.163 172.433 253.561C172.148 254.311 171.825 255.181 171.413 256.096C170.968 257.081 170.467 258.04 169.913 258.968C169.301 260.011 168.598 260.997 167.813 261.916C168.143 261.713 169.08 261.166 169.155 261.166C170.235 260.701 172.597 260.416 173.467 261.436C173.607 261.604 173.709 261.8 173.767 262.01C173.825 262.22 173.839 262.441 173.806 262.657C173.774 262.872 173.696 263.079 173.578 263.263C173.46 263.447 173.305 263.603 173.123 263.723C172.706 263.949 172.246 264.081 171.773 264.111C171.3 264.141 170.826 264.067 170.385 263.896C169.406 263.415 168.506 262.788 167.715 262.036C166.895 262.953 166.013 263.812 165.075 264.608C164.535 265.073 163.973 265.531 163.41 265.981C163.695 265.808 163.958 265.666 163.995 265.651C165.075 265.186 167.438 264.901 168.308 265.913C168.447 266.082 168.549 266.278 168.607 266.489C168.666 266.7 168.679 266.921 168.647 267.138C168.614 267.354 168.536 267.561 168.418 267.746C168.301 267.93 168.145 268.088 167.963 268.208C167.546 268.434 167.085 268.566 166.612 268.595C166.139 268.623 165.666 268.548 165.225 268.373C164.27 267.917 163.392 267.315 162.623 266.588L161.97 267.098C160.913 267.908 159.848 268.711 158.835 269.528C158.483 269.813 158.138 270.113 157.793 270.413L158.303 270.128C159.39 269.663 161.753 269.378 162.615 270.391C162.754 270.56 162.856 270.756 162.915 270.967C162.973 271.178 162.987 271.399 162.954 271.615C162.922 271.832 162.844 272.039 162.726 272.223C162.608 272.408 162.453 272.565 162.27 272.686C161.854 272.912 161.393 273.044 160.92 273.073C160.447 273.101 159.973 273.026 159.533 272.851C158.603 272.408 157.748 271.823 156.998 271.118C156.66 271.433 156.315 271.748 156 272.071C155.685 272.393 155.565 272.491 155.37 272.731L154.763 273.406C154.395 273.856 154.013 274.313 153.668 274.763L152.97 275.671C153.323 275.378 154.02 274.823 154.088 274.778C155.085 274.156 157.38 273.541 158.385 274.388C158.547 274.535 158.677 274.715 158.766 274.915C158.855 275.115 158.901 275.332 158.901 275.551C158.901 275.77 158.855 275.986 158.766 276.187C158.677 276.387 158.547 276.566 158.385 276.713C158.007 276.998 157.572 277.197 157.11 277.297C156.647 277.396 156.169 277.394 155.708 277.291C154.673 276.97 153.694 276.491 152.805 275.873C152.423 276.368 152.055 276.856 151.725 277.321C150.563 278.933 149.655 280.321 149.033 281.288L148.973 281.393L148.163 281.003L148.29 280.808C148.943 279.833 149.888 278.453 151.103 276.856C151.485 276.353 151.898 275.813 152.333 275.273C151.885 274.781 151.467 274.262 151.08 273.721C150.07 273.992 149.028 274.12 147.983 274.103C147.938 274.726 147.907 275.333 147.885 275.903C147.802 277.891 147.803 279.548 147.825 280.703C147.821 280.748 147.821 280.793 147.825 280.838L146.933 280.411C146.933 279.256 146.978 277.703 147.098 275.866C147.098 275.228 147.188 274.553 147.255 273.863C146.2 273.624 145.189 273.224 144.255 272.678C143.866 272.409 143.54 272.059 143.3 271.65C143.06 271.242 142.913 270.787 142.868 270.316C142.865 270.096 142.909 269.879 142.997 269.678C143.085 269.476 143.214 269.296 143.376 269.148C143.538 269 143.729 268.888 143.938 268.819C144.146 268.75 144.367 268.726 144.585 268.748C145.89 268.921 146.985 270.998 147.203 272.183C147.203 272.251 147.27 273.008 147.293 273.481C147.293 273.203 147.345 272.926 147.375 272.633C147.435 272.056 147.51 271.486 147.585 270.871C147.638 270.571 147.683 270.271 147.735 269.971C147.788 269.671 147.855 269.356 147.923 269.048C148.08 268.298 148.275 267.616 148.485 266.896C147.437 266.82 146.408 266.582 145.433 266.191C145.006 265.984 144.631 265.686 144.333 265.318C144.035 264.95 143.821 264.52 143.708 264.061C143.671 263.845 143.681 263.624 143.737 263.412C143.792 263.201 143.892 263.003 144.03 262.833C144.167 262.663 144.339 262.524 144.535 262.425C144.73 262.326 144.944 262.27 145.163 262.261C146.483 262.223 147.885 264.143 148.268 265.261C148.268 265.328 148.485 266.161 148.575 266.618C148.71 266.183 148.837 265.756 148.987 265.321C149.407 264.076 149.88 262.831 150.338 261.571C150.48 261.196 150.615 260.821 150.757 260.431C149.673 260.348 148.607 260.108 147.592 259.718C147.167 259.508 146.791 259.208 146.492 258.839C146.193 258.47 145.978 258.041 145.86 257.581C145.826 257.365 145.838 257.144 145.895 256.933C145.952 256.722 146.052 256.525 146.19 256.355C146.328 256.185 146.5 256.046 146.695 255.948C146.89 255.849 147.104 255.792 147.322 255.781C148.635 255.743 150.038 257.663 150.428 258.781C150.428 258.863 150.727 260.056 150.78 260.363C151.087 259.523 151.38 258.683 151.635 257.843C151.913 256.71 152.119 255.56 152.25 254.401C151.158 254.322 150.084 254.082 149.063 253.688C148.638 253.479 148.264 253.18 147.966 252.813C147.668 252.445 147.454 252.017 147.338 251.558C147.302 251.342 147.313 251.121 147.369 250.91C147.425 250.698 147.525 250.501 147.662 250.33C147.799 250.16 147.971 250.02 148.166 249.92C148.36 249.82 148.574 249.763 148.793 249.751C150.113 249.751 151.515 251.633 151.905 252.751C151.905 252.818 152.138 253.726 152.22 254.161H152.295C152.468 252.977 152.536 251.779 152.498 250.583C152.498 249.923 152.438 249.301 152.37 248.686C151.303 248.73 150.235 248.608 149.205 248.326C148.76 248.165 148.354 247.91 148.018 247.577C147.681 247.244 147.421 246.842 147.255 246.398C147.196 246.187 147.182 245.967 147.215 245.75C147.247 245.534 147.324 245.327 147.441 245.142C147.559 244.957 147.714 244.8 147.896 244.679C148.078 244.558 148.284 244.477 148.5 244.441C149.813 244.268 151.41 246.016 151.92 247.081C151.92 247.141 152.168 247.756 152.318 248.206C152.28 247.936 152.258 247.651 152.22 247.388C152.085 246.398 151.905 245.506 151.733 244.711C151.635 244.261 151.538 243.856 151.44 243.481C150.477 243.025 149.59 242.426 148.808 241.703C148.486 241.356 148.244 240.942 148.099 240.491C147.953 240.04 147.909 239.563 147.967 239.093C148.012 238.876 148.102 238.671 148.232 238.492C148.362 238.313 148.529 238.164 148.722 238.054C148.914 237.945 149.128 237.878 149.348 237.858C149.569 237.838 149.791 237.865 150 237.938Z" fill="#FF4F00"/>
<path d="M173.82 258.248C172.74 258.033 171.696 257.661 170.723 257.146C170.723 257.146 171.833 255.998 171.915 255.938C172.83 255.188 175.043 254.326 176.138 255.061C176.318 255.186 176.469 255.348 176.582 255.535C176.695 255.723 176.767 255.932 176.793 256.15C176.819 256.367 176.799 256.588 176.734 256.797C176.669 257.006 176.56 257.199 176.415 257.363C176.072 257.69 175.663 257.938 175.215 258.09C174.767 258.243 174.291 258.297 173.82 258.248Z" fill="#FF4F00"/>
<g opacity="0.5">
<path d="M152.55 248.49C152.55 248.49 152.843 246.923 152.873 246.825C153.233 245.708 154.598 243.758 155.873 243.758C156.091 243.764 156.306 243.817 156.503 243.911C156.701 244.006 156.876 244.142 157.017 244.309C157.158 244.475 157.263 244.67 157.324 244.88C157.386 245.09 157.402 245.311 157.373 245.528C157.268 245.991 157.064 246.426 156.773 246.801C156.483 247.177 156.114 247.485 155.693 247.703C154.689 248.117 153.63 248.382 152.55 248.49Z" fill="white"/>
<path d="M150 237.938C151.238 238.381 151.853 240.676 151.815 241.853C151.815 241.951 151.575 243.533 151.56 243.526C151.665 243.893 151.763 244.276 151.868 244.703C152.055 245.498 152.258 246.391 152.415 247.381C152.593 248.443 152.711 249.515 152.768 250.591C152.832 251.797 152.789 253.007 152.64 254.206C152.644 254.221 152.644 254.236 152.64 254.251C152.805 253.898 153.293 252.931 153.338 252.863C153.983 251.881 155.805 250.358 157.088 250.711C157.297 250.774 157.49 250.881 157.655 251.024C157.82 251.168 157.953 251.344 158.045 251.543C158.137 251.741 158.186 251.956 158.189 252.175C158.192 252.393 158.149 252.61 158.063 252.811C157.84 253.229 157.529 253.593 157.15 253.878C156.772 254.163 156.336 254.362 155.873 254.461C154.792 254.6 153.697 254.575 152.625 254.386C152.452 255.601 152.202 256.803 151.875 257.986C151.68 258.676 151.463 259.366 151.23 260.048C151.38 259.748 151.523 259.486 151.545 259.448C152.19 258.466 154.013 256.943 155.295 257.296C155.504 257.36 155.698 257.468 155.863 257.612C156.028 257.756 156.161 257.933 156.253 258.132C156.345 258.331 156.394 258.547 156.397 258.766C156.4 258.985 156.357 259.202 156.27 259.403C156.045 259.819 155.733 260.181 155.355 260.464C154.977 260.748 154.542 260.946 154.08 261.046C153.031 261.188 151.966 261.168 150.923 260.986C150.833 261.248 150.75 261.511 150.653 261.773C150.218 263.033 149.782 264.286 149.385 265.523C149.25 265.958 149.13 266.401 149.003 266.836C149.138 266.573 149.25 266.348 149.273 266.318C149.918 265.336 151.748 263.813 153.023 264.158C153.232 264.223 153.425 264.33 153.59 264.474C153.755 264.618 153.888 264.796 153.98 264.994C154.072 265.193 154.121 265.409 154.124 265.628C154.127 265.847 154.084 266.064 153.998 266.266C153.776 266.684 153.465 267.049 153.086 267.334C152.708 267.62 152.271 267.818 151.808 267.916C150.789 268.058 149.753 268.041 148.74 267.863C148.628 268.313 148.515 268.763 148.425 269.206C148.372 269.513 148.305 269.798 148.268 270.106C148.23 270.413 148.178 270.713 148.14 271.006C148.08 271.583 148.012 272.176 147.967 272.738C147.967 273.128 147.915 273.488 147.885 273.878C148.02 273.443 148.298 272.596 148.328 272.521C148.797 271.599 149.491 270.809 150.345 270.226C150.395 270.122 150.453 270.021 150.518 269.926C150.637 269.742 150.794 269.586 150.979 269.468C151.163 269.349 151.37 269.271 151.586 269.237C151.803 269.204 152.024 269.217 152.235 269.275C152.446 269.333 152.643 269.434 152.813 269.573C153.81 270.428 153.563 272.798 153.098 273.878C153.098 273.946 152.7 274.628 152.46 275.018L152.993 274.351C153.36 273.901 153.743 273.466 154.148 272.993L154.763 272.326C154.965 272.101 155.205 271.883 155.43 271.658C155.955 271.148 156.518 270.661 157.088 270.158C156.258 269.521 155.53 268.763 154.928 267.908C154.687 267.5 154.539 267.044 154.494 266.572C154.449 266.101 154.507 265.625 154.665 265.178C154.754 264.973 154.886 264.79 155.053 264.64C155.219 264.491 155.416 264.379 155.629 264.312C155.842 264.245 156.068 264.225 156.29 264.253C156.511 264.281 156.725 264.356 156.915 264.473C158.025 265.178 158.138 267.548 157.853 268.688C157.853 268.763 157.53 269.558 157.358 269.986C157.71 269.701 158.055 269.416 158.415 269.138C159.458 268.328 160.538 267.548 161.61 266.761L162.585 266.011C161.721 265.349 160.962 264.56 160.335 263.671C160.094 263.263 159.944 262.807 159.898 262.336C159.851 261.864 159.908 261.388 160.065 260.941C160.154 260.735 160.286 260.552 160.453 260.402C160.619 260.253 160.816 260.141 161.03 260.075C161.243 260.009 161.469 259.99 161.691 260.019C161.913 260.048 162.126 260.124 162.315 260.243C163.433 260.941 163.545 263.311 163.253 264.451C163.253 264.541 162.802 265.681 162.675 265.951C163.425 265.418 164.108 264.878 164.783 264.323C165.703 263.57 166.575 262.758 167.393 261.893C166.53 261.224 165.772 260.43 165.143 259.538C164.904 259.129 164.757 258.673 164.711 258.202C164.666 257.731 164.723 257.255 164.88 256.808C164.971 256.609 165.102 256.431 165.266 256.286C165.43 256.141 165.622 256.032 165.831 255.967C166.04 255.901 166.26 255.88 166.477 255.904C166.694 255.929 166.904 256 167.092 256.111C168.21 256.808 168.315 259.186 168.03 260.326C168.03 260.401 167.685 261.271 167.513 261.683L167.58 261.721C168.377 260.829 169.092 259.868 169.717 258.848C170.07 258.293 170.378 257.738 170.663 257.198C169.747 256.642 168.923 255.949 168.217 255.143C167.933 254.764 167.735 254.327 167.637 253.863C167.54 253.399 167.546 252.92 167.655 252.458C167.723 252.25 167.834 252.059 167.981 251.897C168.128 251.734 168.307 251.605 168.507 251.516C168.707 251.428 168.924 251.383 169.143 251.383C169.362 251.384 169.578 251.431 169.778 251.521C170.963 252.098 171.33 254.438 171.173 255.608C171.173 255.668 171 256.306 170.88 256.763C171 256.516 171.135 256.268 171.248 256.013C171.683 255.113 171.998 254.266 172.32 253.508C172.485 253.081 172.628 252.691 172.755 252.323C172.204 251.413 171.794 250.424 171.54 249.391C171.466 248.923 171.495 248.444 171.625 247.988C171.754 247.532 171.981 247.11 172.29 246.751C172.445 246.596 172.632 246.476 172.837 246.398C173.042 246.321 173.262 246.288 173.481 246.301C173.7 246.315 173.913 246.374 174.108 246.476C174.302 246.578 174.472 246.721 174.608 246.893C175.395 247.951 174.645 250.201 173.963 251.161C173.903 251.243 172.837 252.436 172.822 252.413C172.71 252.766 172.583 253.163 172.433 253.561C172.148 254.311 171.825 255.181 171.413 256.096C170.968 257.081 170.467 258.04 169.913 258.968C169.301 260.011 168.598 260.997 167.813 261.916C168.143 261.713 169.08 261.166 169.155 261.166C170.235 260.701 172.597 260.416 173.467 261.436C173.607 261.604 173.709 261.8 173.767 262.01C173.825 262.22 173.839 262.441 173.806 262.657C173.774 262.872 173.696 263.079 173.578 263.263C173.46 263.447 173.305 263.603 173.123 263.723C172.706 263.949 172.246 264.081 171.773 264.111C171.3 264.141 170.826 264.067 170.385 263.896C169.406 263.415 168.506 262.788 167.715 262.036C166.895 262.953 166.013 263.812 165.075 264.608C164.535 265.073 163.973 265.531 163.41 265.981C163.695 265.808 163.958 265.666 163.995 265.651C165.075 265.186 167.438 264.901 168.308 265.913C168.447 266.082 168.549 266.278 168.607 266.489C168.666 266.7 168.679 266.921 168.647 267.138C168.614 267.354 168.536 267.561 168.418 267.746C168.301 267.93 168.145 268.088 167.963 268.208C167.546 268.434 167.085 268.566 166.612 268.595C166.139 268.623 165.666 268.548 165.225 268.373C164.27 267.917 163.392 267.315 162.623 266.588L161.97 267.098C160.913 267.908 159.848 268.711 158.835 269.528C158.483 269.813 158.138 270.113 157.793 270.413L158.303 270.128C159.39 269.663 161.753 269.378 162.615 270.391C162.754 270.56 162.856 270.756 162.915 270.967C162.973 271.178 162.987 271.399 162.954 271.615C162.922 271.832 162.844 272.039 162.726 272.223C162.608 272.408 162.453 272.565 162.27 272.686C161.854 272.912 161.393 273.044 160.92 273.073C160.447 273.101 159.973 273.026 159.533 272.851C158.603 272.408 157.748 271.823 156.998 271.118C156.66 271.433 156.315 271.748 156 272.071C155.685 272.393 155.565 272.491 155.37 272.731L154.763 273.406C154.395 273.856 154.013 274.313 153.668 274.763L152.97 275.671C153.323 275.378 154.02 274.823 154.088 274.778C155.085 274.156 157.38 273.541 158.385 274.388C158.547 274.535 158.677 274.715 158.766 274.915C158.855 275.115 158.901 275.332 158.901 275.551C158.901 275.77 158.855 275.986 158.766 276.187C158.677 276.387 158.547 276.566 158.385 276.713C158.007 276.998 157.572 277.197 157.11 277.297C156.647 277.396 156.169 277.394 155.708 277.291C154.673 276.97 153.694 276.491 152.805 275.873C152.423 276.368 152.055 276.856 151.725 277.321C150.563 278.933 149.655 280.321 149.033 281.288L148.973 281.393L148.163 281.003L148.29 280.808C148.943 279.833 149.888 278.453 151.103 276.856C151.485 276.353 151.898 275.813 152.333 275.273C151.885 274.781 151.467 274.262 151.08 273.721C150.07 273.992 149.028 274.12 147.983 274.103C147.938 274.726 147.907 275.333 147.885 275.903C147.802 277.891 147.803 279.548 147.825 280.703C147.821 280.748 147.821 280.793 147.825 280.838L146.933 280.411C146.933 279.256 146.978 277.703 147.098 275.866C147.098 275.228 147.188 274.553 147.255 273.863C146.2 273.624 145.189 273.224 144.255 272.678C143.866 272.409 143.54 272.059 143.3 271.65C143.06 271.242 142.913 270.787 142.868 270.316C142.865 270.096 142.909 269.879 142.997 269.678C143.085 269.476 143.214 269.296 143.376 269.148C143.538 269 143.729 268.888 143.938 268.819C144.146 268.75 144.367 268.726 144.585 268.748C145.89 268.921 146.985 270.998 147.203 272.183C147.203 272.251 147.27 273.008 147.293 273.481C147.293 273.203 147.345 272.926 147.375 272.633C147.435 272.056 147.51 271.486 147.585 270.871C147.638 270.571 147.683 270.271 147.735 269.971C147.788 269.671 147.855 269.356 147.923 269.048C148.08 268.298 148.275 267.616 148.485 266.896C147.437 266.82 146.408 266.582 145.433 266.191C145.006 265.984 144.631 265.686 144.333 265.318C144.035 264.95 143.821 264.52 143.708 264.061C143.671 263.845 143.681 263.624 143.737 263.412C143.792 263.201 143.892 263.003 144.03 262.833C144.167 262.663 144.339 262.524 144.535 262.425C144.73 262.326 144.944 262.27 145.163 262.261C146.483 262.223 147.885 264.143 148.268 265.261C148.268 265.328 148.485 266.161 148.575 266.618C148.71 266.183 148.837 265.756 148.987 265.321C149.407 264.076 149.88 262.831 150.338 261.571C150.48 261.196 150.615 260.821 150.757 260.431C149.673 260.348 148.607 260.108 147.592 259.718C147.167 259.508 146.791 259.208 146.492 258.839C146.193 258.47 145.978 258.041 145.86 257.581C145.826 257.365 145.838 257.144 145.895 256.933C145.952 256.722 146.052 256.525 146.19 256.355C146.328 256.185 146.5 256.046 146.695 255.948C146.89 255.849 147.104 255.792 147.322 255.781C148.635 255.743 150.038 257.663 150.428 258.781C150.428 258.863 150.727 260.056 150.78 260.363C151.087 259.523 151.38 258.683 151.635 257.843C151.913 256.71 152.119 255.56 152.25 254.401C151.158 254.322 150.084 254.082 149.063 253.688C148.638 253.479 148.264 253.18 147.966 252.813C147.668 252.445 147.454 252.017 147.338 251.558C147.302 251.342 147.313 251.121 147.369 250.91C147.425 250.698 147.525 250.501 147.662 250.33C147.799 250.16 147.971 250.02 148.166 249.92C148.36 249.82 148.574 249.763 148.793 249.751C150.113 249.751 151.515 251.633 151.905 252.751C151.905 252.818 152.138 253.726 152.22 254.161H152.295C152.468 252.977 152.536 251.779 152.498 250.583C152.498 249.923 152.438 249.301 152.37 248.686C151.303 248.73 150.235 248.608 149.205 248.326C148.76 248.165 148.354 247.91 148.018 247.577C147.681 247.244 147.421 246.842 147.255 246.398C147.196 246.187 147.182 245.967 147.215 245.75C147.247 245.534 147.324 245.327 147.441 245.142C147.559 244.957 147.714 244.8 147.896 244.679C148.078 244.558 148.284 244.477 148.5 244.441C149.813 244.268 151.41 246.016 151.92 247.081C151.92 247.141 152.168 247.756 152.318 248.206C152.28 247.936 152.258 247.651 152.22 247.388C152.085 246.398 151.905 245.506 151.733 244.711C151.635 244.261 151.538 243.856 151.44 243.481C150.477 243.025 149.59 242.426 148.808 241.703C148.486 241.356 148.244 240.942 148.099 240.491C147.953 240.04 147.909 239.563 147.967 239.093C148.012 238.876 148.102 238.671 148.232 238.492C148.362 238.313 148.529 238.164 148.722 238.054C148.914 237.945 149.128 237.878 149.348 237.858C149.569 237.838 149.791 237.865 150 237.938Z" fill="white"/>
<path d="M173.82 258.248C172.739 258.033 171.696 257.661 170.722 257.146C170.722 257.146 171.832 255.998 171.915 255.938C172.83 255.188 175.042 254.326 176.137 255.061C176.317 255.186 176.469 255.348 176.582 255.535C176.694 255.723 176.766 255.932 176.793 256.15C176.819 256.367 176.799 256.588 176.734 256.797C176.669 257.006 176.56 257.199 176.415 257.363C176.072 257.69 175.662 257.938 175.214 258.09C174.766 258.243 174.291 258.297 173.82 258.248Z" fill="white"/>
</g>
<path d="M161.798 284.026C161.798 284.026 155.55 268.966 152.048 269.618C148.545 270.271 158.048 293.618 158.048 293.618C158.048 293.618 147.053 272.881 139.56 272.881C132.068 272.881 142.305 295.801 151.8 303.436C151.8 303.436 136.8 287.288 128.063 290.776C119.325 294.263 145.553 310.643 145.553 310.643C145.553 310.643 130.313 305.836 132.053 309.548C133.793 313.261 138.548 313.913 138.548 313.913L121.298 314.791H181.298L167.798 313.478C167.798 313.478 181.793 306.496 178.043 303.653C174.293 300.811 166.043 306.931 166.043 306.931C166.043 306.931 180.293 291.218 177.533 285.323C174.773 279.428 162.533 296.018 162.533 296.018C162.533 296.018 172.53 274.846 170.535 271.133C168.54 267.421 161.798 284.026 161.798 284.026Z" fill="#FF4F00"/>
<path opacity="0.4" d="M161.798 284.026C161.798 284.026 155.55 268.966 152.048 269.618C148.545 270.271 158.048 293.618 158.048 293.618C158.048 293.618 147.053 272.881 139.56 272.881C132.068 272.881 142.305 295.801 151.8 303.436C151.8 303.436 136.8 287.288 128.063 290.776C119.325 294.263 145.553 310.643 145.553 310.643C145.553 310.643 130.313 305.836 132.053 309.548C133.793 313.261 138.548 313.913 138.548 313.913L121.298 314.791H181.298L167.798 313.478C167.798 313.478 181.793 306.496 178.043 303.653C174.293 300.811 166.043 306.931 166.043 306.931C166.043 306.931 180.293 291.218 177.533 285.323C174.773 279.428 162.533 296.018 162.533 296.018C162.533 296.018 172.53 274.846 170.535 271.133C168.54 267.421 161.798 284.026 161.798 284.026Z" fill="white"/>
<path d="M163.793 284.82C158.295 301.058 158.295 312.57 158.295 312.57C158.295 312.57 164.79 312.818 171.54 307.823" stroke="#787878" stroke-linecap="round" stroke-linejoin="round"/>
<path d="M161.048 293.564C159.914 288.706 158.41 283.942 156.548 279.314" stroke="#787878" stroke-linecap="round" stroke-linejoin="round"/>
<path d="M144.803 284.07L158.798 304.808C158.798 304.808 168.293 296.813 171.548 292.313" stroke="#787878" stroke-linecap="round" stroke-linejoin="round"/>
<path d="M158.543 309.802C158.543 309.802 143.805 302.812 137.805 298.814" stroke="#787878" stroke-linecap="round" stroke-linejoin="round"/>
<path d="M56.2499 271.986C58.2928 277.025 59.3055 282.421 59.2282 287.857C59.1509 293.293 57.9852 298.658 55.7999 303.636L51.1574 314.136C51.0626 314.35 50.9922 314.574 50.9474 314.804H55.2674L59.0174 306.246C61.5506 300.474 62.9022 294.254 62.9924 287.951C63.0825 281.648 61.9095 275.391 59.5424 269.549L51.0974 248.804C50.8216 248.122 50.7171 247.383 50.7931 246.652C50.869 245.92 51.1231 245.218 51.5332 244.608C51.9432 243.997 52.4966 243.496 53.145 243.149C53.7933 242.802 54.5169 242.619 55.2524 242.616H74.5424C76.3199 242.616 77.7674 244.461 77.7674 242.684C77.7654 241.829 77.425 241.01 76.8206 240.406C76.2163 239.801 75.3971 239.461 74.5424 239.459H57.9074C56.1125 239.457 54.3448 239.897 52.7606 240.741C51.1764 241.585 49.8246 242.806 48.8249 244.297C46.7849 247.297 46.3949 247.859 47.7749 251.241L56.2499 271.986Z" fill="#A3A3A3"/>
<path d="M74.5424 222.135H71.9849V314.565H74.5424V222.135Z" fill="#A3A3A3"/>
<path d="M258.75 222.135H256.192V314.565H258.75V222.135Z" fill="#A3A3A3"/>
<path d="M257.317 215.744H70.71V229.162H257.317V215.744Z" fill="#BDBDBD"/>
<path d="M257.317 231.719H70.71V245.136H257.317V231.719Z" fill="#BDBDBD"/>
<path d="M257.325 263.039H56.895V267.509H257.325V263.039Z" fill="#BDBDBD"/>
<path d="M257.317 263.039H225.442V267.509H257.317V263.039Z" fill="#878787"/>
<path d="M229.777 248.804C229.501 248.122 229.397 247.382 229.473 246.65C229.55 245.918 229.804 245.215 230.215 244.605C230.626 243.994 231.181 243.493 231.83 243.147C232.479 242.8 233.204 242.618 233.94 242.616H257.31V239.459H236.587C234.793 239.457 233.025 239.898 231.441 240.742C229.857 241.585 228.505 242.806 227.505 244.296C225.472 247.296 225.075 247.859 226.455 251.241L234.915 271.986C236.96 277.024 237.974 282.421 237.896 287.857C237.819 293.293 236.652 298.659 234.465 303.636L229.822 314.136C229.733 314.352 229.666 314.575 229.62 314.804H233.932L237.682 306.246C240.217 300.475 241.57 294.254 241.66 287.951C241.75 281.648 240.576 275.391 238.207 269.549L229.777 248.804Z" fill="#A3A3A3"/>
<path d="M328.065 86.9403C324.548 85.0203 322.943 86.6178 321.66 85.0203C320.378 83.4228 325.185 79.2528 315.577 75.0903C315.577 75.0903 314.932 66.0903 301.8 65.7978C288.667 65.5053 292.193 74.7978 288.668 77.0478C285.143 79.2978 284.167 75.7653 280.657 78.0078C277.147 80.2503 278.737 84.7578 275.85 85.3728C272.962 85.9878 269.1 82.4928 265.605 84.7353C262.11 86.9778 262.08 88.8978 260.475 88.8978C258.87 88.8978 255.675 87.6153 253.725 88.8978C251.775 90.1803 249.562 91.7853 249.562 91.7853H330.63C330.63 91.7853 331.59 88.8603 328.065 86.9403Z" fill="#FF4F00"/>
<g opacity="0.5">
<path d="M328.065 86.9403C324.548 85.0203 322.943 86.6178 321.66 85.0203C320.378 83.4228 325.185 79.2528 315.577 75.0903C315.577 75.0903 314.932 66.0903 301.8 65.7978C288.667 65.5053 292.193 74.7978 288.668 77.0478C285.143 79.2978 284.167 75.7653 280.657 78.0078C277.147 80.2503 278.737 84.7578 275.85 85.3728C272.962 85.9878 269.1 82.4928 265.605 84.7353C262.11 86.9778 262.08 88.8978 260.475 88.8978C258.87 88.8978 255.675 87.6153 253.725 88.8978C251.775 90.1803 249.562 91.7853 249.562 91.7853H330.63C330.63 91.7853 331.59 88.8603 328.065 86.9403Z" fill="white"/>
</g>
<path d="M268.357 139.499C266.205 138.329 265.222 139.304 264.435 138.329C263.647 137.354 266.595 134.797 260.685 132.254C260.685 132.254 260.295 126.764 252.255 126.569C244.215 126.374 246.375 132.052 244.222 133.424C242.07 134.797 241.477 132.674 239.317 134.017C237.157 135.359 238.14 138.134 236.377 138.517C234.615 138.899 232.26 136.754 230.107 138.127C227.955 139.499 227.947 140.669 226.972 140.669C225.997 140.669 224.032 139.919 222.855 140.669C221.677 141.419 220.305 142.439 220.305 142.439H269.925C269.925 142.439 270.517 140.654 268.357 139.499Z" fill="#FF4F00"/>
<g opacity="0.5">
<path d="M268.357 139.499C266.205 138.329 265.222 139.304 264.435 138.329C263.647 137.354 266.595 134.797 260.685 132.254C260.685 132.254 260.295 126.764 252.255 126.569C244.215 126.374 246.375 132.052 244.222 133.424C242.07 134.797 241.477 132.674 239.317 134.017C237.157 135.359 238.14 138.134 236.377 138.517C234.615 138.899 232.26 136.754 230.107 138.127C227.955 139.499 227.947 140.669 226.972 140.669C225.997 140.669 224.032 139.919 222.855 140.669C221.677 141.419 220.305 142.439 220.305 142.439H269.925C269.925 142.439 270.517 140.654 268.357 139.499Z" fill="white"/>
</g>
<path d="M168.878 182.206C168.878 182.206 167.753 194.018 171.503 203.401C175.253 212.783 176.003 216.151 176.948 220.651C177.637 224.359 177.826 228.143 177.51 231.901C177.323 233.033 176.01 233.033 175.448 231.901C174.885 230.768 173.003 229.651 172.448 227.026C172.101 225.109 171.976 223.159 172.073 221.213C172.073 221.213 168.885 209.393 164.948 201.323C161.01 193.253 160.628 187.253 162.128 184.441C163.628 181.628 166.815 179.386 168.878 182.206Z" fill="white" stroke="#263238" stroke-linecap="round" stroke-linejoin="round"/>
<path d="M149.88 130.186C149.88 130.186 148.897 135.818 145.237 144.541C141.577 153.263 139.185 155.093 139.185 159.878C139.185 164.663 153.12 169.583 164.512 169.306C175.905 169.028 176.617 161.003 174.262 155.236C171.907 149.468 169.62 149.746 169.335 143.131C169.265 138.276 169.641 133.426 170.46 128.641L149.88 130.186Z" fill="#263238" stroke="#263238" stroke-linecap="round" stroke-linejoin="round"/>
<path d="M151.5 134.13C151.5 134.13 150.24 131.595 149.393 133.283C148.545 134.97 148.973 137.363 149.955 138.908C150.264 139.363 150.685 139.732 151.178 139.979C151.67 140.226 152.217 140.342 152.768 140.318C152.768 140.318 151.905 136.943 151.5 134.13Z" fill="white" stroke="#263238" stroke-linecap="round" stroke-linejoin="round"/>
<path d="M170.002 134.55C170.002 134.55 171.975 133.425 171.69 136.095C171.405 138.765 169.44 141.442 168.592 141.585C167.745 141.727 167.467 140.175 167.752 139.755C168.037 139.335 170.002 134.55 170.002 134.55Z" fill="white" stroke="#263238" stroke-linecap="round" stroke-linejoin="round"/>
<path d="M138.06 224.182C138.06 224.182 138.06 224.422 138.06 224.879C138.06 227.129 138.06 234.457 138.81 242.752C139.657 252.742 140.22 256.544 140.22 256.544C140.22 256.544 130.365 263.857 127.41 269.624C124.455 275.392 119.767 284.999 117.097 289.184C114.427 293.369 106.402 297.749 105.982 299.032C105.562 300.314 107.25 300.164 108.652 305.084C110.055 310.004 110.34 312.404 113.152 313.672C115.965 314.939 121.312 314.092 120.885 312.682C120.457 311.272 117.937 310.717 117.937 309.164C117.937 307.612 118.072 301.567 118.072 299.459C118.072 297.352 120.885 294.532 122.017 292.987C123.15 291.442 137.49 276.659 143.827 269.489C150.165 262.319 150.997 258.937 151.987 256.259C152.977 253.582 155.925 230.092 156.202 229.664C156.48 229.237 138.052 224.414 138.052 224.414" fill="white"/>
<path d="M138.06 224.182C138.06 224.182 138.06 224.422 138.06 224.879C138.06 227.129 138.06 234.457 138.81 242.752C139.657 252.742 140.22 256.544 140.22 256.544C140.22 256.544 130.365 263.857 127.41 269.624C124.455 275.392 119.767 284.999 117.097 289.184C114.427 293.369 106.402 297.749 105.982 299.032C105.562 300.314 107.25 300.164 108.652 305.084C110.055 310.004 110.34 312.404 113.152 313.672C115.965 314.939 121.312 314.092 120.885 312.682C120.457 311.272 117.937 310.717 117.937 309.164C117.937 307.612 118.072 301.567 118.072 299.459C118.072 297.352 120.885 294.532 122.017 292.987C123.15 291.442 137.49 276.659 143.827 269.489C150.165 262.319 150.997 258.937 151.987 256.259C152.977 253.582 155.925 230.092 156.202 229.664C156.48 229.237 138.052 224.414 138.052 224.414" stroke="#263238" stroke-linecap="round" stroke-linejoin="round"/>
<path d="M120.892 312.683C120.472 311.28 117.945 310.718 117.945 309.165C117.945 307.613 118.08 301.568 118.08 299.46C118.083 299.299 118.1 299.139 118.132 298.98C117.692 298.968 117.251 298.985 116.812 299.033C114.562 299.318 113.857 301.71 113.857 301.71L111.427 294.668C108.75 296.7 106.215 298.335 105.982 299.033C105.562 300.3 107.25 300.165 108.652 305.085C110.055 310.005 110.34 312.405 113.152 313.673C115.965 314.94 121.32 314.093 120.892 312.683Z" fill="#FF4F00" stroke="#263238" stroke-linecap="round" stroke-linejoin="round"/>
<path d="M113.16 313.674C115.552 314.746 119.782 314.296 120.727 313.269C111.405 314.326 111.922 308.716 110.34 304.104C109.591 301.884 108.394 299.841 106.822 298.104C106.478 298.346 106.192 298.661 105.982 299.026C105.562 300.294 107.25 300.159 108.652 305.079C110.055 309.999 110.34 312.406 113.16 313.674Z" fill="white" stroke="#263238" stroke-linecap="round" stroke-linejoin="round"/>
<path d="M159.45 229.387C159.45 229.387 167.137 249.637 169.252 254.849C171.367 260.062 170.797 258.089 170.235 264.562C169.672 271.034 172.485 281.444 176.145 287.212C179.805 292.979 185.01 299.174 186.277 302.692C187.545 306.209 188.527 310.709 189.652 311.279C190.777 311.849 192.75 311.414 194.857 310.147C196.965 308.879 195.705 307.477 200.632 307.057C205.56 306.637 207.945 300.719 208.65 299.174C209.355 297.629 207.802 297.487 205.972 298.049C204.142 298.612 197.812 300.719 193.732 300.584C189.652 300.449 187.26 288.764 185.152 278.347C183.501 270.035 182.418 261.621 181.912 253.162C181.492 246.974 179.152 231.914 175.77 223.619L159.45 229.387Z" fill="white" stroke="#263238" stroke-linecap="round" stroke-linejoin="round"/>
<path d="M205.972 298.05C204.15 298.612 197.812 300.72 193.732 300.585C193.519 300.576 193.309 300.533 193.11 300.457C193.12 300.594 193.14 300.729 193.17 300.862C193.59 302.835 195 303.817 195.42 303.675C192.755 304.607 189.983 305.199 187.17 305.437C188.04 308.212 188.805 310.852 189.645 311.28C190.77 311.842 192.742 311.415 194.85 310.147C196.957 308.88 195.697 307.477 200.625 307.057C205.552 306.637 207.937 300.72 208.642 299.175C209.347 297.63 207.802 297.487 205.972 298.05Z" fill="#FF4F00" stroke="#263238" stroke-linecap="round" stroke-linejoin="round"/>
<path d="M208.65 299.176C209.002 298.426 208.785 297.976 208.245 297.818C206.895 302.251 202.852 304.861 200.632 305.648C198.24 306.496 197.955 305.791 194.857 308.326C193.122 309.635 190.974 310.276 188.805 310.133C188.969 310.591 189.264 310.99 189.652 311.281C190.777 311.843 192.75 311.416 194.857 310.148C196.965 308.881 195.705 307.478 200.632 307.058C205.56 306.638 207.945 300.751 208.65 299.176Z" fill="white" stroke="#263238" stroke-linecap="round" stroke-linejoin="round"/>
<path d="M141 204.338L135.652 224.88C135.652 224.88 138.187 226.433 144.652 227.273C151.117 228.113 157.177 229.245 157.177 229.245L176.31 222.21L171.105 208.71L141 204.338Z" fill="#263238" stroke="#263238" stroke-linecap="round" stroke-linejoin="round"/>
<path d="M153.96 141.301C153.96 141.301 154.807 148.898 153.54 151.576C152.272 154.253 149.317 153.683 143.835 155.236C138.352 156.788 135.39 161.566 135.952 171.976C136.515 182.386 142.005 196.598 142.005 198.713C142.005 200.828 139.755 210.413 138.765 211.936C137.925 213.203 144.765 217.223 157.342 216.578C173.842 215.738 172.635 212.371 172.252 211.096C171.832 209.686 167.467 199.133 166.905 193.786C166.556 190.891 166.511 187.968 166.77 185.063C166.77 185.063 171.69 182.251 171.975 178.028C172.26 173.806 170.287 170.708 170.002 168.038C169.717 165.368 169.297 160.298 167.61 158.048C165.922 155.798 163.95 155.656 162.967 153.406C161.985 151.156 163.11 145.381 163.11 145.381L153.96 141.301Z" fill="#FF4F00" stroke="#263238" stroke-linecap="round" stroke-linejoin="round"/>
<path d="M147.652 183.699C147.652 183.699 152.152 185.776 159.075 183.354" stroke="#263238" stroke-linecap="round" stroke-linejoin="round"/>
<path d="M146.752 161.52C146.752 161.52 145.8 156.892 140.377 157.312C134.955 157.732 129.75 171.33 126.75 174.277C123.75 177.225 118.582 181.455 118.882 184.972C119.182 188.49 124.132 189.87 126.72 186.157C129.307 182.445 136.177 175.245 136.177 175.245C136.177 175.245 148.905 176.782 146.752 161.52Z" fill="white" stroke="#263238" stroke-linecap="round" stroke-linejoin="round"/>
<path d="M136.192 175.246L142.23 169.051" stroke="#263238" stroke-linecap="round" stroke-linejoin="round"/>
<path d="M158.468 165.931C163.35 165.931 164.13 158.903 164.235 155.101C163.687 154.641 163.253 154.061 162.968 153.406C161.985 151.156 163.11 145.381 163.11 145.381L153.96 141.301C153.96 141.301 154.808 148.898 153.54 151.576C152.648 153.466 150.9 153.736 148.02 154.283C149.67 158.071 153.66 165.931 158.468 165.931Z" fill="white" stroke="#263238" stroke-linecap="round" stroke-linejoin="round"/>
<path d="M150.75 130.613C150.75 130.613 151.17 137.926 152.715 142.568C154.26 147.211 157.08 150.308 160.455 149.888C163.83 149.468 169.882 143.693 170.445 130.748L150.75 130.613Z" fill="white" stroke="#263238" stroke-linecap="round" stroke-linejoin="round"/>
<path d="M150 129.202C150 129.202 152.108 118.927 152.955 117.382C153.803 115.837 158.445 115.132 159.57 115.694C160.695 116.257 161.535 116.819 162.098 116.819C162.66 116.819 165.48 115.132 167.025 116.677C168.57 118.222 171.81 130.612 171.81 130.612C171.81 130.612 170.962 130.889 163.087 130.889C158.667 130.952 154.26 130.383 150 129.202Z" fill="white" stroke="#263238" stroke-linecap="round" stroke-linejoin="round"/>
<path d="M170.025 124.238C163.17 125.738 154.485 124.808 151.072 124.351C150.487 126.923 150.022 129.203 150.022 129.203C154.283 130.385 158.689 130.953 163.11 130.891C170.985 130.891 171.832 130.613 171.832 130.613C171.832 130.613 171 127.501 170.025 124.238Z" fill="#263238" stroke="#263238" stroke-linecap="round" stroke-linejoin="round"/>
<path d="M149.46 130.891L148.35 136.103C153.304 135.129 158.113 133.526 162.66 131.333L149.46 130.891Z" fill="#263238" stroke="#263238" stroke-linecap="round" stroke-linejoin="round"/>
<path d="M168.315 131.663L170.422 134.88C170.422 134.88 172.747 133.11 171.172 131.445C169.597 129.78 168.315 131.663 168.315 131.663Z" fill="#263238" stroke="#263238" stroke-linecap="round" stroke-linejoin="round"/>
<path d="M147.21 129.75C147.89 130.25 148.651 130.631 149.46 130.875C150.585 131.16 170.422 132.562 173.52 132C175.235 131.747 176.844 131.017 178.162 129.892C178.162 129.892 161.662 130.035 154.912 129.33C148.162 128.625 145.485 127.777 145.762 128.34C146.168 128.883 146.656 129.358 147.21 129.75Z" fill="white" stroke="#263238" stroke-linecap="round" stroke-linejoin="round"/>
<path d="M159.93 134.7L159.772 136.2C159.756 136.4 159.699 136.594 159.606 136.771C159.513 136.948 159.386 137.105 159.231 137.232C159.077 137.359 158.898 137.454 158.707 137.511C158.515 137.569 158.314 137.587 158.115 137.565L152.865 137.033C152.476 137 152.116 136.817 151.859 136.523C151.603 136.229 151.472 135.847 151.492 135.458L151.53 134.01C151.529 133.799 151.572 133.59 151.657 133.397C151.742 133.204 151.867 133.031 152.023 132.89C152.18 132.748 152.364 132.641 152.565 132.576C152.765 132.51 152.978 132.488 153.187 132.51L158.572 133.028C158.972 133.075 159.337 133.276 159.591 133.588C159.844 133.901 159.966 134.3 159.93 134.7Z" fill="#263238" stroke="#263238" stroke-linecap="round" stroke-linejoin="round"/>
<path d="M170.025 135.63L169.845 137.092C169.825 137.292 169.766 137.485 169.671 137.662C169.575 137.838 169.445 137.993 169.288 138.118C169.132 138.244 168.952 138.336 168.759 138.39C168.566 138.445 168.364 138.46 168.165 138.435L162.915 137.827C162.531 137.775 162.181 137.582 161.933 137.285C161.684 136.988 161.556 136.609 161.572 136.222L161.632 134.782C161.631 134.569 161.675 134.358 161.761 134.163C161.848 133.969 161.974 133.794 162.133 133.653C162.292 133.511 162.48 133.404 162.683 133.34C162.886 133.277 163.101 133.257 163.312 133.282L168.69 133.882C168.893 133.907 169.09 133.972 169.267 134.074C169.445 134.176 169.601 134.312 169.725 134.475C169.85 134.638 169.94 134.824 169.992 135.022C170.043 135.221 170.054 135.427 170.025 135.63Z" fill="#263238" stroke="#263238" stroke-linecap="round" stroke-linejoin="round"/>
<path d="M161.25 136.988C161.088 137.274 160.995 137.593 160.977 137.921C160.959 138.249 161.016 138.576 161.145 138.878C161.587 139.876 161.475 141.646 160.59 141.646C159.705 141.646 159.367 140.536 159.367 140.536" stroke="#263238" stroke-linecap="round" stroke-linejoin="round"/>
<path d="M157.89 142.756C157.89 142.756 159.33 144.091 162.21 143.423" stroke="#263238" stroke-linecap="round" stroke-linejoin="round"/>
<path d="M159 133.035L163.005 133.358" stroke="#263238" stroke-linecap="round" stroke-linejoin="round"/>
<path d="M135.39 221.648L134.827 226.013L157.477 231.076L157.62 227.273L135.39 221.648Z" fill="white" stroke="#263238" stroke-linecap="round" stroke-linejoin="round"/>
<path d="M157.62 227.273L158.467 231.496L177.742 224.318L176.197 220.381L157.62 227.273Z" fill="white" stroke="#263238" stroke-linecap="round" stroke-linejoin="round"/>
<path d="M157.62 227.273L158.745 220.523" stroke="#263238" stroke-linecap="round" stroke-linejoin="round"/>
<path d="M303.097 270.705C303.097 270.705 307.597 287.588 309.847 292.515C312.097 297.443 314.917 301.658 314.347 303.63C313.777 305.603 311.527 309.683 310.402 309.398C309.277 309.113 308.152 307.71 308.437 305.603C308.722 303.495 310.965 302.085 310.545 300.255C310.125 298.425 306.607 297.015 301.965 290.828C297.322 284.64 294.787 275.768 294.787 275.768L303.097 270.705Z" fill="#263238" stroke="#263238" stroke-linecap="round" stroke-linejoin="round"/>
<path d="M309.135 290.775C308.576 290.884 307.999 290.853 307.455 290.685C304.365 289.703 301.687 283.935 299.58 282.383C298.687 281.73 297.997 282.21 297.495 282.975C298.705 285.748 300.214 288.381 301.995 290.828C306.637 297.015 310.155 298.425 310.575 300.255C310.995 302.085 308.745 303.488 308.467 305.603C308.19 307.718 309.307 309.12 310.432 309.398C311.557 309.675 313.815 305.603 314.377 303.63C314.94 301.658 312.127 297.443 309.877 292.515C309.63 292.035 309.39 291.45 309.135 290.775Z" fill="white" stroke="#263238" stroke-linecap="round" stroke-linejoin="round"/>
<path d="M266.303 274.928C266.303 274.928 265.178 283.508 261.24 287.873C257.303 292.238 249.278 296.318 247.74 299.693C246.203 303.068 246.75 309.825 247.17 310.5C247.59 311.175 250.268 311.49 250.268 313.455C250.268 314.303 249.983 314.865 246.885 314.588C243.788 314.31 243.795 314.16 243.368 310.5C242.94 306.84 242.805 298.125 244.92 295.448C247.035 292.77 250.403 287.708 251.108 281.52C251.813 275.333 255.053 269.843 261.525 270.54C267.998 271.238 266.303 274.928 266.303 274.928Z" fill="white" stroke="#263238" stroke-linecap="round" stroke-linejoin="round"/>
<path d="M308.302 221.88C308.302 221.88 309.007 214.845 309.57 213.157C310.132 211.47 312.667 218.22 313.087 221.317C313.507 224.415 309.847 223.29 309.007 223.147C308.167 223.005 308.302 221.88 308.302 221.88Z" fill="#263238" stroke="#263238" stroke-linecap="round" stroke-linejoin="round"/>
<path d="M284.512 272.625C284.512 272.625 284.797 279.66 284.512 290.07C284.227 300.48 285.922 304.417 286.627 306.247C287.332 308.077 289.155 313.425 289.86 314.13C290.565 314.835 294.082 315.397 294.645 314.13C295.207 312.862 295.492 311.88 294.082 311.317C292.672 310.755 291.975 310.755 291.69 310.327C291.405 309.9 289.155 303.72 290.422 299.64C291.69 295.56 296.475 274.447 296.475 273.885" fill="#263238"/>
<path d="M284.512 272.625C284.512 272.625 284.797 279.66 284.512 290.07C284.227 300.48 285.922 304.417 286.627 306.247C287.332 308.077 289.155 313.425 289.86 314.13C290.565 314.835 294.082 315.397 294.645 314.13C295.207 312.862 295.492 311.88 294.082 311.317C292.672 310.755 291.975 310.755 291.69 310.327C291.405 309.9 289.155 303.72 290.422 299.64C291.69 295.56 296.475 274.447 296.475 273.885" stroke="#263238" stroke-linecap="round" stroke-linejoin="round"/>
<path d="M294.082 311.317C292.672 310.754 291.975 310.754 291.69 310.327C291.405 309.899 289.155 303.719 290.422 299.639C290.535 299.272 290.677 298.769 290.842 298.139C290.069 298.17 289.314 297.902 288.735 297.389C286.2 295.139 288.877 287.542 286.905 282.479C286.155 280.469 285.322 279.967 284.655 280.087C284.655 282.832 284.655 286.222 284.527 290.077C284.25 300.487 285.937 304.424 286.642 306.254C287.347 308.084 289.17 313.432 289.875 314.137C290.58 314.842 294.097 315.404 294.66 314.137C295.222 312.869 295.5 311.879 294.082 311.317Z" fill="white" stroke="#263238" stroke-linecap="round" stroke-linejoin="round"/>
<path d="M307.32 221.46C307.32 221.46 301.125 212.31 300.705 214.282C300.285 216.255 301.687 225.682 301.687 225.682C301.687 225.682 301.41 235.387 294.652 241.297C287.895 247.207 276.082 252 264.967 252.27C253.852 252.54 249.217 252.832 246.217 251.572C243.217 250.312 240.735 249.457 241.012 251.43C241.29 253.402 244.252 256.35 244.252 256.35C244.252 256.35 244.672 270.427 240.172 279.712C235.672 288.997 232.5 289.14 231.75 293.362C231 297.585 230.902 312.352 231.607 313.612C232.312 314.872 235.552 315.3 236.677 314.317C237.802 313.335 237.375 311.782 236.535 310.515C235.695 309.247 234.982 309.112 234.982 308.122C234.982 307.132 235.687 298.837 237.097 296.73C238.507 294.622 250.882 284.062 254.265 279.847C257.647 275.632 258.202 273.51 258.202 273.51C258.202 273.51 269.88 274.357 277.2 276.465C284.52 278.572 291.27 282.232 298.305 277.59C305.34 272.947 309.135 266.34 309.135 258.6C309.135 250.86 309 244.665 309.277 241.71C309.555 238.755 309.42 237.915 311.392 237.21C313.365 236.505 316.597 237.915 320.955 237.067C325.312 236.22 327.292 231.442 327.292 230.032C327.292 228.622 325.042 229.327 321.382 227.64C317.722 225.952 316.597 223.56 313.642 222.292C311.629 221.525 309.464 221.24 307.32 221.46Z" fill="#263238" stroke="#263238" stroke-linecap="round" stroke-linejoin="round"/>
<path d="M327.292 229.994C326.602 230.474 325.327 230.887 321.81 230.887C316.747 230.887 313.792 232.852 310.837 232.574C307.882 232.297 305.625 227.789 303.937 232.432C302.865 235.394 306.712 237.614 309.645 238.829C309.87 238.034 310.312 237.599 311.4 237.217C313.365 236.512 316.605 237.922 320.962 237.074C325.32 236.227 327.3 231.449 327.3 230.039C327.3 230.024 327.292 230.009 327.292 229.994Z" fill="white" stroke="#263238" stroke-linecap="round" stroke-linejoin="round"/>
<path d="M309.142 258.607C309.142 255.697 309.142 253.012 309.142 250.635C308.202 253.465 306.784 256.113 304.95 258.465C298.642 266.79 293.812 274.432 299.572 276.735C305.79 272.152 309.142 265.875 309.142 258.607Z" fill="white" stroke="#263238" stroke-linecap="round" stroke-linejoin="round"/>
<path d="M313.23 226.807C313.231 227.031 313.166 227.251 313.043 227.438C312.919 227.625 312.743 227.771 312.536 227.858C312.329 227.945 312.101 227.969 311.881 227.926C311.661 227.883 311.458 227.776 311.299 227.618C311.14 227.46 311.031 227.258 310.987 227.038C310.943 226.818 310.965 226.59 311.05 226.382C311.136 226.175 311.281 225.998 311.467 225.873C311.654 225.748 311.873 225.682 312.097 225.682C312.396 225.682 312.683 225.8 312.895 226.011C313.108 226.221 313.228 226.508 313.23 226.807Z" fill="white" stroke="#263238" stroke-linecap="round" stroke-linejoin="round"/>
<path d="M301.687 225.683C301.687 225.683 301.687 226.006 301.62 226.568C302.64 227.018 303.615 225.818 304.5 223.853C306.052 220.471 300.705 214.283 300.705 214.283C300.285 216.256 301.687 225.683 301.687 225.683Z" fill="white" stroke="#263238" stroke-linecap="round" stroke-linejoin="round"/>
<path d="M326.033 228.915C326.033 228.915 324.623 228.495 324.623 230.325C324.623 232.155 325.748 233.557 326.738 232.575C327.728 231.592 327.998 229.2 326.033 228.915Z" fill="#263238" stroke="#263238" stroke-linecap="round" stroke-linejoin="round"/>
<path d="M249 285.27C247.494 285.641 245.953 285.852 244.402 285.9C241.642 285.9 239.73 284.108 238.635 282.66C234.945 289.088 232.365 289.643 231.742 293.363C231.037 297.578 230.895 312.353 231.6 313.613C232.305 314.873 235.545 315.3 236.67 314.318C237.795 313.335 237.367 311.783 236.527 310.515C235.687 309.248 234.975 309.113 234.975 308.123C234.975 307.133 235.68 298.838 237.09 296.73C238.065 295.29 244.17 289.89 249 285.27Z" fill="white" stroke="#263238" stroke-linecap="round" stroke-linejoin="round"/>
<path d="M309.668 245.67L294.615 240.458C294.318 240.357 294.072 240.143 293.932 239.862C293.791 239.581 293.767 239.256 293.865 238.958C293.968 238.661 294.182 238.417 294.462 238.277C294.743 238.137 295.067 238.112 295.365 238.208L310.41 243.458C310.705 243.562 310.948 243.776 311.088 244.056C311.228 244.336 311.254 244.659 311.16 244.958C311.05 245.245 310.834 245.479 310.556 245.612C310.278 245.745 309.96 245.765 309.668 245.67Z" fill="white" stroke="#263238" stroke-linecap="round" stroke-linejoin="round"/>
<path d="M128.82 185.25L131.242 189.255C134.615 191.576 137.6 194.416 140.085 197.67C143.662 202.62 147.585 207.255 149.767 208.92C151.95 210.585 156.825 211.343 157.267 212.4C157.71 213.458 156 217.762 155.055 218.925C154.11 220.087 150.742 219.45 148.845 217.763C146.947 216.075 146.422 213.345 144.525 212.183C142.627 211.02 132.75 203.49 129.66 201C128.081 199.719 126.579 198.347 125.16 196.89L128.82 185.25Z" fill="white" stroke="#263238" stroke-linecap="round" stroke-linejoin="round"/>
<path d="M126.36 185.16C128.497 184.837 130.665 184.774 132.818 184.972C135.66 185.355 140.408 190.672 140.978 192.375C141.548 194.077 141.548 197.505 140.978 197.887C140.408 198.27 139.838 195.795 139.838 195.795C139.838 195.795 135.855 196.177 134.145 194.085C132.993 192.604 132.018 190.993 131.243 189.285L126.165 190.5L126.36 185.16Z" fill="white" stroke="#263238" stroke-linecap="round" stroke-linejoin="round"/>
<path d="M115.028 136.755C115.028 136.755 114.923 144.96 113.873 147.382C112.823 149.805 111.45 151.702 108.623 152.437C105.795 153.172 97.8825 153.487 94.62 156.435C91.3575 159.382 96.7275 176.332 98.415 183.81C100.103 191.287 99.75 194.25 98.925 199.5C98.1 204.75 98.925 206.557 102.818 207.922C106.71 209.287 115.238 210.45 119.978 209.82C124.718 209.19 126.293 209.505 126.818 205.92C127.343 202.335 129.983 189.502 130.613 180.022C131.243 170.542 133.035 167.272 130.928 162.772C128.82 158.272 123.03 155.827 122.505 153.93C121.98 152.032 123.45 145.087 123.45 145.087C123.45 145.087 125.453 139.935 122.82 136.882C120.188 133.83 116.4 132.855 115.028 136.755Z" fill="white" stroke="#263238" stroke-linecap="round" stroke-linejoin="round"/>
<path d="M124.305 155.918C124.2 159.338 123.247 164.168 118.612 163.283C112.74 162.143 109.065 154.958 107.992 152.58C104.76 153.225 97.6574 153.683 94.6049 156.435C91.3424 159.383 96.7124 176.333 98.3999 183.81C100.087 191.288 99.7499 194.25 98.9249 199.5C98.0999 204.75 98.9249 206.558 102.817 207.923C106.71 209.288 115.237 210.45 119.977 209.82C124.717 209.19 126.292 209.505 126.817 205.92C127.342 202.335 129.982 189.503 130.612 180.023C131.242 170.543 133.035 167.273 130.927 162.773C129.487 159.66 126.33 157.553 124.305 155.918Z" fill="#FF4F00" stroke="#263238" stroke-linecap="round" stroke-linejoin="round"/>
<path d="M139.882 132.382C139.882 134.062 138.247 136.942 136.222 136.942C134.197 136.942 132.555 134.692 132.555 133.012C132.555 131.332 134.197 129.967 136.222 129.967C138.247 129.967 139.882 130.702 139.882 132.382Z" fill="#263238" stroke="#263238" stroke-linecap="round" stroke-linejoin="round"/>
<path d="M135.66 127.913C135.908 128.519 135.908 129.198 135.66 129.803C135.24 130.756 135.66 133.486 136.088 134.228C136.515 134.971 138.293 137.491 137.588 138.121C136.883 138.751 133.905 138.961 133.905 138.961C133.905 138.961 132.405 146.573 130.313 148.673C128.22 150.773 127.508 150.691 124.313 149.521C120.315 148.021 118.433 140.123 118.433 140.123C117.29 140.288 116.125 140.143 115.058 139.703C113.168 138.953 111.165 135.908 111.795 134.228C112.425 132.548 113.063 132.436 113.063 132.436L112.643 130.328C112.643 130.328 120.638 127.696 127.065 127.381C133.493 127.066 135.66 127.913 135.66 127.913Z" fill="white" stroke="#263238" stroke-linecap="round" stroke-linejoin="round"/>
<path d="M124.282 149.519C127.477 150.689 128.182 150.779 130.282 148.672C132.382 146.564 133.875 138.959 133.875 138.959C132.465 138.728 131.02 138.836 129.66 139.274C127.875 140.024 126.817 143.489 126.817 143.489C126.817 143.489 124.402 142.544 121.98 139.169C119.557 135.794 119.032 135.802 118.717 133.919C118.402 132.037 120.712 132.547 121.98 130.544C123.247 128.542 123.345 128.129 123.345 127.807C123.345 127.807 123.345 127.807 123.307 127.807C119.685 128.394 116.11 129.247 112.612 130.357L113.032 132.464C113.474 132.232 113.977 132.148 114.47 132.224C114.963 132.299 115.418 132.531 115.77 132.884C116.925 134.152 117.765 136.574 118.08 137.834C118.274 138.592 118.382 139.369 118.402 140.152C118.402 140.152 120.285 148.042 124.282 149.519Z" fill="#263238" stroke="#263238" stroke-linecap="round" stroke-linejoin="round"/>
<path d="M132.203 142.988C132.203 142.988 129.84 143.543 129.51 141.488" stroke="white" stroke-linecap="round" stroke-linejoin="round"/>
<path d="M134.43 132.382C134.43 134.062 132.787 136.319 130.762 136.319C128.737 136.319 127.095 134.069 127.095 132.382C127.095 130.694 128.737 129.967 130.762 129.967C132.787 129.967 134.43 130.702 134.43 132.382Z" fill="#263238" stroke="#263238" stroke-linecap="round" stroke-linejoin="round"/>
<path d="M127.095 131.939L115.77 132.854" stroke="#263238" stroke-linecap="round" stroke-linejoin="round"/>
<path d="M134.25 131.49H135.862" stroke="#263238" stroke-linecap="round" stroke-linejoin="round"/>
<path d="M110.4 128.648C110.4 128.648 110.82 118.328 112.717 116.753C114.615 115.178 126.502 112.643 128.61 113.385C130.717 114.128 136.402 125.805 136.402 125.805L110.505 129.488L110.4 128.648Z" fill="white" stroke="#263238" stroke-linecap="round" stroke-linejoin="round"/>
<path d="M134.31 121.733C124.687 121.305 115.56 123.3 110.692 124.65C110.475 126.855 110.4 128.648 110.4 128.648L110.505 129.488L136.402 125.805C136.402 125.805 135.51 123.983 134.31 121.733Z" fill="#263238" stroke="#263238" stroke-linecap="round" stroke-linejoin="round"/>
<path d="M106.927 133.38C106.927 133.38 112.717 130.86 122.61 129.697C132.502 128.535 139.77 128.332 139.77 128.332L141.555 124.642C141.555 124.642 135.24 124.012 122.505 125.805C109.77 127.597 104.505 130.305 104.505 130.305L106.927 133.38Z" fill="white" stroke="#263238" stroke-linecap="round" stroke-linejoin="round"/>
<path d="M100.822 153.698C100.822 153.698 95.3474 153.488 92.5049 156.541C89.6624 159.593 80.7149 186.653 79.1324 189.811C77.5499 192.968 79.8824 225.601 80.1824 228.128C80.4824 230.656 80.6099 235.921 81.7649 237.181C82.9199 238.441 85.6574 240.863 86.6099 240.548C87.5624 240.233 87.0299 239.918 86.5049 239.048C85.8968 237.692 85.6069 236.214 85.6574 234.728C85.7485 233.465 86.0344 232.222 86.5049 231.046C86.5049 231.046 86.8199 235.463 87.1349 236.101C87.4499 236.738 88.3949 237.361 88.4999 235.786C88.6049 234.211 87.9749 235.148 88.9199 231.781C89.8649 228.413 85.2374 225.466 85.1699 220.306C85.1024 215.146 87.4874 202.411 87.4874 197.056C87.4874 191.701 86.7374 189.796 86.7374 189.796L100.312 166.741" fill="#FF4F00"/>
<path d="M100.822 153.698C100.822 153.698 95.3474 153.488 92.5049 156.541C89.6624 159.593 80.7149 186.653 79.1324 189.811C77.5499 192.968 79.8824 225.601 80.1824 228.128C80.4824 230.656 80.6099 235.921 81.7649 237.181C82.9199 238.441 85.6574 240.863 86.6099 240.548C87.5624 240.233 87.0299 239.918 86.5049 239.048C85.8968 237.692 85.6069 236.214 85.6574 234.728C85.7485 233.465 86.0344 232.222 86.5049 231.046C86.5049 231.046 86.8199 235.463 87.1349 236.101C87.4499 236.738 88.3949 237.361 88.4999 235.786C88.6049 234.211 87.9749 235.148 88.9199 231.781C89.8649 228.413 85.2374 225.466 85.1699 220.306C85.1024 215.146 87.4874 202.411 87.4874 197.056C87.4874 191.701 86.7374 189.796 86.7374 189.796L100.312 166.741" stroke="#263238" stroke-linecap="round" stroke-linejoin="round"/>
<path d="M85.3274 173.189C82.5449 180.689 79.9199 188.234 79.1324 189.809C77.5574 192.967 79.8824 225.599 80.1824 228.127C80.4824 230.654 80.6099 235.919 81.7649 237.179C82.9199 238.439 85.6574 240.862 86.6099 240.547C87.5624 240.232 87.0299 239.917 86.5049 239.047C85.8968 237.69 85.6069 236.213 85.6574 234.727C85.7486 233.463 86.0344 232.221 86.5049 231.044C86.5049 231.044 86.8199 235.462 87.1349 236.099C87.4499 236.737 88.3949 237.359 88.4999 235.784C88.6049 234.209 87.9749 235.147 88.9199 231.779C89.8649 228.412 85.2374 225.464 85.1699 220.304C85.1024 215.144 87.4874 202.409 87.4874 197.054C87.4874 191.699 86.7374 189.794 86.7374 189.794L93.9674 177.517C91.6199 176.302 87.8924 174.449 85.3274 173.189Z" fill="white" stroke="#263238" stroke-linecap="round" stroke-linejoin="round"/>
<path d="M154.972 213.75C154.972 213.75 227.812 240.255 293.79 239.445" stroke="#263238" stroke-linecap="round" stroke-linejoin="round"/>
<path d="M155.347 211.597C155.347 211.597 154.927 216.757 154.087 217.807C153.247 218.857 152.4 219.18 152.4 218.017C152.4 216.855 152.61 214.335 152.61 214.335C152.61 214.335 150.825 216.127 149.662 214.23C148.5 212.332 148.612 211.492 148.612 211.492" stroke="#263238" stroke-linecap="round" stroke-linejoin="round"/>
<path d="M152.085 214.756C152.085 214.756 150.825 217.808 151.14 219.181" stroke="#263238" stroke-linecap="round" stroke-linejoin="round"/>
<path d="M152.925 219.496C152.925 219.496 153.135 236.446 152.085 238.996C151.035 241.546 148.612 241.838 147.772 238.891C146.932 235.943 151.875 219.391 151.875 219.391" stroke="#263238" stroke-linecap="round" stroke-linejoin="round"/>
<path d="M153.75 219.6C153.75 219.6 155.25 233.497 154.17 236.97C153.09 240.442 150.802 239.497 150.802 234.337C150.802 229.177 152.377 219.6 152.377 219.6H153.75Z" stroke="#263238" stroke-linecap="round" stroke-linejoin="round"/>
<path d="M98.8199 202.545C98.8199 202.545 95.9774 205.072 95.0699 213.795C94.7294 216.315 94.9148 218.878 95.6144 221.323C96.3141 223.768 97.5128 226.041 99.1349 228C99.6599 228.84 105.03 234.21 105.03 234.21L109.875 256.635C109.875 256.635 99.2399 264.525 93.3749 274.005C90.0449 279.352 81.5849 285.48 79.7924 286.425C77.9999 287.37 77.9024 287.925 76.5299 287.175C75.1574 286.425 71.6924 284.122 70.7399 285.915C69.7874 287.707 69.7949 292.965 68.9549 294.232C67.7161 295.883 66.9839 297.858 66.8474 299.917C66.6374 302.76 66.5324 310.125 67.4774 309.81C68.4224 309.495 71.7974 302.542 76.1099 298.755C80.4224 294.967 92.3249 286.005 97.0574 282.442C101.79 278.88 113.377 273.172 119.062 267.592C124.747 262.012 127.17 258.015 127.17 255.592C127.17 253.17 126.42 229.695 126.42 224.092C126.42 218.49 126.945 207.982 126.945 206.722V204.51C126.945 204.51 121.477 206.722 111.367 205.035C101.257 203.347 98.8199 202.545 98.8199 202.545Z" fill="white" stroke="#263238" stroke-linecap="round" stroke-linejoin="round"/>
<path d="M111.345 205.072C101.242 203.385 98.8198 202.545 98.8198 202.545C98.8198 202.545 95.9773 205.072 95.0698 213.795C94.7293 216.315 94.9147 218.878 95.6143 221.323C96.314 223.768 97.5127 226.041 99.1348 228C99.6598 228.84 105.03 234.21 105.03 234.21L106.845 242.61C110.021 241.318 113.423 240.671 116.852 240.707C120.281 240.743 123.669 241.461 126.817 242.82C126.615 235.462 126.397 227.137 126.397 224.07C126.397 218.49 126.922 207.96 126.922 206.7V204.487C126.922 204.487 121.455 206.76 111.345 205.072Z" fill="#263238" stroke="#263238" stroke-linecap="round" stroke-linejoin="round"/>
<path d="M99.345 224.759C99.345 224.759 103.657 238.657 108 245.999C112.342 253.342 119.58 259.792 120.75 263.684C121.92 267.577 119.91 274.109 122.542 280.934C125.175 287.759 135.292 303.149 136.23 305.992C137.167 308.834 139.072 314.624 140.332 314.729C141.592 314.834 157.387 304.829 158.332 303.989C159.277 303.149 157.177 302.834 155.805 303.044C154.432 303.254 143.805 304.199 143.055 303.989C142.305 303.779 141.367 301.777 140.737 300.202C140.107 298.627 134.737 275.249 131.895 267.352C129.052 259.454 128.632 250.102 127.477 245.459C126.322 240.817 122.842 227.144 117.577 219.877" fill="#263238"/>
<path d="M99.345 224.759C99.345 224.759 103.657 238.657 108 245.999C112.342 253.342 119.58 259.792 120.75 263.684C121.92 267.577 119.91 274.109 122.542 280.934C125.175 287.759 135.292 303.149 136.23 305.992C137.167 308.834 139.072 314.624 140.332 314.729C141.592 314.834 157.387 304.829 158.332 303.989C159.277 303.149 157.177 302.834 155.805 303.044C154.432 303.254 143.805 304.199 143.055 303.989C142.305 303.779 141.367 301.777 140.737 300.202C140.107 298.627 134.737 275.249 131.895 267.352C129.052 259.454 128.632 250.102 127.477 245.459C126.322 240.817 122.842 227.144 117.577 219.877" stroke="white" stroke-linecap="round" stroke-linejoin="round"/>
<path d="M155.767 303.082C154.402 303.292 143.767 304.237 143.017 304.027C142.267 303.817 141.33 301.814 140.7 300.239C140.07 298.664 134.7 275.287 131.857 267.389C129.015 259.492 128.595 250.139 127.44 245.497C127.177 244.469 126.81 242.992 126.33 241.237C119.827 240.929 113.358 242.347 107.58 245.347C107.715 245.572 107.842 245.804 107.97 246.022C112.282 253.394 119.55 259.814 120.72 263.707C121.89 267.599 119.88 274.132 122.512 280.957C125.145 287.782 135.262 303.172 136.2 306.014C137.137 308.857 139.042 314.647 140.302 314.752C141.562 314.857 157.357 304.852 158.302 304.012C159.247 303.172 157.14 302.872 155.767 303.082Z" fill="white" stroke="#263238" stroke-linecap="round" stroke-linejoin="round"/>
<path d="M155.768 303.083C154.508 303.27 145.388 304.095 143.385 304.058C143.201 304.227 143.055 304.433 142.958 304.664C142.861 304.894 142.815 305.143 142.823 305.393C142.816 306.004 142.923 306.612 143.138 307.185C143.138 307.185 139.83 308.94 137.603 310.095C138.495 312.465 139.515 314.7 140.295 314.768C141.555 314.873 157.35 304.868 158.295 304.028C159.24 303.188 157.14 302.873 155.768 303.083Z" fill="#FF4F00" stroke="#263238" stroke-linecap="round" stroke-linejoin="round"/>
<path d="M77.8724 295.29C76.3724 292.972 74.8199 293.497 74.8199 293.497L77.7074 287.497C77.2787 287.521 76.854 287.403 76.4999 287.16C75.1349 286.41 71.6624 284.107 70.7099 285.9C69.7574 287.692 69.7649 292.95 68.9249 294.217C67.6861 295.868 66.9538 297.843 66.8174 299.902C66.6074 302.745 66.5024 310.11 67.4474 309.795C68.3924 309.48 71.7674 302.527 76.0799 298.74C76.7699 298.132 77.6624 297.39 78.6899 296.557L77.8724 295.29Z" fill="#FF4F00" stroke="#263238" stroke-linecap="round" stroke-linejoin="round"/>
<path d="M121.027 225.285L124.507 220.02" stroke="white" stroke-linecap="round" stroke-linejoin="round"/>
<path d="M35.7151 314.805H349.095" stroke="#263238" stroke-linecap="round" stroke-linejoin="round"/>
</svg>
