<svg width="375" height="375" viewBox="0 0 375 375" fill="none" xmlns="http://www.w3.org/2000/svg">
<path d="M223.905 68.8659C190.23 88.0884 194.932 125.198 180.405 135.053C156.292 151.501 121.372 123.443 83.9999 130.441C59.3024 135.076 37.9874 168.001 44.1899 205.598C54.8924 270.488 97.4399 280.298 134.64 270.316C172.972 260.033 204.48 237.616 242.242 225.421C265.582 217.883 285.675 222.961 321.24 207.038C362.662 188.498 346.702 125.393 333.495 102.691C322.732 84.2034 287.287 32.6709 223.905 68.8659Z" fill="#FF4F00"/>
<path opacity="0.7" d="M223.905 68.8659C190.23 88.0884 194.932 125.198 180.405 135.053C156.292 151.501 121.372 123.443 83.9999 130.441C59.3024 135.076 37.9874 168.001 44.1899 205.598C54.8924 270.488 97.4399 280.298 134.64 270.316C172.972 260.033 204.48 237.616 242.242 225.421C265.582 217.883 285.675 222.961 321.24 207.038C362.662 188.498 346.702 125.393 333.495 102.691C322.732 84.2034 287.287 32.6709 223.905 68.8659Z" fill="white"/>
<path d="M279.795 316.214C316.126 316.214 345.577 309.589 345.577 301.417C345.577 293.244 316.126 286.619 279.795 286.619C243.464 286.619 214.012 293.244 214.012 301.417C214.012 309.589 243.464 316.214 279.795 316.214Z" fill="#FF4F00"/>
<path d="M198.413 300.48C231.123 300.48 257.64 294.516 257.64 287.16C257.64 279.803 231.123 273.84 198.413 273.84C165.702 273.84 139.185 279.803 139.185 287.16C139.185 294.516 165.702 300.48 198.413 300.48Z" fill="#FF4F00"/>
<path d="M153.653 291H35.3025C33.2358 291 31.2538 290.179 29.7924 288.717C28.331 287.256 27.51 285.274 27.51 283.207H153.653V291Z" fill="#FF4F00"/>
<path d="M35.415 269.152H345.585" stroke="#263238" stroke-linecap="round" stroke-linejoin="round"/>
<path d="M75.6526 269.152H145.8V160.837H75.6526L75.6526 269.152Z" fill="#FF4F00"/>
<mask id="mask0_321_11" style="mask-type:luminance" maskUnits="userSpaceOnUse" x="75" y="160" width="71" height="110">
<path d="M75.6523 269.152H145.8V160.837H75.6523L75.6523 269.152Z" fill="white"/>
</mask>
<g mask="url(#mask0_321_11)">
<path opacity="0.7" d="M75.6523 269.152H145.8V160.837H75.6523L75.6523 269.152Z" fill="white"/>
</g>
<path d="M75.6526 269.152H145.8V160.837H75.6526L75.6526 269.152Z" stroke="#263238" stroke-linecap="round" stroke-linejoin="round"/>
<path d="M60.1273 269.152H75.6523L75.6523 160.837H60.1273L60.1273 269.152Z" fill="#FF4F00"/>
<mask id="mask1_321_11" style="mask-type:luminance" maskUnits="userSpaceOnUse" x="60" y="160" width="16" height="110">
<path d="M60.1273 269.152H75.6523L75.6523 160.837H60.1273L60.1273 269.152Z" fill="white"/>
</mask>
<g mask="url(#mask1_321_11)">
<path opacity="0.3" d="M60.1273 269.152H75.6523L75.6523 160.837H60.1273L60.1273 269.152Z" fill="white"/>
</g>
<path d="M60.1273 269.152H75.6523L75.6523 160.837H60.1273L60.1273 269.152Z" stroke="#263238" stroke-linecap="round" stroke-linejoin="round"/>
<path d="M80.9324 195.18H140.1V168.877H80.9324V195.18Z" fill="#FF4F00"/>
<mask id="mask2_321_11" style="mask-type:luminance" maskUnits="userSpaceOnUse" x="80" y="168" width="61" height="28">
<path d="M80.9324 195.18H140.1V168.877H80.9324V195.18Z" fill="white"/>
</mask>
<g mask="url(#mask2_321_11)">
<path opacity="0.5" d="M80.9324 195.18H140.1V168.877H80.9324V195.18Z" fill="white"/>
</g>
<path d="M80.9324 195.18H140.1V168.877H80.9324V195.18Z" stroke="#263238" stroke-linecap="round" stroke-linejoin="round"/>
<path d="M80.9324 224.355H140.1V198.053H80.9324V224.355Z" fill="#FF4F00"/>
<mask id="mask3_321_11" style="mask-type:luminance" maskUnits="userSpaceOnUse" x="80" y="198" width="61" height="27">
<path d="M80.9324 224.355H140.1V198.053H80.9324V224.355Z" fill="white"/>
</mask>
<g mask="url(#mask3_321_11)">
<path opacity="0.5" d="M80.9324 224.355H140.1V198.053H80.9324V224.355Z" fill="white"/>
</g>
<path d="M80.9324 224.355H140.1V198.053H80.9324V224.355Z" stroke="#263238" stroke-linecap="round" stroke-linejoin="round"/>
<path d="M80.9324 253.531H140.1V227.229H80.9324V253.531Z" fill="#FF4F00"/>
<mask id="mask4_321_11" style="mask-type:luminance" maskUnits="userSpaceOnUse" x="80" y="227" width="61" height="27">
<path d="M80.9324 253.531H140.1V227.229H80.9324V253.531Z" fill="white"/>
</mask>
<g mask="url(#mask4_321_11)">
<path opacity="0.5" d="M80.9324 253.531H140.1V227.229H80.9324V253.531Z" fill="white"/>
</g>
<path d="M80.9324 253.531H140.1V227.229H80.9324V253.531Z" stroke="#263238" stroke-linecap="round" stroke-linejoin="round"/>
<path d="M127.8 182.722L123.637 177.93H109.905L104.767 182.587L96.9448 183.525L90.1948 186.525L90.6523 189.637C90.7403 190.223 91.0353 190.758 91.484 191.144C91.9326 191.531 92.505 191.744 93.0973 191.745H95.9173C95.8934 191.181 95.9839 190.618 96.1832 190.09C96.3826 189.561 96.6867 189.079 97.0774 188.672C97.468 188.264 97.937 187.94 98.4562 187.718C98.9754 187.497 99.5341 187.383 100.099 187.383C100.663 187.383 101.222 187.497 101.741 187.718C102.26 187.94 102.729 188.264 103.12 188.672C103.51 189.079 103.815 189.561 104.014 190.09C104.213 190.618 104.304 191.181 104.28 191.745H120.48C120.48 190.635 120.921 189.57 121.706 188.785C122.49 188.001 123.555 187.56 124.665 187.56C125.775 187.56 126.839 188.001 127.624 188.785C128.409 189.57 128.85 190.635 128.85 191.745H129.172L132.87 189.33V185.437C132.87 185.084 132.8 184.733 132.665 184.407C132.53 184.08 132.331 183.783 132.081 183.533C131.831 183.283 131.534 183.085 131.208 182.95C130.881 182.814 130.531 182.745 130.177 182.745L127.8 182.722Z" fill="white" stroke="#263238" stroke-linecap="round" stroke-linejoin="round"/>
<path d="M113.1 183.217L114.142 178.867H108.877L104.767 182.595L104.295 183.217H113.1Z" fill="#FF4F00" stroke="#263238" stroke-linecap="round" stroke-linejoin="round"/>
<path d="M122.655 178.867H115.725L114.682 183.217H124.147L125.085 181.815L122.655 178.867Z" fill="#FF4F00" stroke="#263238" stroke-linecap="round" stroke-linejoin="round"/>
<path d="M103.5 191.722C103.5 192.384 103.304 193.03 102.936 193.58C102.569 194.13 102.046 194.559 101.435 194.812C100.824 195.065 100.151 195.132 99.5025 195.003C98.8536 194.874 98.2576 194.555 97.7898 194.087C97.322 193.619 97.0034 193.023 96.8743 192.375C96.7453 191.726 96.8115 191.053 97.0647 190.442C97.3179 189.831 97.7466 189.308 98.2967 188.941C98.8468 188.573 99.4935 188.377 100.155 188.377C101.042 188.377 101.893 188.729 102.52 189.357C103.148 189.984 103.5 190.835 103.5 191.722Z" fill="#263238" stroke="#263238" stroke-linecap="round" stroke-linejoin="round"/>
<path d="M101.452 191.723C101.452 191.989 101.373 192.249 101.226 192.47C101.078 192.691 100.868 192.863 100.622 192.964C100.376 193.066 100.106 193.092 99.8451 193.04C99.5845 192.987 99.3453 192.858 99.1579 192.67C98.9704 192.481 98.8432 192.242 98.7922 191.981C98.7413 191.72 98.7689 191.45 98.8717 191.204C98.9745 190.959 99.1477 190.75 99.3694 190.603C99.5912 190.457 99.8515 190.379 100.117 190.381C100.293 190.381 100.467 190.416 100.63 190.483C100.792 190.551 100.94 190.65 101.064 190.775C101.188 190.899 101.286 191.047 101.353 191.21C101.42 191.373 101.453 191.547 101.452 191.723Z" fill="#FF4F00" stroke="#263238" stroke-linecap="round" stroke-linejoin="round"/>
<path d="M128.025 191.722C128.025 192.384 127.829 193.03 127.461 193.58C127.094 194.13 126.571 194.559 125.96 194.812C125.349 195.065 124.676 195.132 124.027 195.003C123.379 194.874 122.783 194.555 122.315 194.087C121.847 193.619 121.528 193.023 121.399 192.375C121.27 191.726 121.336 191.053 121.59 190.442C121.843 189.831 122.272 189.308 122.822 188.941C123.372 188.573 124.018 188.377 124.68 188.377C125.567 188.377 126.418 188.729 127.045 189.357C127.673 189.984 128.025 190.835 128.025 191.722Z" fill="#263238" stroke="#263238" stroke-linecap="round" stroke-linejoin="round"/>
<path d="M126 191.723C126 191.989 125.921 192.249 125.773 192.47C125.625 192.691 125.415 192.863 125.169 192.964C124.924 193.066 124.653 193.092 124.393 193.04C124.132 192.987 123.893 192.858 123.705 192.67C123.518 192.481 123.391 192.242 123.34 191.981C123.289 191.72 123.317 191.45 123.419 191.204C123.522 190.959 123.695 190.75 123.917 190.603C124.139 190.457 124.399 190.379 124.665 190.381C124.841 190.381 125.015 190.416 125.178 190.483C125.34 190.551 125.488 190.65 125.612 190.775C125.736 190.899 125.834 191.047 125.9 191.21C125.967 191.373 126.001 191.547 126 191.723Z" fill="#FF4F00" stroke="#263238" stroke-linecap="round" stroke-linejoin="round"/>
<path d="M90.21 186.502L90.51 188.505L91.6125 187.545C91.8828 187.312 92.1769 187.109 92.49 186.937L92.865 186.72C93.8229 186.177 94.5903 185.352 95.0625 184.357L90.21 186.502Z" fill="#FF4F00" stroke="#263238" stroke-linecap="round" stroke-linejoin="round"/>
<path d="M131.512 242.251L129.592 243.211L125.295 243.076C125.295 243.076 118.777 237.826 113.092 237.826H111C109.576 237.83 108.19 238.284 107.04 239.124L101.602 243.099C101.602 243.099 93.4199 242.821 91.6199 247.119L90.9299 250.869H95.9999V250.276C95.9999 249.282 96.395 248.328 97.0983 247.625C97.8015 246.921 98.7554 246.526 99.7499 246.526C100.744 246.526 101.698 246.921 102.402 247.625C103.105 248.328 103.5 249.282 103.5 250.276V250.869H117.847V250.276C117.847 249.282 118.243 248.328 118.946 247.625C119.649 246.921 120.603 246.526 121.597 246.526C122.592 246.526 123.546 246.921 124.249 247.625C124.952 248.328 125.347 249.282 125.347 250.276V250.869H127.425L132.165 242.926C132.209 242.883 132.245 242.832 132.269 242.776C132.294 242.719 132.307 242.658 132.308 242.597C132.309 242.535 132.298 242.474 132.275 242.416C132.253 242.359 132.219 242.307 132.176 242.262C132.133 242.218 132.082 242.183 132.026 242.158C131.969 242.134 131.908 242.12 131.847 242.119C131.785 242.118 131.724 242.129 131.666 242.152C131.609 242.175 131.557 242.208 131.512 242.251Z" fill="white" stroke="#263238" stroke-linecap="round" stroke-linejoin="round"/>
<path d="M102.75 250.26C102.75 250.853 102.574 251.433 102.244 251.926C101.915 252.42 101.446 252.804 100.898 253.031C100.35 253.258 99.7467 253.318 99.1647 253.202C98.5828 253.086 98.0482 252.801 97.6287 252.381C97.2091 251.962 96.9234 251.427 96.8076 250.845C96.6919 250.263 96.7513 249.66 96.9784 249.112C97.2054 248.564 97.5899 248.095 98.0833 247.765C98.5766 247.436 99.1567 247.26 99.75 247.26C100.546 247.26 101.309 247.576 101.871 248.138C102.434 248.701 102.75 249.464 102.75 250.26Z" fill="#FF4F00" stroke="#263238" stroke-linecap="round" stroke-linejoin="round"/>
<path d="M101.512 250.261C101.514 250.618 101.41 250.966 101.213 251.263C101.016 251.56 100.735 251.792 100.406 251.93C100.078 252.067 99.7155 252.104 99.3658 252.035C99.0161 251.966 98.6947 251.796 98.4422 251.544C98.1897 251.293 98.0176 250.972 97.9475 250.623C97.8774 250.273 97.9126 249.911 98.0486 249.582C98.1847 249.252 98.4154 248.971 98.7115 248.773C99.0077 248.575 99.356 248.469 99.7123 248.469C99.9484 248.468 100.182 248.513 100.401 248.603C100.619 248.693 100.817 248.825 100.985 248.991C101.152 249.158 101.285 249.356 101.375 249.574C101.466 249.792 101.512 250.025 101.512 250.261Z" fill="#FF4F00" stroke="#263238" stroke-linecap="round" stroke-linejoin="round"/>
<path d="M124.545 250.26C124.545 250.853 124.369 251.433 124.039 251.926C123.71 252.42 123.241 252.804 122.693 253.031C122.145 253.258 121.542 253.318 120.96 253.202C120.378 253.086 119.843 252.801 119.424 252.381C119.004 251.962 118.718 251.427 118.603 250.845C118.487 250.263 118.546 249.66 118.773 249.112C119 248.564 119.385 248.095 119.878 247.765C120.372 247.436 120.952 247.26 121.545 247.26C122.341 247.26 123.104 247.576 123.666 248.138C124.229 248.701 124.545 249.464 124.545 250.26Z" fill="#FF4F00" stroke="#263238" stroke-linecap="round" stroke-linejoin="round"/>
<path d="M123.345 250.261C123.346 250.618 123.242 250.967 123.045 251.264C122.847 251.561 122.566 251.793 122.237 251.93C121.908 252.067 121.545 252.104 121.196 252.035C120.846 251.965 120.524 251.794 120.272 251.542C120.02 251.289 119.848 250.968 119.779 250.618C119.71 250.268 119.746 249.906 119.883 249.576C120.02 249.247 120.252 248.966 120.55 248.769C120.847 248.572 121.196 248.467 121.552 248.469C122.028 248.469 122.484 248.658 122.82 248.994C123.156 249.33 123.345 249.786 123.345 250.261Z" fill="#FF4F00" stroke="#263238" stroke-linecap="round" stroke-linejoin="round"/>
<path d="M91.605 247.111V247.269H92.7C93.022 247.267 93.3349 247.162 93.5925 246.969L95.7075 245.379C95.8062 245.306 95.8792 245.204 95.916 245.087C95.9528 244.97 95.9515 244.845 95.9122 244.728C95.873 244.612 95.7978 244.512 95.6977 244.441C95.5975 244.371 95.4775 244.334 95.355 244.336H94.605C93.2896 244.848 92.2175 245.84 91.605 247.111Z" fill="#FF4F00" stroke="#263238" stroke-linecap="round" stroke-linejoin="round"/>
<path d="M111.75 243.75L125.25 243.105C125.25 243.105 118.732 237.855 113.047 237.855H111.127C111.62 238.747 111.929 239.727 112.036 240.74C112.143 241.752 112.046 242.776 111.75 243.75Z" fill="#263238" stroke="#263238" stroke-linecap="round" stroke-linejoin="round"/>
<path d="M110.137 243.811C110.552 242.873 110.709 241.842 110.593 240.823C110.477 239.804 110.092 238.834 109.477 238.014C108.593 238.21 107.759 238.586 107.025 239.116L101.587 243.091L109.725 243.841L110.137 243.811Z" fill="#263238" stroke="#263238" stroke-linecap="round" stroke-linejoin="round"/>
<path d="M131.512 212.677L129.592 213.644L125.295 213.502C125.295 213.502 118.777 208.252 113.092 208.252H111C109.577 208.254 108.191 208.705 107.04 209.542L101.602 213.517C101.602 213.517 93.4199 213.239 91.6199 217.537L90.9299 221.287H95.9999V220.702C95.9999 219.707 96.395 218.754 97.0983 218.05C97.8015 217.347 98.7554 216.952 99.7499 216.952C100.744 216.952 101.698 217.347 102.402 218.05C103.105 218.754 103.5 219.707 103.5 220.702V221.249H117.847V220.664C117.847 219.67 118.243 218.716 118.946 218.013C119.649 217.31 120.603 216.914 121.597 216.914C122.592 216.914 123.546 217.31 124.249 218.013C124.952 218.716 125.347 219.67 125.347 220.664V221.249H127.425L132.165 213.307C132.231 213.218 132.262 213.108 132.253 212.997C132.243 212.887 132.194 212.783 132.115 212.706C132.035 212.629 131.93 212.584 131.819 212.578C131.708 212.573 131.599 212.608 131.512 212.677Z" fill="#FF4F00" stroke="#263238" stroke-linecap="round" stroke-linejoin="round"/>
<path d="M102.75 220.68C102.75 221.273 102.574 221.853 102.244 222.346C101.915 222.84 101.446 223.224 100.898 223.451C100.35 223.678 99.7467 223.738 99.1647 223.622C98.5828 223.506 98.0482 223.221 97.6287 222.801C97.2091 222.381 96.9234 221.847 96.8076 221.265C96.6919 220.683 96.7513 220.08 96.9784 219.532C97.2054 218.983 97.5899 218.515 98.0833 218.185C98.5766 217.856 99.1567 217.68 99.75 217.68C100.546 217.68 101.309 217.996 101.871 218.558C102.434 219.121 102.75 219.884 102.75 220.68Z" fill="#263238" stroke="#263238" stroke-linecap="round" stroke-linejoin="round"/>
<path d="M101.512 220.681C101.512 221.037 101.407 221.385 101.209 221.681C101.011 221.977 100.73 222.208 100.401 222.344C100.072 222.48 99.7104 222.516 99.3612 222.446C99.012 222.377 98.6913 222.205 98.4396 221.954C98.1878 221.702 98.0164 221.381 97.9469 221.032C97.8775 220.683 97.9131 220.321 98.0494 219.992C98.1856 219.663 98.4163 219.382 98.7123 219.184C99.0083 218.986 99.3563 218.881 99.7124 218.881C99.949 218.88 100.184 218.926 100.402 219.016C100.621 219.106 100.82 219.239 100.987 219.406C101.155 219.573 101.287 219.772 101.377 219.991C101.467 220.21 101.513 220.444 101.512 220.681Z" fill="white" stroke="#263238" stroke-linecap="round" stroke-linejoin="round"/>
<path d="M124.545 220.68C124.545 221.273 124.369 221.853 124.039 222.346C123.71 222.84 123.241 223.224 122.693 223.451C122.145 223.678 121.542 223.738 120.96 223.622C120.378 223.506 119.843 223.221 119.424 222.801C119.004 222.381 118.718 221.847 118.603 221.265C118.487 220.683 118.546 220.08 118.773 219.532C119 218.983 119.385 218.515 119.878 218.185C120.372 217.856 120.952 217.68 121.545 217.68C122.341 217.68 123.104 217.996 123.666 218.558C124.229 219.121 124.545 219.884 124.545 220.68Z" fill="#263238" stroke="#263238" stroke-linecap="round" stroke-linejoin="round"/>
<path d="M123.345 220.681C123.345 221.037 123.239 221.386 123.041 221.682C122.843 221.978 122.561 222.209 122.232 222.345C121.903 222.481 121.54 222.516 121.191 222.446C120.842 222.376 120.521 222.203 120.269 221.951C120.018 221.699 119.847 221.377 119.779 221.027C119.71 220.678 119.747 220.316 119.884 219.987C120.021 219.658 120.253 219.377 120.55 219.181C120.847 218.984 121.196 218.879 121.552 218.881C121.788 218.881 122.022 218.927 122.24 219.018C122.458 219.109 122.656 219.241 122.823 219.409C122.989 219.576 123.121 219.774 123.211 219.993C123.3 220.211 123.346 220.445 123.345 220.681Z" fill="white" stroke="#263238" stroke-linecap="round" stroke-linejoin="round"/>
<path d="M117.81 221.251V220.666C117.81 220.554 117.81 220.441 117.81 220.336C114.165 218.401 117.158 215.326 117.158 215.326C113.903 215.664 114.45 218.671 111.518 218.469C108.585 218.266 111.518 215.289 111.518 215.289C108.518 215.026 107.663 219.084 105.855 218.394C104.048 217.704 104.678 215.896 106.898 215.274C109.118 214.651 109.148 212.184 109.148 212.184L104.378 211.434L101.588 213.466C101.588 213.466 93.405 213.189 91.605 217.486L90.915 221.236H96V220.651C96 219.657 96.3951 218.703 97.0984 217.999C97.8016 217.296 98.7555 216.901 99.75 216.901C100.745 216.901 101.698 217.296 102.402 217.999C103.105 218.703 103.5 219.657 103.5 220.651V221.251H117.81Z" fill="white" stroke="#263238" stroke-linecap="round" stroke-linejoin="round"/>
<path d="M118.17 210.961C117.908 209.903 115.088 209.821 114.015 209.656C111.63 209.516 109.238 209.516 106.853 209.656L101.603 213.503H115.635C115.635 213.503 118.388 211.831 118.17 210.961Z" fill="#263238" stroke="#263238" stroke-linecap="round" stroke-linejoin="round"/>
<path d="M91.605 217.5V217.665H92.7C93.022 217.663 93.3349 217.558 93.5925 217.365L95.7075 215.775C95.8062 215.702 95.8792 215.6 95.916 215.483C95.9528 215.367 95.9515 215.241 95.9122 215.125C95.873 215.009 95.7978 214.908 95.6977 214.838C95.5975 214.767 95.4775 214.73 95.355 214.733H94.605C93.2885 215.239 92.2153 216.229 91.605 217.5Z" fill="#FF4F00" stroke="#263238" stroke-linecap="round" stroke-linejoin="round"/>
<path d="M241.643 150.54L241.86 154.118C241.86 154.118 242.985 158.363 241.26 157.988L239.385 153.675L239.453 150.518L241.643 150.54Z" fill="#858585" stroke="#263238" stroke-linecap="round" stroke-linejoin="round"/>
<path d="M249.81 157.005L248.438 157.935L245.13 158.265C245.13 158.265 239.603 154.897 235.253 155.467L233.64 155.685C232.55 155.828 231.534 156.314 230.738 157.072L226.988 160.672C226.988 160.672 220.695 161.287 219.75 164.76L219.6 167.7L223.478 167.19L223.418 166.732C223.368 166.356 223.394 165.974 223.492 165.607C223.591 165.241 223.76 164.897 223.992 164.597C224.459 163.989 225.148 163.592 225.908 163.492C226.667 163.393 227.436 163.599 228.043 164.066C228.344 164.298 228.597 164.586 228.786 164.914C228.975 165.243 229.098 165.606 229.148 165.982L229.208 166.432L240.18 165L240.128 164.55C240.028 163.79 240.235 163.022 240.702 162.414C241.169 161.807 241.858 161.409 242.618 161.31C243.377 161.21 244.146 161.417 244.753 161.884C245.361 162.351 245.758 163.04 245.858 163.8L245.918 164.25L247.508 164.04L250.335 157.477C250.398 157.408 250.43 157.316 250.425 157.223C250.42 157.129 250.378 157.041 250.309 156.979C250.239 156.916 250.148 156.883 250.054 156.888C249.961 156.893 249.873 156.935 249.81 157.005Z" fill="white" stroke="#263238" stroke-linecap="round" stroke-linejoin="round"/>
<path d="M239.415 157.041C239.108 156.291 236.94 156.479 236.1 156.464C234.259 156.605 232.429 156.855 230.618 157.214L226.973 160.694L237.728 159.269C237.728 159.269 239.67 157.686 239.415 157.041Z" fill="#263238" stroke="#263238" stroke-linecap="round" stroke-linejoin="round"/>
<path d="M228.563 166.049C228.624 166.504 228.549 166.966 228.347 167.379C228.146 167.791 227.826 168.134 227.429 168.364C227.032 168.594 226.576 168.702 226.118 168.672C225.66 168.643 225.221 168.478 224.857 168.199C224.493 167.92 224.219 167.54 224.072 167.105C223.924 166.671 223.909 166.202 224.028 165.759C224.147 165.316 224.395 164.918 224.74 164.616C225.085 164.313 225.513 164.12 225.968 164.061C226.575 163.985 227.187 164.15 227.673 164.522C228.159 164.894 228.479 165.443 228.563 166.049Z" fill="#263238" stroke="#263238" stroke-linecap="round" stroke-linejoin="round"/>
<path d="M227.647 166.17C227.684 166.442 227.638 166.718 227.517 166.964C227.396 167.211 227.205 167.415 226.968 167.553C226.73 167.69 226.457 167.755 226.184 167.737C225.91 167.72 225.647 167.621 225.429 167.455C225.211 167.288 225.048 167.061 224.959 166.801C224.87 166.541 224.861 166.261 224.931 165.996C225.001 165.731 225.149 165.493 225.355 165.311C225.561 165.13 225.816 165.014 226.087 164.977C226.268 164.953 226.452 164.965 226.628 165.011C226.804 165.058 226.97 165.139 227.115 165.25C227.26 165.361 227.381 165.499 227.473 165.657C227.564 165.815 227.623 165.989 227.647 166.17Z" fill="white" stroke="#263238" stroke-linecap="round" stroke-linejoin="round"/>
<path d="M245.288 163.836C245.349 164.29 245.274 164.753 245.072 165.165C244.871 165.576 244.552 165.919 244.155 166.149C243.759 166.38 243.303 166.487 242.845 166.459C242.387 166.43 241.949 166.266 241.584 165.987C241.22 165.709 240.946 165.329 240.798 164.895C240.65 164.461 240.633 163.993 240.751 163.55C240.869 163.107 241.116 162.709 241.46 162.406C241.804 162.103 242.231 161.909 242.685 161.848C243.294 161.767 243.909 161.931 244.397 162.304C244.885 162.676 245.205 163.227 245.288 163.836Z" fill="#263238" stroke="#263238" stroke-linecap="round" stroke-linejoin="round"/>
<path d="M244.365 163.958C244.401 164.23 244.356 164.506 244.235 164.752C244.114 164.999 243.922 165.203 243.685 165.341C243.448 165.479 243.175 165.543 242.901 165.525C242.627 165.508 242.365 165.409 242.147 165.243C241.929 165.076 241.765 164.849 241.677 164.589C241.588 164.329 241.578 164.049 241.649 163.784C241.719 163.519 241.866 163.281 242.072 163.099C242.278 162.918 242.533 162.802 242.805 162.765C242.986 162.74 243.17 162.751 243.347 162.797C243.523 162.844 243.689 162.925 243.834 163.036C243.979 163.147 244.101 163.285 244.192 163.443C244.283 163.602 244.342 163.777 244.365 163.958Z" fill="white" stroke="#263238" stroke-linecap="round" stroke-linejoin="round"/>
<path d="M219.75 164.759V164.887L220.59 164.774C220.836 164.744 221.066 164.634 221.242 164.459L222.697 163.027C222.758 162.96 222.796 162.877 222.809 162.788C222.821 162.699 222.807 162.608 222.767 162.527C222.728 162.447 222.665 162.38 222.587 162.335C222.509 162.29 222.42 162.27 222.33 162.277L221.76 162.352C220.812 162.874 220.095 163.733 219.75 164.759Z" fill="white" stroke="#263238" stroke-linecap="round" stroke-linejoin="round"/>
<path d="M245.13 158.25C245.13 158.25 244.605 157.935 243.758 157.5L235.553 162.428L235.62 160.478L228.413 164.4C228.597 164.605 228.749 164.838 228.863 165.09L234.195 162.533L233.955 164.587L246.135 159.083L246.18 158.138L245.13 158.25Z" fill="#FF4F00" stroke="#263238" stroke-linecap="round" stroke-linejoin="round"/>
<path d="M155.378 276.593C154.688 278.228 152.693 280.822 152.693 284.55V286.688C152.693 286.688 152.13 288.27 158.445 288.27C164.76 288.27 168.6 287.933 168.6 286.688C168.6 285.442 169.665 278.677 167.85 272.438L168.173 264.938L159.263 264.375L157.568 272.385L155.378 276.593Z" fill="white" stroke="#263238" stroke-linecap="round" stroke-linejoin="round"/>
<path d="M152.693 284.55V286.687C152.693 286.687 152.13 288.27 158.445 288.27C164.76 288.27 168.6 287.932 168.6 286.687C168.6 285.442 169.665 278.677 167.85 272.437C167.85 272.437 166.838 273.285 166.253 271.447C166.06 270.659 165.609 269.958 164.971 269.457C164.334 268.955 163.546 268.682 162.735 268.68C160.425 268.68 159.998 269.542 159.488 270.435C159.033 271.234 158.369 271.895 157.568 272.347L155.4 276.577C154.688 278.25 152.693 280.822 152.693 284.55Z" fill="#263238" stroke="#263238" stroke-linecap="round" stroke-linejoin="round"/>
<path d="M168.6 286.687C168.6 286.342 168.683 285.547 168.765 284.437C163.435 283.701 158.03 283.701 152.7 284.437C152.7 284.437 152.7 284.504 152.7 284.542V286.679C152.7 286.679 152.138 288.262 158.453 288.262C164.768 288.262 168.6 287.932 168.6 286.687Z" fill="#FF4F00" stroke="#263238" stroke-linecap="round" stroke-linejoin="round"/>
<path d="M198.705 260.527L199.605 274.38C198.53 276.801 198.136 279.469 198.465 282.097C198.521 282.75 198.755 283.374 199.141 283.903C199.527 284.432 200.051 284.845 200.655 285.097C203.348 286.2 209.655 287.595 224.603 287.602H224.918L227.25 287.25C227.725 287.18 228.158 286.941 228.47 286.577C228.783 286.213 228.954 285.749 228.953 285.27C228.957 284.7 228.822 284.137 228.561 283.63C228.3 283.123 227.919 282.687 227.453 282.36C226.21 281.502 224.915 280.723 223.575 280.027C223.305 279.898 223.053 279.734 222.825 279.54L213.405 271.29C213.055 270.976 212.638 270.746 212.186 270.616C211.734 270.486 211.259 270.46 210.795 270.54L209.513 270.757L209.303 260.572L198.705 260.527Z" fill="white" stroke="#263238" stroke-linecap="round" stroke-linejoin="round"/>
<path d="M205.658 274.057C204.225 275.969 202.793 277.724 199.605 274.379C198.53 276.8 198.136 279.469 198.465 282.097C198.521 282.749 198.755 283.374 199.141 283.903C199.527 284.431 200.051 284.844 200.655 285.097C203.348 286.199 209.655 287.594 224.603 287.602H224.918L227.25 287.249C227.725 287.179 228.158 286.94 228.47 286.577C228.783 286.213 228.954 285.749 228.953 285.269C228.957 284.699 228.822 284.136 228.561 283.63C228.3 283.123 227.919 282.687 227.453 282.359C226.21 281.501 224.915 280.722 223.575 280.027C223.305 279.898 223.053 279.734 222.825 279.539L213.405 271.289C213.055 270.976 212.638 270.745 212.186 270.615C211.734 270.486 211.259 270.46 210.795 270.539L209.513 270.757C208.052 271.633 206.749 272.749 205.658 274.057Z" fill="#263238" stroke="#263238" stroke-linecap="round" stroke-linejoin="round"/>
<path d="M224.603 287.593H224.918L227.25 287.248C227.724 287.178 228.158 286.939 228.47 286.576C228.783 286.212 228.954 285.748 228.953 285.268C228.956 284.698 228.822 284.135 228.561 283.629C228.3 283.122 227.919 282.686 227.453 282.358L226.755 281.893C224.828 283.041 221.108 283.971 215.055 283.491C205.965 282.741 200.505 280.573 198.42 279.568C198.375 280.423 198.393 281.281 198.473 282.133C198.529 282.786 198.763 283.41 199.149 283.939C199.535 284.468 200.058 284.881 200.663 285.133C203.348 286.191 209.693 287.586 224.603 287.593Z" fill="#FF4F00" stroke="#263238" stroke-linecap="round" stroke-linejoin="round"/>
<path d="M168.6 172.68C168.6 172.68 160.928 210.765 161.715 224.76L156.113 265.837C156.113 265.837 162.233 268.567 171.173 265.837L178.028 225.802C178.028 225.802 182.888 187.98 188.378 188.655C193.868 189.33 193.095 222.855 193.485 229.695C193.875 236.535 196.688 265.822 196.688 265.822C196.688 265.822 205.38 267.172 212.483 264.915C212.483 264.915 210.608 230.872 210.45 228.36C210.293 225.847 208.313 176.925 208.313 176.925L168.6 172.68Z" fill="#FF4F00" stroke="#263238" stroke-linecap="round" stroke-linejoin="round"/>
<path d="M163.733 234.855C163.733 234.855 169.32 238.605 173.55 234.855C177.78 231.105 166.95 235.53 165.428 232.312" stroke="#263238" stroke-linecap="round" stroke-linejoin="round"/>
<path d="M203.753 236.249C205.665 235.829 207.458 234.749 207.953 232.334" stroke="#263238" stroke-linecap="round" stroke-linejoin="round"/>
<path d="M198.188 236.16C198.907 236.31 199.636 236.408 200.37 236.453" stroke="#263238" stroke-linecap="round" stroke-linejoin="round"/>
<path d="M177.683 185.691C177.683 185.691 187.433 187.379 185.805 188.654C184.178 189.929 177.345 189.276 176.67 190.461" stroke="#263238" stroke-linecap="round" stroke-linejoin="round"/>
<path d="M200.49 186.569C200.49 186.569 198.173 188.654 192.818 188.654C187.463 188.654 196.793 187.042 197.438 184.154" stroke="#263238" stroke-linecap="round" stroke-linejoin="round"/>
<path d="M182.363 103.566L180.113 103.821C180.113 103.821 165.788 106.754 164.775 109.686C163.763 112.619 164.093 147.651 164.093 147.651C164.093 147.651 162.968 151.709 164.325 154.926C164.325 154.926 163.283 172.544 165.788 176.811C165.788 176.811 178.538 181.251 209.85 180.014C209.85 180.014 211.208 161.189 210.525 156.449C211.615 153.927 211.722 151.088 210.825 148.491C210.825 148.491 214.995 111.921 212.078 108.381C212.07 108.381 206.168 104.504 182.363 103.566Z" fill="#263238" stroke="#263238" stroke-linecap="round" stroke-linejoin="round"/>
<path d="M229.418 118.785C229.418 118.785 233.438 120.615 234.668 123.285C236.549 126.663 238.239 130.143 239.73 133.71C241.238 137.911 242.38 142.235 243.143 146.633C243.675 149.4 243.69 151.538 242.775 152.363C241.275 153.72 240.42 154.193 239.933 154.29C239.682 154.337 239.448 154.448 239.254 154.614C239.061 154.78 238.914 154.994 238.83 155.235L238.215 157.058C238.179 157.888 237.861 158.681 237.315 159.308C237.246 159.366 237.163 159.405 237.074 159.42C236.985 159.436 236.894 159.428 236.809 159.396C236.725 159.365 236.65 159.312 236.592 159.242C236.535 159.173 236.497 159.089 236.483 159L236.265 157.583C236.265 157.583 235.058 160.643 233.445 159.63C233.445 159.63 233.16 160.613 231.833 160.38C231.728 160.362 231.629 160.322 231.541 160.263C231.453 160.204 231.378 160.127 231.322 160.037C231.266 159.947 231.23 159.846 231.216 159.741C231.202 159.636 231.21 159.529 231.24 159.428L231.923 156.773C231.923 156.773 231.443 158.505 230.34 158.82C230.255 158.845 230.164 158.847 230.078 158.825C229.992 158.803 229.913 158.758 229.85 158.695C229.787 158.633 229.742 158.554 229.72 158.467C229.698 158.381 229.7 158.291 229.725 158.205L231.33 153.3L231.48 151.988C231.513 151.697 231.624 151.421 231.803 151.19C231.981 150.958 232.22 150.78 232.493 150.675C233.633 150.149 234.743 149.558 235.815 148.905C236.078 148.725 236.685 148.29 236.663 147.975C236.243 141.885 227.775 129.615 227.775 129.615L223.118 127.05L229.418 118.785Z" fill="white" stroke="#263238" stroke-linecap="round" stroke-linejoin="round"/>
<path d="M232.762 152.557C233.1 152.951 233.564 153.215 234.075 153.307C234.825 153.307 234.285 155.632 234.075 156.142C233.865 156.652 233.4 158.084 233.4 158.084" stroke="#263238" stroke-linecap="round" stroke-linejoin="round"/>
<path d="M236.25 153.104C236.405 153.359 236.627 153.569 236.89 153.71C237.154 153.851 237.451 153.919 237.75 153.906" stroke="#263238" stroke-linecap="round" stroke-linejoin="round"/>
<path d="M156.173 130.986C156.173 130.986 150.33 143.474 150.45 147.486C150.57 151.499 161.378 176.841 161.378 176.841C161.225 178.458 161.404 180.089 161.903 181.634C162.713 183.614 163.35 185.609 164.903 186.014C166.455 186.419 166.673 185.894 166.673 185.894C166.673 185.894 168.563 186.194 169.095 185.309C169.095 185.309 171.12 185.174 171.57 184.296C171.57 184.296 173.243 183.846 173.175 182.916L172.005 180.621C172.005 180.621 173.288 182.054 174.683 181.296C176.078 180.539 173.535 180.231 172.785 178.296C172.035 176.361 167.82 173.706 167.82 173.706C167.82 173.706 162.66 154.124 160.62 147.021L165.053 135.306L156.173 130.986Z" fill="white" stroke="#263238" stroke-linecap="round" stroke-linejoin="round"/>
<path d="M164.768 109.688L153.653 132.248C153.653 132.248 156.195 137.663 167.7 138.345L164.768 109.688Z" fill="#263238" stroke="#263238" stroke-linecap="round" stroke-linejoin="round"/>
<path d="M203.987 135.602C205.205 128.049 200.069 120.939 192.516 119.721C184.963 118.503 177.853 123.638 176.635 131.191C175.417 138.744 180.553 145.854 188.106 147.072C195.659 148.29 202.769 143.155 203.987 135.602Z" fill="white" stroke="#263238" stroke-linecap="round" stroke-linejoin="round"/>
<path d="M184.718 129.188C184.718 129.188 190.14 123.345 191.693 126.45C193.245 129.555 198.78 125.348 198.78 125.348C198.78 125.348 195.03 133.29 191.693 131.745C188.355 130.2 186.143 135.098 186.143 135.098C186.143 135.098 187.043 132.75 184.718 129.188Z" fill="#FF4F00" stroke="#263238" stroke-linecap="round" stroke-linejoin="round"/>
<path d="M183.81 127.957L189.27 144.164C189.325 144.344 189.311 144.537 189.23 144.706C189.15 144.876 189.009 145.009 188.835 145.079L188.528 145.184C188.343 145.245 188.141 145.231 187.966 145.145C187.791 145.06 187.656 144.91 187.59 144.727L182.438 128.407C182.392 128.252 182.397 128.087 182.452 127.936C182.508 127.785 182.61 127.655 182.745 127.567C182.839 127.515 182.943 127.483 183.051 127.475C183.158 127.467 183.266 127.481 183.367 127.518C183.468 127.555 183.56 127.614 183.636 127.689C183.713 127.765 183.772 127.856 183.81 127.957Z" fill="#858585" stroke="#263238" stroke-linecap="round" stroke-linejoin="round"/>
<path d="M167.543 127.5C167.423 129 167.258 130.5 167.04 132" stroke="#7F7F7F" stroke-width="0.75" stroke-linecap="round" stroke-linejoin="round"/>
<path d="M167.7 114C167.912 117.787 167.912 121.583 167.7 125.37" stroke="#7F7F7F" stroke-width="0.75" stroke-linecap="round" stroke-linejoin="round"/>
<path d="M212.07 108.381C219.087 111.653 225.909 115.329 232.5 119.391C231.947 121.891 230.807 124.223 229.172 126.194C227.538 128.165 225.457 129.718 223.103 130.723L210.75 123.111L212.07 108.381Z" fill="#263238" stroke="#263238" stroke-linecap="round" stroke-linejoin="round"/>
<path d="M212.625 115.289C212.437 113.677 212.152 112.447 211.702 112.432C210.382 112.432 211.612 119.932 210.72 123.112" stroke="#7F7F7F" stroke-width="0.75" stroke-linecap="round" stroke-linejoin="round"/>
<path d="M212.948 122.955C212.948 122.955 212.948 121.14 212.88 119.01" stroke="#7F7F7F" stroke-width="0.75" stroke-linecap="round" stroke-linejoin="round"/>
<path d="M215.498 123.943C215.691 124.439 215.943 124.91 216.248 125.346" stroke="#7F7F7F" stroke-width="0.75" stroke-linecap="round" stroke-linejoin="round"/>
<path d="M213.75 116.91C214.024 118.746 214.414 120.562 214.92 122.348" stroke="#7F7F7F" stroke-width="0.75" stroke-linecap="round" stroke-linejoin="round"/>
<path d="M202.418 152.902C195.255 154.98 183.923 157.185 175.088 153.915" stroke="#7F7F7F" stroke-width="0.75" stroke-linecap="round" stroke-linejoin="round"/>
<path d="M209.362 150.523C209.362 150.523 207.66 151.273 204.907 152.136" stroke="#7F7F7F" stroke-width="0.75" stroke-linecap="round" stroke-linejoin="round"/>
<path d="M168.3 152.902C172.345 157.019 177.468 159.912 183.083 161.25" stroke="#7F7F7F" stroke-width="0.75" stroke-linecap="round" stroke-linejoin="round"/>
<path d="M165.75 149.85C166.084 150.337 166.445 150.805 166.83 151.252" stroke="#7F7F7F" stroke-width="0.75" stroke-linecap="round" stroke-linejoin="round"/>
<path d="M182.94 96.9141C182.94 96.9141 182.362 101.227 180.105 103.822C180.105 103.822 189.6 117.719 200.535 106.874L198.045 98.6766L182.94 96.9141Z" fill="white"/>
<mask id="mask5_321_11" style="mask-type:luminance" maskUnits="userSpaceOnUse" x="180" y="96" width="21" height="16">
<path d="M182.94 96.9141C182.94 96.9141 182.362 101.227 180.105 103.822C180.105 103.822 189.6 117.719 200.535 106.874L198.045 98.6766L182.94 96.9141Z" fill="white"/>
</mask>
<g mask="url(#mask5_321_11)">
<path d="M180.938 97.8448C180.938 97.8448 182.91 106.02 190.583 108.675C198.255 111.33 200.535 105.217 200.535 105.217L189.285 97.2223L182.745 95.1523L180.938 97.8448Z" fill="#263238"/>
</g>
<path d="M182.94 96.9141C182.94 96.9141 182.362 101.227 180.105 103.822C180.105 103.822 189.6 117.719 200.535 106.874L198.045 98.6766L182.94 96.9141Z" stroke="#263238" stroke-linecap="round" stroke-linejoin="round"/>
<path d="M181.77 97.6563C183.142 101.744 189.27 108.674 195.735 108.674C202.2 108.674 205.32 100.101 205.8 97.2213C206.28 94.3413 206.955 90.6213 207.975 88.5888C208.995 86.5563 210.285 81.5013 208.395 75.4563C206.505 69.4113 193.5 65.9988 189.81 69.1863C186.12 72.3738 178.98 82.6113 178.98 82.6113L179.88 88.3263C179.88 88.3263 181.012 95.3988 181.77 97.6563Z" fill="white" stroke="#263238" stroke-linecap="round" stroke-linejoin="round"/>
<path d="M182.79 74.0393C182.79 74.0393 180.397 65.4668 183.862 65.4668C187.327 65.4668 182.947 70.6568 182.79 74.0393Z" fill="#263238" stroke="#263238" stroke-linecap="round" stroke-linejoin="round"/>
<path d="M202.672 69.2998C202.672 69.2998 189.247 61.0498 183.037 72.7948C183.037 72.7948 172.072 76.9648 179.43 91.8673H182.475C182.475 91.8673 188.565 87.3673 190.035 80.2423C191.505 73.1173 190.035 89.1598 190.035 89.1598C191.993 89.5083 193.979 89.6666 195.967 89.6323C196.491 86.5302 196.742 83.3882 196.717 80.2423C196.717 80.2423 198.09 82.8973 197.64 89.6173C200.182 89.5373 202.718 89.3245 205.237 88.9798C206.551 86.259 207.216 83.2708 207.18 80.2498C207.18 80.2498 208.567 82.5673 206.917 88.7473C207.705 88.6198 208.515 88.4923 209.362 88.3348C209.362 88.3273 215.19 74.6023 202.672 69.2998Z" fill="#263238" stroke="#263238" stroke-linecap="round" stroke-linejoin="round"/>
<path d="M201.375 97.0273L201.975 98.7449C202.062 98.979 202.089 99.2311 202.053 99.4783C202.018 99.7254 201.921 99.9598 201.772 100.16C201.623 100.361 201.426 100.521 201.2 100.626C200.973 100.731 200.724 100.778 200.475 100.762L198.66 100.717" stroke="#263238" stroke-linecap="round" stroke-linejoin="round"/>
<path d="M192.63 102.809C192.63 102.809 194.775 105.869 198.045 103.311" stroke="#263238" stroke-linecap="round" stroke-linejoin="round"/>
<path d="M197.048 94.3645C196.95 95.242 196.538 95.917 196.133 95.8645C195.728 95.812 195.488 95.1145 195.585 94.1995C195.683 93.2845 196.095 92.6545 196.5 92.6995C196.905 92.7445 197.145 93.4945 197.048 94.3645Z" fill="#263238"/>
<path d="M204.682 95.249C204.54 95.999 204.127 96.599 203.767 96.5315C203.407 96.464 203.235 95.7815 203.385 95.0315C203.535 94.2815 203.94 93.674 204.3 93.7415C204.66 93.809 204.832 94.499 204.682 95.249Z" fill="#263238"/>
<path d="M193.312 90.5841C194.253 90.0222 195.354 89.7907 196.442 89.9266C197.529 90.0625 198.539 90.5579 199.312 91.3341" stroke="#263238" stroke-linecap="round" stroke-linejoin="round"/>
<path d="M203.49 90.689C203.49 90.689 205.59 89.189 206.295 90.9515" stroke="#263238" stroke-linecap="round" stroke-linejoin="round"/>
<path d="M183 92.3162C182.701 91.8875 182.301 91.5393 181.835 91.3025C181.37 91.0657 180.852 90.9476 180.33 90.9587C175.77 90.6212 177.885 97.8587 180.33 99.0137C182.775 100.169 183.578 97.9712 183.578 97.9712" fill="white"/>
<path d="M183 92.3162C182.701 91.8875 182.301 91.5393 181.835 91.3025C181.37 91.0657 180.852 90.9476 180.33 90.9587C175.77 90.6212 177.885 97.8587 180.33 99.0137C182.775 100.169 183.578 97.9712 183.578 97.9712" stroke="#263238" stroke-linecap="round" stroke-linejoin="round"/>
<path d="M184.71 84.3965C184.193 84.9238 183.65 85.4244 183.083 85.8965" stroke="#7F7F7F" stroke-width="0.75" stroke-linecap="round" stroke-linejoin="round"/>
<path d="M189.308 71.6686C185.925 71.0086 190.958 75.9436 186.195 82.6036" stroke="#7F7F7F" stroke-width="0.75" stroke-linecap="round" stroke-linejoin="round"/>
<path d="M195.397 75.6367C193.785 74.8417 193.05 73.5442 191.647 72.6367" stroke="#7F7F7F" stroke-width="0.75" stroke-linecap="round" stroke-linejoin="round"/>
<path d="M196.313 69.7491C189.93 68.3766 201.36 76.7991 197.423 76.2366" stroke="#7F7F7F" stroke-width="0.75" stroke-linecap="round" stroke-linejoin="round"/>
<path d="M204.907 80.3027C204.907 80.3027 206.115 72.9152 198.052 70.2227" stroke="#7F7F7F" stroke-width="0.75" stroke-linecap="round" stroke-linejoin="round"/>
<path d="M236.272 154.725V155.91" stroke="#263238" stroke-linecap="round" stroke-linejoin="round"/>
<path d="M232.508 155.579L233.115 153.914" stroke="#263238" stroke-linecap="round" stroke-linejoin="round"/>
<path d="M228.353 128.835C228.537 128.002 229.03 127.271 229.733 126.787L228.353 128.835Z" fill="white"/>
<path d="M228.353 128.835C228.537 128.002 229.03 127.271 229.733 126.787" stroke="#263238" stroke-linecap="round" stroke-linejoin="round"/>
<path d="M176.16 283.816L175.522 212.566C175.521 212.212 175.441 211.862 175.288 211.542C175.134 211.223 174.911 210.941 174.636 210.719C174.36 210.496 174.038 210.338 173.693 210.255C173.348 210.172 172.989 210.168 172.642 210.241C172.103 210.363 171.622 210.667 171.279 211.101C170.936 211.535 170.753 212.073 170.76 212.626L170.115 283.831L165.75 284.251C165.173 284.311 164.639 284.582 164.251 285.013C163.863 285.444 163.649 286.004 163.65 286.584V287.926H182.602V286.584C182.603 286.003 182.388 285.442 181.999 285.011C181.609 284.58 181.073 284.309 180.495 284.251L176.16 283.816Z" fill="#858585" stroke="#263238" stroke-linecap="round" stroke-linejoin="round"/>
<path d="M247.5 283.815L246.855 170.438C246.853 170.084 246.772 169.735 246.618 169.416C246.464 169.098 246.241 168.817 245.965 168.595C245.69 168.373 245.368 168.216 245.024 168.133C244.679 168.051 244.321 168.047 243.975 168.12C243.437 168.242 242.957 168.544 242.614 168.977C242.272 169.409 242.088 169.946 242.093 170.498L241.455 283.815L237.105 284.273C236.527 284.331 235.991 284.601 235.601 285.032C235.212 285.464 234.997 286.024 234.998 286.605V287.948H253.95V286.605C253.951 286.024 253.736 285.464 253.346 285.032C252.957 284.601 252.421 284.331 251.843 284.273L247.5 283.815Z" fill="#858585" stroke="#263238" stroke-linecap="round" stroke-linejoin="round"/>
<path d="M67.3276 289.305C54.2172 289.19 41.1335 288.1 28.1851 286.043L28.7101 282.593C28.8138 281.909 29.1835 281.295 29.7385 280.883C30.2934 280.472 30.9887 280.296 31.6726 280.395C54.9226 283.725 74.0776 284.1 90.2626 281.543H90.3826C96.3426 280.582 101.769 277.538 105.695 272.952C109.621 268.367 111.794 262.537 111.825 256.5H117.923C117.881 263.985 115.185 271.212 110.316 276.897C105.446 282.581 98.7175 286.353 91.3276 287.543H91.2151C83.3108 288.753 75.3239 289.342 67.3276 289.305Z" fill="#263238" stroke="#263238" stroke-linecap="round" stroke-linejoin="round"/>
<path d="M117.923 256.501H111.825C111.825 249.785 109.157 243.345 104.409 238.597C99.6606 233.848 93.2203 231.181 86.5051 231.181C79.7898 231.181 73.3495 233.848 68.6011 238.597C63.8527 243.345 61.1851 249.785 61.1851 256.501H55.0951C55.0307 252.334 55.7957 248.197 57.3455 244.329C58.8952 240.462 61.1989 236.941 64.1223 233.972C67.0457 231.003 70.5305 228.645 74.3738 227.036C78.2171 225.426 82.3422 224.598 86.5088 224.598C90.6755 224.598 94.8005 225.426 98.6438 227.036C102.487 228.645 105.972 231.003 108.895 233.972C111.819 236.941 114.122 240.462 115.672 244.329C117.222 248.197 117.987 252.334 117.923 256.501Z" fill="#263238" stroke="#263238" stroke-linecap="round" stroke-linejoin="round"/>
<path d="M86.505 287.912C78.1776 287.902 70.1941 284.589 64.3057 278.701C58.4173 272.813 55.1049 264.829 55.095 256.502H61.185C61.1949 263.214 63.8657 269.648 68.612 274.395C73.3583 279.141 79.7927 281.812 86.505 281.822C87.8057 281.82 89.1044 281.72 90.39 281.522C130.89 275.079 143.842 251.522 157.522 226.554C161.092 220.037 164.782 213.302 168.96 207.054C179.745 190.869 197.122 178.554 219.21 171.474C228.226 168.571 237.53 166.657 246.96 165.767C247.304 165.738 247.65 165.779 247.977 165.888C248.305 165.996 248.607 166.17 248.865 166.399C249.124 166.627 249.334 166.905 249.482 167.217C249.63 167.529 249.713 167.867 249.727 168.212L249.855 171.677C249.337 171.677 198.247 174.039 174.015 210.437C169.987 216.489 166.357 223.112 162.847 229.509C149.062 254.657 134.805 280.659 91.32 287.574H91.2C89.6455 287.802 88.0762 287.915 86.505 287.912Z" fill="#263238" stroke="#263238" stroke-linecap="round" stroke-linejoin="round"/>
<path d="M66.6525 287.948C53.5421 287.833 40.4585 286.743 27.51 284.686L28.035 281.236C28.1387 280.553 28.5087 279.939 29.0639 279.529C29.6192 279.118 30.3145 278.945 30.9975 279.046C54.2475 282.368 73.4025 282.743 89.5875 280.186H89.7075C95.665 279.226 101.089 276.184 105.015 271.601C108.941 267.019 111.115 261.192 111.15 255.158H117.24C117.202 262.643 114.508 269.871 109.64 275.556C104.771 281.24 98.0423 285.013 90.6525 286.201H90.54C82.6354 287.406 74.6484 287.99 66.6525 287.948Z" fill="white" stroke="#263238" stroke-linecap="round" stroke-linejoin="round"/>
<path d="M117.24 255.142H111.15C111.15 248.427 108.482 241.987 103.734 237.238C98.9854 232.49 92.5452 229.822 85.8299 229.822C79.1146 229.822 72.6744 232.49 67.926 237.238C63.1776 241.987 60.5099 248.427 60.5099 255.142H54.4199C54.4199 246.812 57.7292 238.823 63.6197 232.932C69.5102 227.042 77.4995 223.732 85.8299 223.732C94.1604 223.732 102.15 227.042 108.04 232.932C113.931 238.823 117.24 246.812 117.24 255.142Z" fill="white" stroke="#263238" stroke-linecap="round" stroke-linejoin="round"/>
<path d="M85.8299 286.553C77.5019 286.545 69.5173 283.233 63.6285 277.345C57.7397 271.456 54.4279 263.471 54.4199 255.143H60.5099C60.5079 261.863 63.1737 268.308 67.9215 273.063C72.6693 277.817 79.1106 280.493 85.8299 280.501C87.1304 280.501 88.4291 280.403 89.7149 280.208C130.215 273.766 143.16 250.208 156.847 225.233C160.417 218.723 164.107 211.988 168.285 205.733C179.062 189.541 196.447 177.233 218.535 170.146C227.552 167.248 236.856 165.337 246.285 164.446C246.628 164.415 246.974 164.454 247.302 164.562C247.629 164.669 247.931 164.842 248.189 165.07C248.448 165.299 248.657 165.577 248.804 165.889C248.951 166.2 249.033 166.539 249.045 166.883L249.172 170.356C248.662 170.356 197.572 172.711 173.34 209.108C169.312 215.168 165.682 221.783 162.172 228.188C148.387 253.336 134.13 279.338 90.6449 286.246H90.5249C88.9696 286.464 87.4004 286.566 85.8299 286.553Z" fill="white" stroke="#263238" stroke-linecap="round" stroke-linejoin="round"/>
<path d="M243.622 175.5H237V171.803H243.615C244.105 171.805 244.574 172.001 244.92 172.348C245.266 172.695 245.46 173.165 245.46 173.655C245.46 174.143 245.267 174.611 244.922 174.957C244.578 175.303 244.111 175.498 243.622 175.5Z" fill="white" stroke="#263238" stroke-linecap="round" stroke-linejoin="round"/>
<path d="M240 283.816L239.362 170.438C239.359 170.085 239.277 169.736 239.123 169.418C238.968 169.1 238.745 168.82 238.47 168.599C238.195 168.377 237.874 168.219 237.53 168.137C237.186 168.054 236.829 168.048 236.482 168.121C235.944 168.242 235.462 168.544 235.119 168.976C234.775 169.409 234.589 169.946 234.592 170.498L234 283.816L229.65 284.273C229.072 284.332 228.537 284.604 228.148 285.034C227.759 285.465 227.543 286.025 227.542 286.606V287.948H246.495V286.606C246.496 286.026 246.282 285.466 245.894 285.035C245.506 284.604 244.972 284.332 244.395 284.273L240 283.816Z" fill="white" stroke="#263238" stroke-linecap="round" stroke-linejoin="round"/>
<path d="M172.305 217.622H165.69V213.932H172.305C172.795 213.932 173.265 214.126 173.612 214.472C173.959 214.817 174.155 215.287 174.157 215.777C174.155 216.267 173.959 216.736 173.612 217.082C173.265 217.428 172.795 217.622 172.305 217.622Z" fill="white" stroke="#263238" stroke-linecap="round" stroke-linejoin="round"/>
<path d="M168.75 283.816L168.112 212.566C168.111 212.212 168.031 211.862 167.878 211.542C167.724 211.223 167.501 210.941 167.226 210.719C166.95 210.496 166.628 210.338 166.283 210.255C165.938 210.172 165.579 210.168 165.232 210.241C164.694 210.365 164.213 210.668 163.871 211.102C163.528 211.536 163.345 212.074 163.35 212.626L162.705 283.831L158.362 284.289C157.784 284.347 157.248 284.617 156.859 285.049C156.469 285.48 156.254 286.04 156.255 286.621V287.964H175.207V286.621C175.208 286.04 174.993 285.48 174.604 285.049C174.214 284.617 173.678 284.347 173.1 284.289L168.75 283.816Z" fill="white" stroke="#263238" stroke-linecap="round" stroke-linejoin="round"/>
<path d="M274.335 266.249L278.235 268.447C279.77 269.305 281.573 269.552 283.282 269.137C291.06 267.232 313.792 262.297 319.402 268.027C326.197 274.972 322.035 282.719 312.435 286.724C302.835 290.729 277.395 295.687 277.395 295.687L275.58 293.249L271.08 294.337C271.08 294.337 268.582 296.909 263.085 297.614C263.085 297.614 257.085 289.919 259.89 281.489C259.89 281.489 261.007 279.697 267.472 280.364L272.407 280.237L266.032 273.487V268.274L274.335 266.249Z" fill="#FF4F00"/>
<mask id="mask6_321_11" style="mask-type:luminance" maskUnits="userSpaceOnUse" x="259" y="265" width="64" height="33">
<path d="M274.335 266.249L278.235 268.447C279.77 269.305 281.573 269.552 283.282 269.137C291.06 267.232 313.792 262.297 319.402 268.027C326.197 274.972 322.035 282.719 312.435 286.724C302.835 290.729 277.395 295.687 277.395 295.687L275.58 293.249L271.08 294.337C271.08 294.337 268.582 296.909 263.085 297.614C263.085 297.614 257.085 289.919 259.89 281.489C259.89 281.489 261.007 279.697 267.472 280.364L272.407 280.237L266.032 273.487V268.274L274.335 266.249Z" fill="white"/>
</mask>
<g mask="url(#mask6_321_11)">
<path opacity="0.2" d="M290.955 266.249C290.955 266.249 277.815 269.917 278.992 272.999C280.17 276.082 300.082 269.249 301.492 272.999C302.902 276.749 278.932 282.802 278.932 282.802L282.75 296.054L273.502 299.692L251.085 277.057L262.335 262.057H283.875L290.955 266.249Z" fill="black"/>
</g>
<path d="M274.335 266.249L278.235 268.447C279.77 269.305 281.573 269.552 283.282 269.137C291.06 267.232 313.792 262.297 319.402 268.027C326.197 274.972 322.035 282.719 312.435 286.724C302.835 290.729 277.395 295.687 277.395 295.687L275.58 293.249L271.08 294.337C271.08 294.337 268.582 296.909 263.085 297.614C263.085 297.614 257.085 289.919 259.89 281.489C259.89 281.489 261.007 279.697 267.472 280.364L272.407 280.237L266.032 273.487V268.274L274.335 266.249Z" stroke="#263238" stroke-linecap="round" stroke-linejoin="round"/>
<path d="M263.115 297.629C263.115 297.629 257.115 289.934 259.92 281.504C259.92 281.504 261.037 279.712 267.502 280.379L272.437 280.252C278.61 284.399 275.58 293.264 275.58 293.264L271.08 294.352C271.08 294.352 268.612 296.924 263.115 297.629Z" fill="#263238" stroke="#263238" stroke-linecap="round" stroke-linejoin="round"/>
<path d="M277.38 277.537C277.38 277.537 300.99 275.475 300.105 273.51C299.22 271.545 290.175 276 285.75 275.467" stroke="#263238" stroke-linecap="round" stroke-linejoin="round"/>
<path d="M267.502 280.379C267.502 280.379 266.452 283.994 269.557 282.374C272.662 280.754 272.625 286.274 272.91 288.981C273.195 291.689 268.447 290.481 269.797 291.306C271.147 292.131 271.11 294.351 271.11 294.351C271.11 294.351 268.612 296.924 263.115 297.629C263.115 297.629 257.115 289.934 259.92 281.504C259.92 281.504 261.037 279.749 267.502 280.379Z" fill="white" stroke="#263238" stroke-linecap="round" stroke-linejoin="round"/>
<path d="M279 271.17C279 271.17 276.337 270.202 270.262 271.59" stroke="#263238" stroke-linecap="round" stroke-linejoin="round"/>
<path d="M262.935 280.334C262.47 288.944 265.395 294.816 266.61 296.834C265.472 297.196 264.301 297.448 263.115 297.584C263.115 297.584 257.115 289.889 259.92 281.459C259.92 281.504 260.46 280.641 262.935 280.334Z" fill="#FF4F00" stroke="#263238" stroke-linecap="round" stroke-linejoin="round"/>
<path d="M293.355 282.816L301.312 283.701C301.312 283.701 301.77 282.359 308.812 283.574C315.855 284.789 324.082 285.149 324.757 290.699C324.441 293.861 323.637 296.956 322.372 299.871C322.018 300.726 321.369 301.426 320.545 301.846C319.72 302.265 318.772 302.376 317.872 302.159C315.304 301.391 313.032 299.854 311.362 297.756C311.362 297.756 302.16 296.481 300.112 294.081L292.35 291.831L293.355 282.816Z" fill="white" stroke="#263238" stroke-linecap="round" stroke-linejoin="round"/>
<path d="M304.185 293.918C304.605 293.018 299.79 293.783 300.547 288.743C301.305 283.703 303.352 286.41 304.207 285.12C305.062 283.83 301.312 283.703 301.312 283.703C301.312 283.703 301.77 282.36 308.812 283.575C315.855 284.79 324.082 285.15 324.757 290.7C324.441 293.863 323.637 296.957 322.372 299.873C322.018 300.727 321.369 301.428 320.544 301.847C319.72 302.266 318.772 302.377 317.872 302.16C315.304 301.392 313.032 299.856 311.362 297.758C311.362 297.758 302.16 296.483 300.112 294.083C300.105 294.083 303.75 294.818 304.185 293.918Z" fill="#263238" stroke="#263238" stroke-linecap="round" stroke-linejoin="round"/>
<path d="M324.75 290.7C324.434 293.862 323.629 296.956 322.365 299.872C322.01 300.727 321.362 301.427 320.537 301.846C319.712 302.266 318.765 302.377 317.865 302.16C316.855 301.885 315.89 301.466 315 300.915C313.838 297.906 313.735 294.592 314.708 291.517C315.653 288.105 317.513 286.395 319.32 285.555C322.253 286.5 324.428 288 324.75 290.7Z" fill="white" stroke="#263238" stroke-linecap="round" stroke-linejoin="round"/>
<path d="M324.75 290.699C324.434 293.862 323.629 296.956 322.365 299.872C322.01 300.726 321.362 301.427 320.537 301.846C319.712 302.265 318.764 302.376 317.865 302.159L317.505 302.047C318.87 301.372 320.01 299.414 321.217 295.019C322.425 290.624 321.645 287.677 321.022 286.199C323.062 287.144 324.495 288.524 324.75 290.699Z" fill="#FF4F00" stroke="#263238" stroke-linecap="round" stroke-linejoin="round"/>
<path d="M238.815 263.076C238.815 263.076 233.917 273.651 236.37 281.339C238.822 289.026 246.87 293.586 258.337 290.541L294.847 296.054C294.847 296.054 298.845 292.266 297.51 282.096L268.852 272.196C268.97 269.571 268.509 266.951 267.502 264.524L238.815 263.076Z" fill="#FF4F00"/>
<mask id="mask7_321_11" style="mask-type:luminance" maskUnits="userSpaceOnUse" x="235" y="263" width="63" height="34">
<path d="M238.815 263.076C238.815 263.076 233.917 273.651 236.37 281.339C238.822 289.026 246.87 293.586 258.337 290.541L294.847 296.054C294.847 296.054 298.845 292.266 297.51 282.096L268.852 272.196C268.97 269.571 268.509 266.951 267.502 264.524L238.815 263.076Z" fill="white"/>
</mask>
<g mask="url(#mask7_321_11)">
<path opacity="0.2" d="M255.255 292.545C255.255 292.545 264.93 289.193 249.457 288.045C233.985 286.898 236.385 270.503 236.385 270.503L228.465 269.753C228.465 269.753 220.395 258.803 225.712 276.278L231.03 293.753C231.03 293.753 232.53 294.893 241.477 294.99L250.41 295.08L255.255 292.545Z" fill="black"/>
<path opacity="0.2" d="M265.08 263.077L270.975 268.769L269.25 272.197C269.25 272.197 258 267.329 247.5 269.249C237 271.169 234.945 267.157 237.802 265.844L233.677 264.719L234.427 261.239L256.425 260.377L265.08 263.077Z" fill="black"/>
</g>
<path d="M238.815 263.076C238.815 263.076 233.917 273.651 236.37 281.339C238.822 289.026 246.87 293.586 258.337 290.541L294.847 296.054C294.847 296.054 298.845 292.266 297.51 282.096L268.852 272.196C268.97 269.571 268.509 266.951 267.502 264.524L238.815 263.076Z" stroke="#263238" stroke-linecap="round" stroke-linejoin="round"/>
<path d="M256.372 288.51C257.16 289.327 251.79 290.76 243.757 286.725" stroke="#263238" stroke-linecap="round" stroke-linejoin="round"/>
<path d="M244.68 284.736C247.095 286.236 250.807 288.081 254.227 288.104" stroke="#263238" stroke-linecap="round" stroke-linejoin="round"/>
<path d="M242.047 282.945C242.047 282.945 242.452 283.26 243.15 283.74" stroke="#263238" stroke-linecap="round" stroke-linejoin="round"/>
<path d="M262.927 270.675C260.616 270.114 258.248 269.822 255.87 269.805" stroke="#263238" stroke-linecap="round" stroke-linejoin="round"/>
<path d="M266.062 271.59C266.062 271.59 265.597 271.418 264.81 271.178" stroke="#263238" stroke-linecap="round" stroke-linejoin="round"/>
<path d="M333.353 304.289H331.163C330.936 304.289 330.718 304.199 330.558 304.039C330.398 303.878 330.308 303.661 330.308 303.434V298.312H334.208V303.434C334.208 303.661 334.117 303.878 333.957 304.039C333.797 304.199 333.579 304.289 333.353 304.289Z" fill="#263238" stroke="#263238" stroke-linecap="round" stroke-linejoin="round"/>
<path d="M313.35 304.289H311.16C310.933 304.289 310.716 304.199 310.555 304.039C310.395 303.878 310.305 303.661 310.305 303.434V298.312H314.205V303.434C314.205 303.661 314.115 303.878 313.954 304.039C313.794 304.199 313.577 304.289 313.35 304.289Z" fill="#263238" stroke="#263238" stroke-linecap="round" stroke-linejoin="round"/>
<path d="M310.837 292.356L312.232 290.856C312.474 290.587 312.683 290.29 312.855 289.971L315.547 284.879C315.879 284.256 316.374 283.735 316.979 283.372C317.584 283.008 318.277 282.816 318.982 282.816H325.95C326.656 282.816 327.348 283.008 327.953 283.372C328.558 283.735 329.053 284.256 329.385 284.879L332.077 289.971C332.244 290.293 332.453 290.591 332.7 290.856L334.095 292.356C335.226 293.582 335.855 295.188 335.857 296.856V300.299H309.075V296.856C309.078 295.188 309.707 293.582 310.837 292.356Z" fill="white" stroke="#263238" stroke-linecap="round" stroke-linejoin="round"/>
<path d="M313.425 291.352C314.927 292.506 316.18 293.952 317.107 295.604C317.334 296.08 317.688 296.484 318.13 296.771C318.572 297.058 319.085 297.218 319.612 297.232H325.312C325.839 297.218 326.352 297.058 326.794 296.771C327.237 296.484 327.591 296.08 327.817 295.604C328.748 293.954 330 292.508 331.5 291.352" stroke="#263238" stroke-linecap="round" stroke-linejoin="round"/>
<path d="M332.13 296.288C332.942 296.288 333.6 295.63 333.6 294.818C333.6 294.006 332.942 293.348 332.13 293.348C331.318 293.348 330.66 294.006 330.66 294.818C330.66 295.63 331.318 296.288 332.13 296.288Z" fill="#FF4F00" stroke="#263238" stroke-linecap="round" stroke-linejoin="round"/>
<path d="M311.333 294.818C311.325 295.116 311.407 295.41 311.567 295.661C311.727 295.913 311.959 296.111 312.232 296.23C312.505 296.35 312.808 296.385 313.101 296.331C313.395 296.277 313.666 296.138 313.879 295.929C314.093 295.721 314.239 295.454 314.3 295.162C314.361 294.87 314.334 294.567 314.222 294.29C314.109 294.014 313.917 293.778 313.67 293.611C313.422 293.445 313.131 293.356 312.833 293.355C312.441 293.355 312.065 293.508 311.785 293.781C311.505 294.055 311.342 294.427 311.333 294.818Z" fill="#FF4F00" stroke="#263238" stroke-linecap="round" stroke-linejoin="round"/>
<path d="M330.66 298.701H314.272" stroke="#263238" stroke-linecap="round" stroke-linejoin="round"/>
<path d="M322.567 291.104H322.365C316.972 291.104 314.16 289.949 313.147 289.409L315.547 284.871C315.879 284.248 316.374 283.727 316.979 283.364C317.584 283.001 318.277 282.809 318.982 282.809H325.95C326.656 282.809 327.348 283.001 327.953 283.364C328.558 283.727 329.053 284.248 329.385 284.871L331.785 289.409C330.75 289.949 327.952 291.104 322.567 291.104Z" fill="#FF4F00" stroke="#263238" stroke-linecap="round" stroke-linejoin="round"/>
<path d="M332.677 298.305C332.677 298.453 332.721 298.598 332.804 298.721C332.886 298.845 333.003 298.941 333.14 298.998C333.278 299.054 333.428 299.069 333.574 299.04C333.719 299.011 333.853 298.94 333.958 298.835C334.063 298.73 334.134 298.596 334.163 298.451C334.192 298.306 334.177 298.155 334.12 298.018C334.064 297.881 333.968 297.764 333.844 297.681C333.721 297.599 333.576 297.555 333.427 297.555C333.229 297.555 333.038 297.634 332.897 297.774C332.756 297.915 332.677 298.106 332.677 298.305Z" fill="#FF4F00" stroke="#263238" stroke-linecap="round" stroke-linejoin="round"/>
<path d="M310.718 298.305C310.718 298.453 310.762 298.598 310.844 298.721C310.926 298.845 311.043 298.941 311.181 298.998C311.318 299.054 311.468 299.069 311.614 299.04C311.759 299.011 311.893 298.94 311.998 298.835C312.103 298.73 312.174 298.596 312.203 298.451C312.232 298.306 312.217 298.155 312.16 298.018C312.104 297.881 312.008 297.764 311.884 297.681C311.761 297.599 311.616 297.555 311.468 297.555C311.269 297.555 311.078 297.634 310.937 297.774C310.797 297.915 310.718 298.106 310.718 298.305Z" fill="#FF4F00" stroke="#263238" stroke-linecap="round" stroke-linejoin="round"/>
<path d="M322.5 295.687V292.687C323.841 292.798 325.191 292.648 326.475 292.244" stroke="#263238" stroke-linecap="round" stroke-linejoin="round"/>
<path d="M284.94 218.909C286.08 219.573 286.982 220.578 287.521 221.782C288.059 222.987 288.205 224.33 287.94 225.622C287.407 228.254 286.5 232.192 285 237.427C281.962 248.017 275.88 262.334 278.527 267.772C278.527 267.772 262.425 271.387 236.527 263.594C236.527 263.594 239.707 219.959 248.962 213.922C256.05 209.302 275.385 213.389 284.94 218.909Z" fill="#263238" stroke="#263238" stroke-linecap="round" stroke-linejoin="round"/>
<path d="M263.25 199.5C263.25 199.5 261.435 208.5 257.812 211.822C257.603 212.021 257.436 212.26 257.322 212.525C257.208 212.79 257.149 213.075 257.149 213.364C257.149 213.652 257.208 213.938 257.322 214.203C257.436 214.468 257.603 214.707 257.812 214.905C261.66 218.595 270.412 225.555 275.61 218.378C275.61 218.378 267.592 207.72 267.472 203.032L263.25 199.5Z" fill="white"/>
<mask id="mask8_321_11" style="mask-type:luminance" maskUnits="userSpaceOnUse" x="257" y="199" width="19" height="23">
<path d="M263.25 199.5C263.25 199.5 261.435 208.5 257.812 211.822C257.603 212.021 257.436 212.26 257.322 212.525C257.208 212.79 257.149 213.075 257.149 213.364C257.149 213.652 257.208 213.938 257.322 214.203C257.436 214.468 257.603 214.707 257.812 214.905C261.66 218.595 270.412 225.555 275.61 218.378C275.61 218.378 267.592 207.72 267.472 203.032L263.25 199.5Z" fill="white"/>
</mask>
<g mask="url(#mask8_321_11)">
<path d="M263.752 202.77C263.752 202.77 258.352 210.697 266.347 217.155C274.342 223.612 277.755 220.5 277.755 220.5L269.857 210.502L263.752 202.77Z" fill="#263238"/>
</g>
<path d="M263.25 199.5C263.25 199.5 261.435 208.5 257.812 211.822C257.603 212.021 257.436 212.26 257.322 212.525C257.208 212.79 257.149 213.075 257.149 213.364C257.149 213.652 257.208 213.938 257.322 214.203C257.436 214.468 257.603 214.707 257.812 214.905C261.66 218.595 270.412 225.555 275.61 218.378C275.61 218.378 267.592 207.72 267.472 203.032L263.25 199.5Z" stroke="#263238" stroke-linecap="round" stroke-linejoin="round"/>
<path d="M289.125 206.002C288.055 206.765 287.252 207.846 286.83 209.092C285.954 211.802 284.216 214.151 281.88 215.782C277.268 218.857 276.09 220.934 272.835 219.397C269.58 217.859 262.913 213.089 263.123 206.737C263.123 205.732 263.753 202.769 263.753 202.769L266.505 189.644L286.755 186.119L291.548 191.369L294.083 199.327L292.328 202.454C291.541 203.863 290.446 205.075 289.125 206.002Z" fill="white" stroke="#263238" stroke-linecap="round" stroke-linejoin="round"/>
<path d="M274.282 176.895C279.157 176.895 286.402 176.805 292.192 184.582C292.192 184.582 299.062 189.285 296.625 197.602C294.855 203.602 291.292 204.435 289.455 204.42C291.081 203.305 292.255 201.645 292.762 199.74C291.425 201.463 289.659 202.806 287.64 203.632C286.093 202.124 284.338 200.846 282.427 199.837C284.356 198.858 285.896 197.253 286.792 195.285C284.874 196.931 282.649 198.183 280.245 198.967C279.348 198.686 278.409 198.561 277.47 198.6C272.115 198.87 274.47 193.29 274.47 193.29C274.47 193.29 270.765 197.242 267.33 198.33C263.895 199.417 263.347 205.005 263.347 205.005C263.347 205.005 259.2 202.447 259.147 193.29C259.095 184.132 264.405 176.955 274.282 176.895Z" fill="#263238" stroke="#263238" stroke-linecap="round" stroke-linejoin="round"/>
<path d="M288.938 185.175C288.938 185.175 296.1 182.31 298.215 186.188C300.33 190.065 295.028 184.088 288.938 185.175Z" fill="#263238" stroke="#263238" stroke-linecap="round" stroke-linejoin="round"/>
<path d="M285.165 207.471C284.865 208.049 284.85 208.634 285.165 208.776C285.48 208.919 285.915 208.574 286.207 208.026C286.5 207.479 286.522 206.864 286.207 206.714C285.892 206.564 285.457 206.894 285.165 207.471Z" fill="#263238"/>
<path d="M279.87 204.749C279.577 205.327 279.562 205.912 279.87 206.054C280.177 206.197 280.62 205.852 280.92 205.304C281.22 204.757 281.235 204.142 280.92 203.992C280.605 203.842 280.17 204.164 279.87 204.749Z" fill="#263238"/>
<path d="M282.39 208.207V211.815L279.277 211.095" stroke="#263238" stroke-linecap="round" stroke-linejoin="round"/>
<path d="M288.435 206.571C288.435 206.571 288.54 205.319 287.52 205.004" stroke="#263238" stroke-linecap="round" stroke-linejoin="round"/>
<path d="M284.025 203.017C284.025 203.017 282.675 201.247 279.637 201.674" stroke="#263238" stroke-linecap="round" stroke-linejoin="round"/>
<path d="M267.442 199.02C267.442 199.02 267.292 194.88 264.547 194.76C262.297 194.663 261.547 197.49 261.472 199.118C261.397 200.745 261.712 205.05 264.307 204.443" fill="white"/>
<path d="M267.442 199.02C267.442 199.02 267.292 194.88 264.547 194.76C262.297 194.663 261.547 197.49 261.472 199.118C261.397 200.745 261.712 205.05 264.307 204.443" stroke="#263238" stroke-linecap="round" stroke-linejoin="round"/>
<path d="M263.85 190.178C263.569 190.744 263.319 191.325 263.1 191.918" stroke="#7F7F7F" stroke-linecap="round" stroke-linejoin="round"/>
<path d="M280.38 193.312C276.967 192.989 284.242 182.984 281.445 181.897C278.647 180.809 275.04 188.174 272.745 187.507C270.862 186.959 267.555 184.762 264.795 188.579" stroke="#7F7F7F" stroke-linecap="round" stroke-linejoin="round"/>
<path d="M289.5 195.884C289.425 192.787 289.882 187.079 288 185.032C285.637 182.512 284.43 189.037 282.42 191.977" stroke="#7F7F7F" stroke-linecap="round" stroke-linejoin="round"/>
<path d="M291.825 192.105C292.102 193.89 291.997 195.855 290.835 197.355" stroke="#7F7F7F" stroke-linecap="round" stroke-linejoin="round"/>
<path d="M290.355 187.5C290.636 188.069 290.886 188.652 291.105 189.248" stroke="#7F7F7F" stroke-linecap="round" stroke-linejoin="round"/>
<path d="M277.755 213.516C277.755 213.516 274.552 212.669 273.412 210.111" stroke="#263238" stroke-linecap="round" stroke-linejoin="round"/>
<path d="M273.675 261.704C274.89 261.442 275.58 261.262 275.58 261.262" stroke="#7F7F7F" stroke-linecap="round" stroke-linejoin="round"/>
<path d="M241.095 261.262C251.182 265.357 265.47 263.324 272.032 262.012" stroke="#7F7F7F" stroke-linecap="round" stroke-linejoin="round"/>
<path d="M265.252 266.145C252.202 266.745 245.955 264.562 243.15 262.92" stroke="#7F7F7F" stroke-linecap="round" stroke-linejoin="round"/>
<path d="M269.797 265.844C268.935 265.919 268.095 265.979 267.285 266.031" stroke="#7F7F7F" stroke-linecap="round" stroke-linejoin="round"/>
<path d="M258.75 253.935L255.15 250.237L256.087 239.13L260.205 235.29L261.495 229.02L264.36 223.77L266.842 224.355C267.303 224.471 267.708 224.747 267.983 225.135C268.258 225.523 268.385 225.996 268.342 226.47L268.155 228.72C267.3 228.715 266.475 229.032 265.844 229.609C265.213 230.186 264.822 230.979 264.75 231.831C264.678 232.683 264.93 233.531 265.456 234.205C265.981 234.879 266.741 235.331 267.585 235.47L266.482 248.572C266.02 248.496 265.546 248.517 265.092 248.632C264.637 248.748 264.212 248.957 263.842 249.246C263.472 249.534 263.166 249.896 262.943 250.308C262.72 250.721 262.585 251.175 262.546 251.642C262.507 252.11 262.565 252.58 262.717 253.024C262.868 253.468 263.11 253.875 263.427 254.221C263.744 254.566 264.129 254.843 264.558 255.032C264.987 255.222 265.451 255.32 265.92 255.322V255.585L263.715 258.412L260.565 258.15C259.987 258.1 259.453 257.823 259.079 257.381C258.705 256.938 258.522 256.365 258.57 255.787L258.75 253.935Z" fill="#FF4F00" stroke="#263238" stroke-linecap="round" stroke-linejoin="round"/>
<path d="M260.145 242.076L256.552 242.624L256.912 238.356L260.205 235.289L260.745 234.951L260.145 242.076Z" fill="white" stroke="#263238" stroke-linecap="round" stroke-linejoin="round"/>
<path d="M255.975 249.509L256.447 243.907L260.04 243.352L259.395 251.017L258.195 251.677L255.975 249.509Z" fill="white" stroke="#263238" stroke-linecap="round" stroke-linejoin="round"/>
<path d="M268.38 234.818C269.857 234.56 270.846 233.154 270.588 231.677C270.33 230.199 268.924 229.211 267.447 229.469C265.97 229.727 264.981 231.133 265.239 232.61C265.497 234.087 266.903 235.076 268.38 234.818Z" fill="white" stroke="#263238" stroke-linecap="round" stroke-linejoin="round"/>
<path d="M267.817 233.25C268.104 233.272 268.387 233.18 268.606 232.994C268.825 232.807 268.961 232.542 268.985 232.256C269.009 231.969 268.918 231.685 268.733 231.465C268.548 231.246 268.284 231.108 267.997 231.082C267.855 231.07 267.711 231.085 267.574 231.128C267.437 231.172 267.31 231.241 267.201 231.334C267.091 231.426 267.001 231.539 266.935 231.666C266.869 231.794 266.829 231.933 266.817 232.076C266.805 232.219 266.822 232.362 266.866 232.499C266.91 232.635 266.98 232.762 267.073 232.871C267.166 232.98 267.28 233.07 267.407 233.135C267.535 233.2 267.675 233.239 267.817 233.25Z" fill="#FF4F00" stroke="#263238" stroke-linecap="round" stroke-linejoin="round"/>
<path d="M266.01 254.729C266.545 254.773 267.08 254.658 267.549 254.398C268.019 254.137 268.4 253.744 268.646 253.267C268.892 252.79 268.99 252.251 268.93 251.718C268.87 251.185 268.653 250.682 268.307 250.272C267.961 249.862 267.501 249.564 266.985 249.415C266.47 249.266 265.922 249.274 265.411 249.436C264.899 249.598 264.448 249.908 264.112 250.327C263.777 250.746 263.574 251.255 263.527 251.789C263.497 252.146 263.536 252.504 263.645 252.845C263.753 253.186 263.927 253.502 264.158 253.775C264.389 254.048 264.671 254.273 264.989 254.437C265.307 254.601 265.654 254.7 266.01 254.729Z" fill="white" stroke="#263238" stroke-linecap="round" stroke-linejoin="round"/>
<path d="M266.145 253.101C266.432 253.126 266.718 253.036 266.939 252.85C267.16 252.664 267.298 252.399 267.322 252.111C267.347 251.824 267.257 251.538 267.071 251.317C266.886 251.097 266.62 250.959 266.332 250.934C266.045 250.909 265.759 250.999 265.539 251.185C265.318 251.371 265.18 251.636 265.155 251.924C265.13 252.211 265.22 252.497 265.406 252.718C265.592 252.938 265.857 253.076 266.145 253.101Z" fill="#FF4F00" stroke="#263238" stroke-linecap="round" stroke-linejoin="round"/>
<path d="M264.36 223.777L265.957 224.152L265.11 225C264.901 225.201 264.715 225.425 264.555 225.667L264.352 225.952C263.849 226.689 263.132 227.255 262.297 227.572L264.36 223.777Z" fill="white" stroke="#263238" stroke-linecap="round" stroke-linejoin="round"/>
<path d="M263.055 239.768L262.297 246.75" stroke="#263238" stroke-linecap="round" stroke-linejoin="round"/>
<path d="M263.52 235.529L263.362 236.977" stroke="#263238" stroke-linecap="round" stroke-linejoin="round"/>
<path d="M244.928 249.637L251.918 251.887C251.918 251.887 249.735 244.387 251.527 242.579C253.32 240.772 255.87 238.409 257.205 239.212C258.833 240.194 255.803 241.799 255.803 241.799C255.803 241.799 258.803 239.489 259.178 240.899C259.553 242.309 255.652 244.582 255.652 244.582C255.652 244.582 259.282 242.212 259.68 243.622C260.077 245.032 256.32 246.967 256.32 246.967L255.652 248.107C255.652 248.107 258.345 246.307 259.178 246.967C260.01 247.627 256.688 250.582 256.688 250.582L256.92 252.967C256.92 252.967 257.04 258.104 254.73 258.419C252.42 258.734 243.75 256.214 243.75 256.214L244.928 249.637Z" fill="white" stroke="#263238" stroke-linecap="round" stroke-linejoin="round"/>
<path d="M254.73 242.572L252.892 244.35" stroke="#263238" stroke-linecap="round" stroke-linejoin="round"/>
<path d="M254.73 244.956L253.815 245.834L253.5 247.859C253.5 247.859 253.095 245.429 252.562 245.609C252.03 245.789 251.737 243.861 251.737 243.861" stroke="#263238" stroke-linecap="round" stroke-linejoin="round"/>
<path d="M249.097 260.4C243.705 260.362 230.85 254.092 226.777 250.545C222.705 246.997 227.085 234.72 233.617 225.367C238.245 218.752 246.435 214.65 250.83 212.82C251.19 212.667 251.582 212.603 251.972 212.635C252.362 212.666 252.738 212.791 253.069 213C253.4 213.209 253.675 213.494 253.872 213.833C254.068 214.171 254.18 214.552 254.197 214.942C254.385 218.827 253.8 225.345 248.58 229.44C240.75 235.597 237.33 244.927 237.33 244.927C243.922 247.575 249.412 250.41 249.412 250.41C250.108 251.993 250.441 253.712 250.387 255.441C250.332 257.169 249.892 258.864 249.097 260.4Z" fill="#263238" stroke="#263238" stroke-linecap="round" stroke-linejoin="round"/>
<path d="M239.715 257.76C239.077 257.49 238.432 257.212 237.787 256.92" stroke="#7F7F7F" stroke-linecap="round" stroke-linejoin="round"/>
<path d="M239.152 245.662C244.927 248.07 249.45 250.41 249.45 250.41C250.148 251.992 250.483 253.71 250.431 255.439C250.38 257.167 249.942 258.862 249.15 260.4C247.26 260.4 244.447 259.605 241.417 258.442" stroke="#7F7F7F" stroke-linecap="round" stroke-linejoin="round"/>
<path d="M245.25 232.582C243.941 233.976 242.74 235.468 241.658 237.045C240.868 238.189 240.137 239.373 239.468 240.592" stroke="#7F7F7F" stroke-linecap="round" stroke-linejoin="round"/>
<path d="M248.633 229.439C247.958 229.972 247.313 230.534 246.698 231.104" stroke="#7F7F7F" stroke-linecap="round" stroke-linejoin="round"/>
<path d="M229.043 245.504C228.675 245.714 228.293 245.954 227.895 246.254" stroke="#7F7F7F" stroke-linecap="round" stroke-linejoin="round"/>
<path d="M230.062 241.133C230.062 241.133 235.965 242.633 235.838 244.215C235.733 245.573 234.082 243.233 230.085 244.965" stroke="#7F7F7F" stroke-linecap="round" stroke-linejoin="round"/>
<path d="M317.362 273.832L318.112 276.014C317.178 277.39 316.322 278.817 315.548 280.289C315.225 281.174 314.7 283.979 314.7 283.979C314.661 284.127 314.669 284.283 314.721 284.426C314.773 284.57 314.868 284.694 314.993 284.782C315.118 284.87 315.266 284.918 315.419 284.919C315.572 284.921 315.721 284.875 315.847 284.789C316.289 284.477 316.645 284.06 316.882 283.574C317.79 281.782 318.855 279.337 320.715 279.532C322.983 279.876 325.128 280.79 326.947 282.187C327.81 283.004 329.512 286.177 329.512 286.177C329.512 286.177 330.938 288.359 332.168 288.074C333.398 287.789 332.738 287.324 332.168 284.842C332.586 284.515 332.884 284.058 333.012 283.542C333.139 283.027 333.09 282.484 332.872 281.999C332.872 281.999 333.84 280.379 333.105 279.337C332.37 278.294 333.803 277.372 331.838 275.467C329.873 273.562 327.442 274.477 325.995 271.454C324.547 268.432 317.362 273.832 317.362 273.832Z" fill="white" stroke="#263238" stroke-linecap="round" stroke-linejoin="round"/>
<path d="M331.32 283.702C331.637 283.406 331.854 283.019 331.94 282.594C332.026 282.169 331.977 281.727 331.8 281.332C331.23 279.832 332.445 278.977 331.642 277.057" stroke="#263238" stroke-linecap="round" stroke-linejoin="round"/>
<path d="M284.94 218.91C284.94 218.91 307.387 238.253 313.087 242.265C318.787 246.278 326.955 271.328 326.955 271.328C326.955 271.328 324.292 276.3 316.89 275.348L303.967 251.603L282.397 234.698C282.397 234.698 277.117 225.915 284.94 218.91Z" fill="#263238" stroke="#263238" stroke-linecap="round" stroke-linejoin="round"/>
<path d="M311.76 245.872C311.76 245.872 308.722 245.287 305.872 249.585" stroke="#7F7F7F" stroke-linecap="round" stroke-linejoin="round"/>
<path d="M286.74 228.344C286.878 230.021 286.721 231.709 286.275 233.331C285.007 237.426 289.065 229.349 290.077 229.439" stroke="#7F7F7F" stroke-linecap="round" stroke-linejoin="round"/>
<path d="M285.982 223.582C285.982 223.582 286.222 224.445 286.432 225.735" stroke="#7F7F7F" stroke-linecap="round" stroke-linejoin="round"/>
</svg>
