<svg width="48" height="48" viewBox="0 0 48 48" fill="none" xmlns="http://www.w3.org/2000/svg">
<circle cx="24" cy="24" r="24" fill="white"/>
<mask id="mask0_334_125" style="mask-type:luminance" maskUnits="userSpaceOnUse" x="8" y="8" width="32" height="32">
<path d="M8 8.00001H40V40H8V8.00001Z" fill="white"/>
</mask>
<g mask="url(#mask0_334_125)">
<path d="M24.077 22.1511C24.4482 21.0562 26.2196 16.6383 30.6417 16.6383C34.5736 16.6383 37.2834 19.9384 37.2834 23.8479C37.2834 28.3667 33.9074 31.3249 25.5455 38.564C24.7796 39.2271 23.6321 39.2278 22.8604 38.5713C15.6964 32.4771 10.7168 28.9419 10.7168 23.8479C10.7168 19.9384 13.4266 16.6383 17.3585 16.6383C21.7806 16.6383 23.552 21.0562 23.9231 22.1511" stroke="#191919" stroke-width="1.5" stroke-miterlimit="10"/>
<path d="M18.375 11.8125C18.375 13.3658 17.1158 14.625 15.5625 14.625C14.0092 14.625 12.75 13.3658 12.75 11.8125C12.75 10.2592 14.0092 8.9375 15.5625 8.9375C17.1158 8.9375 18.375 10.2592 18.375 11.8125Z" stroke="#191919" stroke-width="1.5" stroke-miterlimit="10"/>
<path d="M26.8125 24.9375C26.8125 26.4908 25.5533 27.75 24 27.75C22.4467 27.75 21.1875 26.4908 21.1875 24.9375C21.1875 23.3842 22.4467 22.125 24 22.125C25.5533 22.125 26.8125 23.3842 26.8125 24.9375Z" stroke="#191919" stroke-width="1.5" stroke-miterlimit="10"/>
<path d="M35.25 11.8125C35.25 13.3658 33.9908 14.625 32.4375 14.625C30.8842 14.625 29.625 13.3658 29.625 11.8125C29.625 10.2592 30.8842 8.9375 32.4375 8.9375C33.9908 8.9375 35.25 10.2592 35.25 11.8125Z" stroke="#191919" stroke-width="1.5" stroke-miterlimit="10"/>
<path d="M14.4668 23.8118C14.4668 25.8909 16.2782 27.9422 19.7797 30.9912C20.5995 31.705 20.653 32.9714 19.8844 33.74C19.1842 34.4403 18.0589 34.4697 17.3114 33.82C17.3007 33.8107 17.2899 33.8013 17.2792 33.792" stroke="#191919" stroke-width="1.5" stroke-miterlimit="10"/>
<path d="M19.7363 30.9537C20.947 30.1155 22.4162 29.6245 24.0001 29.6245C25.63 29.6245 27.1383 30.1444 28.3685 31.0273" stroke="#191919" stroke-width="1.5" stroke-miterlimit="10"/>
<path d="M30.773 33.8997C30.7748 33.9034 30.7766 33.907 30.7783 33.9107L30.8098 33.8822C30.0659 34.5584 28.9167 34.5417 28.2058 33.8309C27.4481 33.0731 27.4891 31.827 28.2822 31.1063C32.1738 27.5698 33.5334 25.7795 33.5334 23.8125" stroke="#191919" stroke-width="1.5" stroke-miterlimit="10"/>
</g>
</svg>
