<svg width="48" height="48" viewBox="0 0 48 48" fill="none" xmlns="http://www.w3.org/2000/svg">
<mask id="mask0_321_1029" style="mask-type:luminance" maskUnits="userSpaceOnUse" x="0" y="0" width="48" height="48">
<path d="M0 7.62939e-06H48V48H0V7.62939e-06Z" fill="white"/>
</mask>
<g mask="url(#mask0_321_1029)">
<path d="M24.1156 21.2267C24.6723 19.5842 27.3294 12.9574 33.9626 12.9574C39.8603 12.9574 43.925 17.9075 43.925 23.7719C43.925 30.5501 38.8611 34.9874 26.3183 45.846C25.1694 46.8406 23.4482 46.8417 22.2906 45.857C11.5445 36.7156 4.0752 31.4129 4.0752 23.7719C4.0752 17.9075 8.13991 12.9574 14.0377 12.9574C20.6709 12.9574 23.328 19.5842 23.8847 21.2267" stroke="#191919" stroke-width="2" stroke-miterlimit="10"/>
<path d="M15.5625 5.71875C15.5625 8.04872 13.6737 9.9375 11.3438 9.9375C9.01378 9.9375 7.125 8.04872 7.125 5.71875C7.125 3.38878 9.01378 1.40625 11.3438 1.40625C13.6737 1.40625 15.5625 3.38878 15.5625 5.71875Z" stroke="#191919" stroke-width="2" stroke-miterlimit="10"/>
<path d="M28.2188 25.4062C28.2188 27.7362 26.33 29.625 24 29.625C21.67 29.625 19.7812 27.7362 19.7812 25.4062C19.7812 23.0763 21.67 21.1875 24 21.1875C26.33 21.1875 28.2188 23.0763 28.2188 25.4062Z" stroke="#191919" stroke-width="2" stroke-miterlimit="10"/>
<path d="M40.875 5.71875C40.875 8.04872 38.9862 9.9375 36.6562 9.9375C34.3263 9.9375 32.4375 8.04872 32.4375 5.71875C32.4375 3.38878 34.3263 1.40625 36.6562 1.40625C38.9862 1.40625 40.875 3.38878 40.875 5.71875Z" stroke="#191919" stroke-width="2" stroke-miterlimit="10"/>
<path d="M9.7002 23.7186C9.7002 26.8373 12.4174 29.9143 17.6696 34.4877C18.8993 35.5585 18.9796 37.4581 17.8266 38.611C16.7763 39.6615 15.0883 39.7056 13.9671 38.731C13.951 38.717 13.9349 38.703 13.9189 38.689" stroke="#191919" stroke-width="2" stroke-miterlimit="10"/>
<path d="M17.6045 34.4305C19.4204 33.1733 21.6243 32.4368 24.0002 32.4368C26.4449 32.4368 28.7075 33.2166 30.5527 34.541" stroke="#191919" stroke-width="2" stroke-miterlimit="10"/>
<path d="M34.1593 38.8485C34.1619 38.8541 34.1646 38.8596 34.1671 38.8651L34.2144 38.8223C33.0986 39.8366 31.3748 39.8115 30.3085 38.7453C29.1719 37.6087 29.2335 35.7395 30.4231 34.6585C36.2605 29.3537 38.2999 26.6683 38.2999 23.7178" stroke="#191919" stroke-width="2" stroke-miterlimit="10"/>
</g>
</svg>
