<svg width="48" height="48" viewBox="0 0 48 48" fill="none" xmlns="http://www.w3.org/2000/svg">
<path d="M25.0798 37.1309L26.6544 38.1287C27.2416 38.5009 27.6569 39.091 27.8089 39.7694C27.961 40.4477 27.8374 41.1587 27.4652 41.7459C27.0931 42.333 26.5029 42.7483 25.8246 42.9004C25.1463 43.0525 24.4353 42.9288 23.8481 42.5567L22.6025 41.8228" stroke="#191919" stroke-width="2" stroke-miterlimit="10" stroke-linecap="round"/>
<path d="M27.8858 32.7031L32.0431 35.3378C32.6302 35.7099 33.0455 36.3001 33.1976 36.9784C33.3497 37.6568 33.226 38.3677 32.8539 38.9549C32.4818 39.5421 31.8916 39.9574 31.2133 40.1095C30.5349 40.2615 29.824 40.1379 29.2368 39.7658L25.0796 37.1311" stroke="#191919" stroke-width="2" stroke-miterlimit="10" stroke-linecap="round"/>
<path d="M30.692 28.2754L37.4319 32.5469C38.0191 32.919 38.4344 33.5092 38.5864 34.1875C38.7385 34.8658 38.6149 35.5768 38.2427 36.164C37.8706 36.7512 37.2804 37.1665 36.6021 37.3185C35.9238 37.4706 35.2128 37.347 34.6256 36.9748L27.8857 32.7033" stroke="#191919" stroke-width="2" stroke-miterlimit="10" stroke-linecap="round"/>
<path d="M9.75271 33.7784C10.4623 32.594 10.0773 31.0586 8.89286 30.3491C7.70842 29.6395 6.17304 30.0245 5.46348 31.2089C4.75392 32.3933 5.13889 33.9287 6.32332 34.6383C7.50776 35.3478 9.04315 34.9629 9.75271 33.7784Z" stroke="#191919" stroke-width="2" stroke-miterlimit="10" stroke-linecap="round"/>
<path d="M14.209 31.2166C14.7779 31.5574 15.1881 32.1103 15.3493 32.7535C15.5106 33.3968 15.4098 34.0778 15.069 34.6466L14.041 36.3626C13.7002 36.9315 13.1473 37.3417 12.5041 37.503C11.8608 37.6643 11.1799 37.5634 10.611 37.2226C10.0421 36.8818 9.63187 36.329 9.47059 35.6858C9.30931 35.0425 9.41016 34.3615 9.75096 33.7926L10.779 32.0766C11.1198 31.5078 11.6726 31.0975 12.3159 30.9363C12.9591 30.775 13.6401 30.8758 14.209 31.2166Z" stroke="#191919" stroke-width="2" stroke-miterlimit="10" stroke-linecap="round"/>
<path d="M19.0132 32.9295C19.5821 33.2703 19.9923 33.8232 20.1535 34.4664C20.3148 35.1097 20.214 35.7906 19.8732 36.3595L18.3312 38.9335C17.9904 39.5024 17.4375 39.9126 16.7943 40.0739C16.151 40.2352 15.4701 40.1343 14.9012 39.7935C14.3323 39.4527 13.9221 38.8999 13.7608 38.2566C13.5995 37.6134 13.7004 36.9324 14.0412 36.3635L15.5832 33.7895C15.924 33.2206 16.4768 32.8104 17.1201 32.6492C17.7633 32.4879 18.4443 32.5887 19.0132 32.9295Z" stroke="#191919" stroke-width="2" stroke-miterlimit="10" stroke-linecap="round"/>
<path d="M22.6199 41.4874C23.3295 40.303 22.9445 38.7676 21.76 38.058C20.5756 37.3485 19.0402 37.7334 18.3307 38.9179C17.6211 40.1023 18.0061 41.6377 19.1905 42.3473C20.375 43.0568 21.9103 42.6719 22.6199 41.4874Z" stroke="#191919" stroke-width="2" stroke-miterlimit="10" stroke-linecap="round"/>
<path d="M7 30L3 27" stroke="#191919" stroke-width="2" stroke-miterlimit="10" stroke-linecap="round"/>
<path d="M44 11L42.5577 11.9615C37.6297 15.2469 31.8394 17 25.9167 17H23L17.2252 21.9539C16.9657 22.21 16.7603 22.5156 16.621 22.8525C16.4817 23.1894 16.4113 23.5508 16.4141 23.9154C16.417 24.28 16.4928 24.6403 16.6373 24.975C16.7818 25.3097 16.992 25.6121 17.2553 25.8641C17.7706 26.3573 18.4586 26.629 19.1718 26.6208C19.885 26.6127 20.5667 26.3254 21.0705 25.8206L24.446 23L30.3588 22.9473C32.0522 22.9323 33.7088 23.4412 35.1016 24.4044L42.7966 29.7263C43.0944 29.9113 43.3523 30.1539 43.5551 30.4399C43.758 30.7258 43.9017 31.0494 43.9778 31.3916C44.0539 31.7339 44.061 32.0878 43.9985 32.4328C43.9361 32.7778 43.8054 33.1069 43.6141 33.4007C43.2357 33.9819 42.6429 34.3911 41.9651 34.5383C41.2873 34.6854 40.5789 34.5593 39.9935 34.1873L30.6923 28.2761" stroke="#191919" stroke-width="2" stroke-miterlimit="10" stroke-linecap="round"/>
<path d="M42.2158 29.228L46.9798 25" stroke="#191919" stroke-width="2" stroke-miterlimit="10" stroke-linecap="round"/>
<path d="M23 17C16.5089 17 10.1929 14.8947 5 11L1 8" stroke="#191919" stroke-width="2" stroke-miterlimit="10" stroke-linecap="round"/>
<path d="M47 10C47.5523 10 48 9.55228 48 9C48 8.44772 47.5523 8 47 8C46.4477 8 46 8.44772 46 9C46 9.55228 46.4477 10 47 10Z" fill="#191919"/>
<path d="M1 26C1.55228 26 2 25.5523 2 25C2 24.4477 1.55228 24 1 24C0.447715 24 0 24.4477 0 25C0 25.5523 0.447715 26 1 26Z" fill="#191919"/>
</svg>
