<svg width="48" height="48" viewBox="0 0 48 48" fill="none" xmlns="http://www.w3.org/2000/svg">
<circle cx="24" cy="24" r="24" fill="white"/>
<g clip-path="url(#clip0_3_93)">
<path d="M25.7199 32.7538L26.7696 33.4191C27.161 33.6672 27.4379 34.0606 27.5393 34.5129C27.6406 34.9651 27.5582 35.4391 27.3101 35.8305C27.062 36.222 26.6686 36.4988 26.2164 36.6002C25.7641 36.7016 25.2902 36.6192 24.8987 36.3711L24.0683 35.8818" stroke="#191919" stroke-width="2" stroke-miterlimit="10" stroke-linecap="round"/>
<path d="M27.5907 29.8022L30.3622 31.5586C30.7537 31.8067 31.0305 32.2002 31.1319 32.6524C31.2333 33.1046 31.1509 33.5786 30.9028 33.9701C30.6547 34.3615 30.2613 34.6384 29.809 34.7398C29.3568 34.8411 28.8828 34.7587 28.4914 34.5106L25.7199 32.7542" stroke="#191919" stroke-width="2" stroke-miterlimit="10" stroke-linecap="round"/>
<path d="M29.4616 26.8502L33.9549 29.6979C34.3463 29.946 34.6232 30.3394 34.7246 30.7916C34.8259 31.2439 34.7435 31.7178 34.4954 32.1093C34.2473 32.5007 33.8539 32.7776 33.4017 32.879C32.9494 32.9804 32.4755 32.8979 32.084 32.6498L27.5908 29.8022" stroke="#191919" stroke-width="2" stroke-miterlimit="10" stroke-linecap="round"/>
<path d="M15.5019 30.5191C15.975 29.7294 15.7183 28.7058 14.9287 28.2328C14.1391 27.7598 13.1155 28.0164 12.6425 28.806C12.1694 29.5957 12.4261 30.6193 13.2157 31.0923C14.0053 31.5653 15.0289 31.3087 15.5019 30.5191Z" stroke="#191919" stroke-width="2" stroke-miterlimit="10" stroke-linecap="round"/>
<path d="M18.4728 28.8111C18.852 29.0383 19.1255 29.4068 19.233 29.8357C19.3406 30.2645 19.2733 30.7185 19.0461 31.0977L18.3608 32.2417C18.1336 32.621 17.765 32.8945 17.3362 33.002C16.9074 33.1095 16.4534 33.0423 16.0741 32.8151C15.6949 32.5879 15.4214 32.2193 15.3139 31.7905C15.2063 31.3616 15.2736 30.9077 15.5008 30.5284L16.1861 29.3844C16.4133 29.0051 16.7819 28.7317 17.2107 28.6242C17.6395 28.5166 18.0935 28.5839 18.4728 28.8111Z" stroke="#191919" stroke-width="2" stroke-miterlimit="10" stroke-linecap="round"/>
<path d="M21.6758 29.953C22.055 30.1802 22.3285 30.5487 22.436 30.9776C22.5435 31.4064 22.4763 31.8604 22.2491 32.2396L21.2211 33.9556C20.9939 34.3349 20.6253 34.6084 20.1965 34.7159C19.7677 34.8234 19.3137 34.7562 18.9344 34.529C18.5552 34.3018 18.2817 33.9332 18.1742 33.5044C18.0667 33.0756 18.1339 32.6216 18.3611 32.2423L19.3891 30.5263C19.6163 30.1471 19.9849 29.8736 20.4137 29.7661C20.8425 29.6585 21.2965 29.7258 21.6758 29.953Z" stroke="#191919" stroke-width="2" stroke-miterlimit="10" stroke-linecap="round"/>
<path d="M24.0799 35.6583C24.553 34.8687 24.2963 33.8451 23.5067 33.372C22.7171 32.899 21.6935 33.1556 21.2204 33.9453C20.7474 34.7349 21.004 35.7585 21.7937 36.2315C22.5833 36.7046 23.6069 36.4479 24.0799 35.6583Z" stroke="#191919" stroke-width="2" stroke-miterlimit="10" stroke-linecap="round"/>
<path d="M13.6667 28L11 26" stroke="#191919" stroke-width="2" stroke-miterlimit="10" stroke-linecap="round"/>
<path d="M38.3333 15.3333L37.3718 15.9743C34.0865 18.1646 30.2263 19.3333 26.2778 19.3333H24.3333L20.4835 22.6359C20.3105 22.8067 20.1735 23.0104 20.0807 23.235C19.9878 23.4596 19.9409 23.7005 19.9428 23.9436C19.9446 24.1866 19.9952 24.4268 20.0916 24.65C20.1879 24.8731 20.328 25.0747 20.5036 25.2427C20.8471 25.5715 21.3058 25.7526 21.7812 25.7472C22.2567 25.7418 22.7111 25.5503 23.047 25.2137L25.2973 23.3333L29.2392 23.2982C30.3681 23.2882 31.4725 23.6275 32.401 24.2696L37.5311 27.8175C37.7296 27.9408 37.9015 28.1026 38.0368 28.2932C38.172 28.4839 38.2678 28.6996 38.3185 28.9277C38.3693 29.1559 38.374 29.3919 38.3324 29.6219C38.2907 29.8519 38.2036 30.0712 38.0761 30.2671C37.8238 30.6546 37.4286 30.9274 36.9767 31.0255C36.5249 31.1236 36.0526 31.0395 35.6624 30.7915L29.4616 26.8507" stroke="#191919" stroke-width="2" stroke-miterlimit="10" stroke-linecap="round"/>
<path d="M37.144 27.4853L40.32 24.6666" stroke="#191919" stroke-width="2" stroke-miterlimit="10" stroke-linecap="round"/>
<path d="M24.3333 19.3333C20.0059 19.3333 15.7952 17.9298 12.3333 15.3333L9.66666 13.3333" stroke="#191919" stroke-width="2" stroke-miterlimit="10" stroke-linecap="round"/>
<path d="M40.3333 14.6666C40.7015 14.6666 41 14.3682 41 14C41 13.6318 40.7015 13.3333 40.3333 13.3333C39.9651 13.3333 39.6667 13.6318 39.6667 14C39.6667 14.3682 39.9651 14.6666 40.3333 14.6666Z" fill="#191919"/>
<path d="M9.66667 25.3333C10.0349 25.3333 10.3333 25.0349 10.3333 24.6667C10.3333 24.2985 10.0349 24 9.66667 24C9.29848 24 9 24.2985 9 24.6667C9 25.0349 9.29848 25.3333 9.66667 25.3333Z" fill="#191919"/>
</g>
<defs>
<clipPath id="clip0_3_93">
<rect width="32" height="32" fill="white" transform="translate(9 8)"/>
</clipPath>
</defs>
</svg>
