<svg width="25" height="24" viewBox="0 0 25 24" fill="none" xmlns="http://www.w3.org/2000/svg">
<path d="M17.354 11H7.14567C6.01809 11 5.104 11.8954 5.104 13V19C5.104 20.1046 6.01809 21 7.14567 21H17.354C18.4816 21 19.3957 20.1046 19.3957 19V13C19.3957 11.8954 18.4816 11 17.354 11Z" stroke="#8C8C8C" stroke-width="1.5" stroke-linecap="round" stroke-linejoin="round"/>
<path d="M12.2498 17C12.8136 17 13.2707 16.5523 13.2707 16C13.2707 15.4477 12.8136 15 12.2498 15C11.686 15 11.229 15.4477 11.229 16C11.229 16.5523 11.686 17 12.2498 17Z" stroke="#8C8C8C" stroke-width="2" stroke-linecap="round" stroke-linejoin="round"/>
<path d="M8.1665 11V7C8.1665 5.93913 8.59671 4.92172 9.36248 4.17157C10.1283 3.42143 11.1669 3 12.2498 3C13.3328 3 14.3714 3.42143 15.1372 4.17157C15.903 4.92172 16.3332 5.93913 16.3332 7V11" stroke="#8C8C8C" stroke-width="1.5" stroke-linecap="round" stroke-linejoin="round"/>
</svg>
