<svg width="24" height="25" viewBox="0 0 24 25" fill="none" xmlns="http://www.w3.org/2000/svg">
<path d="M4.40967 17.25C4.16967 20.14 6.34967 22.5 9.24967 22.5H14.0397C17.2997 22.5 19.5397 19.87 18.9997 16.65C18.4297 13.27 15.1697 10.5 11.7397 10.5C8.01967 10.5 4.71967 13.54 4.40967 17.25Z" stroke="#8C8C8C" stroke-width="1.5" stroke-linecap="round" stroke-linejoin="round"/>
<path d="M10.4697 8C11.8504 8 12.9697 6.88071 12.9697 5.5C12.9697 4.11929 11.8504 3 10.4697 3C9.08902 3 7.96973 4.11929 7.96973 5.5C7.96973 6.88071 9.08902 8 10.4697 8Z" stroke="#8C8C8C" stroke-width="1.5" stroke-linecap="round" stroke-linejoin="round"/>
<path d="M17.2998 9.2C18.4044 9.2 19.2998 8.30457 19.2998 7.2C19.2998 6.09543 18.4044 5.2 17.2998 5.2C16.1952 5.2 15.2998 6.09543 15.2998 7.2C15.2998 8.30457 16.1952 9.2 17.2998 9.2Z" stroke="#8C8C8C" stroke-width="1.5" stroke-linecap="round" stroke-linejoin="round"/>
<path d="M21 13.2C21.8284 13.2 22.5 12.5284 22.5 11.7C22.5 10.8716 21.8284 10.2 21 10.2C20.1716 10.2 19.5 10.8716 19.5 11.7C19.5 12.5284 20.1716 13.2 21 13.2Z" stroke="#8C8C8C" stroke-width="1.5" stroke-linecap="round" stroke-linejoin="round"/>
<path d="M3.96973 11.2C5.0743 11.2 5.96973 10.3046 5.96973 9.2C5.96973 8.09543 5.0743 7.2 3.96973 7.2C2.86516 7.2 1.96973 8.09543 1.96973 9.2C1.96973 10.3046 2.86516 11.2 3.96973 11.2Z" stroke="#8C8C8C" stroke-width="1.5" stroke-linecap="round" stroke-linejoin="round"/>
</svg>
