<svg width="25" height="24" viewBox="0 0 25 24" fill="none" xmlns="http://www.w3.org/2000/svg">
<circle cx="12" cy="12" r="12" fill="#FF4F00"/>
<g clip-path="url(#clip0_334_225)">
<path d="M17.2148 8.0625H15.3361L15.1174 7.40625C15.0119 7.0876 14.8087 6.81035 14.5365 6.61396C14.2643 6.41758 13.9371 6.31209 13.6014 6.3125H10.8986C10.563 6.31224 10.2359 6.41781 9.96385 6.61418C9.69176 6.81054 9.48853 7.08771 9.38306 7.40625L9.16388 8.0625H7.28525C6.86164 8.06296 6.45552 8.23145 6.15598 8.53098C5.85645 8.83052 5.68796 9.23664 5.6875 9.66025V16.0915C5.68843 16.5148 5.85711 16.9205 6.1566 17.2196C6.45608 17.5188 6.86195 17.687 7.28525 17.6875H17.2165C17.6398 17.6866 18.0455 17.5179 18.3446 17.2184C18.6438 16.9189 18.812 16.5131 18.8125 16.0898V9.6585C18.8116 9.2352 18.6429 8.82952 18.3434 8.53036C18.0439 8.23121 17.6381 8.06296 17.2148 8.0625ZM17.9375 16.0898C17.9373 16.2814 17.861 16.4651 17.7256 16.6006C17.5901 16.736 17.4064 16.8123 17.2148 16.8125H7.28525C7.09364 16.8123 6.90994 16.736 6.77444 16.6006C6.63895 16.4651 6.56273 16.2814 6.5625 16.0898V9.6585C6.56319 9.46719 6.63962 9.28394 6.77506 9.14883C6.9105 9.01371 7.09394 8.93773 7.28525 8.9375H9.47931C9.5711 8.93743 9.66054 8.9085 9.73497 8.85479C9.8094 8.80109 9.86506 8.72533 9.89406 8.63825L10.213 7.68144C10.2609 7.53752 10.3529 7.41235 10.476 7.32368C10.599 7.23502 10.7469 7.18737 10.8986 7.1875H13.6014C13.7532 7.18734 13.9011 7.23502 14.0242 7.32378C14.1473 7.41254 14.2392 7.53784 14.287 7.68188L14.6059 8.63825C14.6349 8.72533 14.6906 8.80109 14.765 8.85479C14.8395 8.9085 14.9289 8.93743 15.0207 8.9375H17.2148C17.4064 8.93773 17.5901 9.01395 17.7256 9.14945C17.861 9.28494 17.9373 9.46864 17.9375 9.66025V16.0898Z" fill="white"/>
<path d="M12.25 9.375C11.601 9.375 10.9666 9.56744 10.427 9.92799C9.88744 10.2885 9.46687 10.801 9.21852 11.4006C8.97017 12.0001 8.90519 12.6599 9.0318 13.2964C9.15841 13.9329 9.47092 14.5176 9.92981 14.9764C10.3887 15.4353 10.9734 15.7478 11.6099 15.8745C12.2464 16.0011 12.9061 15.9361 13.5057 15.6877C14.1053 15.4394 14.6177 15.0188 14.9783 14.4792C15.3388 13.9396 15.5313 13.3052 15.5313 12.6563C15.5303 11.7863 15.1843 10.9522 14.5692 10.3371C13.954 9.72193 13.12 9.37593 12.25 9.375ZM12.25 15.0625C11.7741 15.0625 11.3089 14.9214 10.9132 14.657C10.5175 14.3926 10.209 14.0168 10.0269 13.5771C9.84479 13.1374 9.79714 12.6536 9.88999 12.1868C9.98283 11.72 10.212 11.2913 10.5485 10.9548C10.885 10.6183 11.3138 10.3891 11.7806 10.2962C12.2473 10.2034 12.7311 10.251 13.1708 10.4332C13.6105 10.6153 13.9863 10.9237 14.2507 11.3194C14.5151 11.7151 14.6563 12.1803 14.6563 12.6563C14.6556 13.2942 14.4018 13.9058 13.9507 14.357C13.4996 14.8081 12.888 15.0618 12.25 15.0625Z" fill="white"/>
<path d="M16.625 10.6875C16.8666 10.6875 17.0625 10.4916 17.0625 10.25C17.0625 10.0084 16.8666 9.8125 16.625 9.8125C16.3834 9.8125 16.1875 10.0084 16.1875 10.25C16.1875 10.4916 16.3834 10.6875 16.625 10.6875Z" fill="white"/>
</g>
<defs>
<clipPath id="clip0_334_225">
<rect width="14" height="14" fill="white" transform="translate(5.25 5)"/>
</clipPath>
</defs>
</svg>
