<svg width="32" height="32" viewBox="0 0 32 32" fill="none" xmlns="http://www.w3.org/2000/svg">
<circle cx="16" cy="16" r="16" fill="#FFDCCC"/>
<path d="M15.886 15.7073C16.9448 15.7073 17.8616 15.3275 18.6108 14.5782C19.3599 13.8291 19.7397 12.9125 19.7397 11.8535C19.7397 10.7949 19.36 9.87817 18.6107 9.12878C17.8615 8.37976 16.9447 8 15.886 8C14.827 8 13.9104 8.37976 13.1613 9.12891C12.4121 9.87805 12.0322 10.7948 12.0322 11.8535C12.0322 12.9125 12.4121 13.8292 13.1613 14.5784C13.9106 15.3274 14.8274 15.7073 15.886 15.7073ZM13.8243 9.79187C14.3992 9.21704 15.0735 8.93762 15.886 8.93762C16.6984 8.93762 17.3728 9.21704 17.9478 9.79187C18.5226 10.3668 18.8021 11.0413 18.8021 11.8535C18.8021 12.666 18.5226 13.3403 17.9478 13.9153C17.3728 14.4902 16.6984 14.7697 15.886 14.7697C15.0737 14.7697 14.3994 14.4901 13.8243 13.9153C13.2494 13.3405 12.9698 12.666 12.9698 11.8535C12.9698 11.0413 13.2494 10.3668 13.8243 9.79187Z" fill="#FF4F00"/>
<path d="M22.629 20.3031C22.6074 19.9913 22.5637 19.6512 22.4994 19.2921C22.4344 18.9303 22.3508 18.5883 22.2507 18.2756C22.1472 17.9525 22.0067 17.6334 21.8328 17.3276C21.6525 17.0103 21.4406 16.7339 21.2028 16.5065C20.9541 16.2686 20.6497 16.0773 20.2976 15.9377C19.9468 15.799 19.558 15.7286 19.1421 15.7286C18.9788 15.7286 18.8208 15.7957 18.5157 15.9943C18.328 16.1167 18.1084 16.2583 17.8633 16.4149C17.6537 16.5485 17.3698 16.6736 17.019 16.7869C16.6769 16.8976 16.3295 16.9537 15.9865 16.9537C15.6437 16.9537 15.2963 16.8976 14.9539 16.7869C14.6035 16.6737 14.3195 16.5486 14.1102 16.415C13.8674 16.2599 13.6477 16.1183 13.4572 15.9941C13.1523 15.7955 12.9944 15.7285 12.8311 15.7285C12.415 15.7285 12.0264 15.799 11.6757 15.9379C11.3239 16.0771 11.0193 16.2684 10.7704 16.5066C10.5326 16.7341 10.3207 17.0104 10.1405 17.3276C9.9668 17.6334 9.82617 17.9524 9.72266 18.2758C9.62268 18.5884 9.53906 18.9303 9.47412 19.2921C9.40967 19.6508 9.36609 19.991 9.34448 20.3035C9.32324 20.609 9.3125 20.927 9.3125 21.2483C9.3125 22.0835 9.578 22.7596 10.1016 23.2583C10.6187 23.7504 11.3027 23.9999 12.1349 23.9999H19.839C20.6709 23.9999 21.355 23.7504 21.8722 23.2583C22.3959 22.76 22.6614 22.0836 22.6614 21.2482C22.6613 20.9258 22.6504 20.6078 22.629 20.3031ZM21.2257 22.579C20.884 22.9042 20.4304 23.0623 19.8389 23.0623H12.1349C11.5432 23.0623 11.0896 22.9042 10.748 22.5791C10.413 22.2601 10.2501 21.8247 10.2501 21.2483C10.2501 20.9485 10.26 20.6525 10.2798 20.3683C10.2991 20.0895 10.3385 19.7832 10.397 19.4578C10.4547 19.1364 10.5282 18.8347 10.6156 18.5616C10.6995 18.2998 10.8138 18.0405 10.9557 17.7908C11.0911 17.5527 11.2468 17.3485 11.4187 17.184C11.5795 17.03 11.7821 16.9041 12.0209 16.8096C12.2417 16.7222 12.4899 16.6743 12.7593 16.6671C12.7921 16.6846 12.8506 16.7179 12.9453 16.7797C13.1381 16.9053 13.3602 17.0486 13.6058 17.2054C13.8827 17.382 14.2394 17.5414 14.6655 17.679C15.1012 17.8198 15.5455 17.8914 15.9866 17.8914C16.4276 17.8914 16.8721 17.8198 17.3075 17.6791C17.734 17.5413 18.0906 17.382 18.3678 17.2052C18.6191 17.0446 18.8351 16.9054 19.0278 16.7797C19.1226 16.718 19.181 16.6846 19.2139 16.6671C19.4834 16.6743 19.7316 16.7222 19.9525 16.8096C20.1912 16.9041 20.3938 17.0302 20.5546 17.184C20.7264 17.3484 20.8822 17.5526 21.0176 17.7909C21.1595 18.0405 21.274 18.2999 21.3578 18.5615C21.4453 18.835 21.5189 19.1365 21.5765 19.4576C21.6349 19.7837 21.6744 20.0901 21.6937 20.3684V20.3687C21.7136 20.6517 21.7236 20.9476 21.7238 21.2483C21.7236 21.8248 21.5608 22.2601 21.2257 22.579Z" fill="#FF4F00"/>
</svg>
