<svg width="25" height="24" viewBox="0 0 25 24" fill="none" xmlns="http://www.w3.org/2000/svg">
<path d="M20.9272 8.75H15.3127V5.5C15.3119 4.8372 15.0427 4.20178 14.5643 3.73311C14.0858 3.26444 13.4372 3.00079 12.7606 3H3.57308C2.89647 3.00079 2.24781 3.26444 1.76938 3.73311C1.29095 4.20178 1.02181 4.8372 1.021 5.5V11.5C1.02181 12.1628 1.29095 12.7982 1.76938 13.2669C2.24781 13.7356 2.89647 13.9992 3.57308 14V15.045C3.5727 15.2423 3.63224 15.4352 3.74413 15.5992C3.85602 15.7632 4.0152 15.8909 4.2014 15.966C4.38842 16.0423 4.59439 16.0624 4.79308 16.0236C4.99178 15.9849 5.17422 15.8891 5.31717 15.7485C5.33581 15.731 5.35288 15.7119 5.36822 15.6915L6.63813 14H9.18766V17.25C9.18847 17.9128 9.45761 18.5482 9.93605 19.0169C10.4145 19.4856 11.0631 19.7492 11.7397 19.75H17.3982L19.1847 21.5C19.3274 21.6398 19.5093 21.735 19.7073 21.7736C19.9053 21.8122 20.1105 21.7923 20.297 21.7167C20.4835 21.641 20.643 21.5129 20.7551 21.3485C20.8673 21.184 20.9272 20.9907 20.9272 20.793V19.75C21.6039 19.7492 22.2525 19.4856 22.7309 19.0169C23.2094 18.5482 23.4785 17.9128 23.4793 17.25V11.25C23.4785 10.5872 23.2094 9.95178 22.7309 9.48311C22.2525 9.01444 21.6039 8.75079 20.9272 8.75ZM6.38037 13C6.30083 13.0004 6.22248 13.019 6.15159 13.0543C6.08069 13.0897 6.01921 13.1408 5.97204 13.2035L4.59391 15.0335V13.5C4.59391 13.3674 4.54014 13.2402 4.44442 13.1464C4.34869 13.0527 4.21887 13 4.0835 13H3.57308C3.16697 13 2.77749 12.842 2.49032 12.5607C2.20316 12.2794 2.04183 11.8978 2.04183 11.5V5.5C2.04183 5.10218 2.20316 4.72064 2.49032 4.43934C2.77749 4.15804 3.16697 4 3.57308 4H12.7606C13.1667 4 13.5562 4.15804 13.8433 4.43934C14.1305 4.72064 14.2918 5.10218 14.2918 5.5V8.75H11.7397C11.1967 8.75157 10.6686 8.92425 10.2335 9.2425L8.63131 5.7925C8.59071 5.70521 8.52533 5.6312 8.44297 5.5793C8.36061 5.5274 8.26476 5.4998 8.16683 5.4998C8.0689 5.4998 7.97304 5.5274 7.89069 5.5793C7.80833 5.6312 7.74295 5.70521 7.70235 5.7925L5.15027 11.2925C5.1226 11.3524 5.10725 11.417 5.10511 11.4827C5.10296 11.5484 5.11406 11.6138 5.13776 11.6753C5.16147 11.7368 5.19731 11.7931 5.24325 11.841C5.28919 11.8889 5.34431 11.9275 5.40548 11.9545C5.47107 11.9843 5.54246 11.9998 5.61475 12C5.71271 12 5.80859 11.9723 5.89095 11.9204C5.97331 11.8684 6.03867 11.7944 6.07923 11.707L6.87139 10H9.46329L9.49953 10.0775C9.29779 10.4369 9.19061 10.8399 9.18766 11.25V13H6.38037ZM8.99932 9H7.33536L8.16683 7.208L8.99932 9ZM22.4585 17.25C22.4585 17.6478 22.2972 18.0294 22.01 18.3107C21.7228 18.592 21.3334 18.75 20.9272 18.75H20.4168C20.2815 18.75 20.1516 18.8027 20.0559 18.8964C19.9602 18.9902 19.9064 19.1174 19.9064 19.25V20.793L17.9704 18.8965C17.8747 18.8027 17.7449 18.75 17.6095 18.75H11.7397C11.3336 18.75 10.9442 18.592 10.657 18.3107C10.3698 18.0294 10.2085 17.6478 10.2085 17.25V11.25C10.2085 10.8522 10.3698 10.4706 10.657 10.1893C10.9442 9.90804 11.3336 9.75 11.7397 9.75H20.9272C21.3334 9.75 21.7228 9.90804 22.01 10.1893C22.2972 10.4706 22.4585 10.8522 22.4585 11.25V17.25Z" fill="#8C8C8C"/>
<path d="M18.8856 12.5H16.8439V11.5C16.8439 11.3674 16.7901 11.2402 16.6944 11.1464C16.5987 11.0527 16.4689 11 16.3335 11C16.1981 11 16.0683 11.0527 15.9726 11.1464C15.8769 11.2402 15.8231 11.3674 15.8231 11.5V12.5H13.7814C13.646 12.5 13.5162 12.5527 13.4205 12.6464C13.3248 12.7402 13.271 12.8674 13.271 13C13.271 13.1326 13.3248 13.2598 13.4205 13.3536C13.5162 13.4473 13.646 13.5 13.7814 13.5H17.5687C17.4437 14.3494 17.0027 15.1237 16.3304 15.674C15.9377 15.3527 15.6204 14.9523 15.3999 14.5C15.3722 14.4391 15.3323 14.3843 15.2826 14.3388C15.233 14.2933 15.1745 14.2579 15.1107 14.2348C15.0468 14.2118 14.9789 14.2014 14.911 14.2044C14.843 14.2074 14.7763 14.2237 14.7149 14.2523C14.6534 14.2809 14.5984 14.3212 14.5531 14.371C14.5078 14.4207 14.4731 14.4788 14.4511 14.5418C14.429 14.6049 14.42 14.6716 14.4247 14.7381C14.4293 14.8046 14.4475 14.8695 14.4781 14.929C14.7153 15.4107 15.0395 15.8464 15.4352 16.215C14.9816 16.4043 14.4934 16.5012 14.0004 16.5C13.9343 16.5003 13.8689 16.5136 13.8081 16.539C13.7473 16.5645 13.6923 16.6016 13.6464 16.6482C13.6005 16.6948 13.5646 16.75 13.5408 16.8104C13.517 16.8708 13.5058 16.9353 13.5078 17C13.512 17.1344 13.5696 17.262 13.6684 17.3554C13.7672 17.4488 13.8993 17.5007 14.0366 17.5C14.8478 17.4997 15.6442 17.2874 16.3437 16.885C17.0497 17.2857 17.8507 17.4978 18.6666 17.5C18.7327 17.4997 18.7981 17.4864 18.8589 17.461C18.9197 17.4355 18.9747 17.3984 19.0206 17.3518C19.0665 17.3052 19.1024 17.2501 19.1262 17.1896C19.15 17.1292 19.1612 17.0647 19.1592 17C19.155 16.8656 19.0974 16.738 18.9986 16.6446C18.8998 16.5512 18.7677 16.4993 18.6304 16.5C18.1529 16.4982 17.6807 16.4019 17.242 16.217C18.0023 15.4928 18.4824 14.5324 18.6003 13.5H18.8856C19.021 13.5 19.1508 13.4473 19.2465 13.3536C19.3422 13.2598 19.396 13.1326 19.396 13C19.396 12.8674 19.3422 12.7402 19.2465 12.6464C19.1508 12.5527 19.021 12.5 18.8856 12.5Z" fill="#8C8C8C"/>
</svg>
