<svg width="25" height="24" viewBox="0 0 25 24" fill="none" xmlns="http://www.w3.org/2000/svg">
<path d="M22.3639 8.88036C21.9172 8.81679 21.4908 8.65531 21.1166 8.40795C20.7424 8.16059 20.4299 7.83372 20.2026 7.45168C19.9752 7.06963 19.8387 6.64227 19.8033 6.2014C19.7679 5.76053 19.8345 5.31752 19.9981 4.90536C20.1022 4.6359 20.1175 4.34132 20.042 4.0629C19.9664 3.78449 19.8039 3.5362 19.577 3.35286C18.5756 2.52911 17.4358 1.88199 16.2083 1.44036C15.9288 1.33864 15.6236 1.32594 15.3363 1.40404C15.049 1.48215 14.7942 1.64709 14.6081 1.87536C14.3281 2.2261 13.9703 2.50977 13.5617 2.70487C13.1531 2.89996 12.7046 3.00135 12.25 3.00135C11.7955 3.00135 11.3469 2.89996 10.9383 2.70487C10.5298 2.50977 10.1719 2.2261 9.89189 1.87536C9.70586 1.64709 9.45103 1.48215 9.16372 1.40404C8.8764 1.32594 8.57125 1.33864 8.29174 1.44036C7.15835 1.84809 6.09867 2.43041 5.15267 3.16536C4.91421 3.35028 4.74246 3.60513 4.66255 3.8926C4.58264 4.18006 4.59878 4.48503 4.70861 4.76286C4.88528 5.18592 4.95828 5.64366 4.92174 6.09936C4.8852 6.55505 4.74015 6.99601 4.49822 7.38687C4.25628 7.77773 3.92421 8.10761 3.52862 8.35004C3.13304 8.59247 2.68496 8.7407 2.22033 8.78286C1.91868 8.81445 1.63535 8.94009 1.41207 9.14126C1.18878 9.34244 1.03733 9.60853 0.980017 9.90036C0.837455 10.5916 0.765642 11.2951 0.765642 12.0004C0.764594 12.5908 0.813248 13.1803 0.91111 13.7629C0.959815 14.064 1.10845 14.3411 1.33403 14.5512C1.55961 14.7614 1.84957 14.8928 2.15908 14.9254C2.63392 14.969 3.09117 15.1234 3.49257 15.3757C3.89397 15.628 4.22784 15.9708 4.46624 16.3755C4.70463 16.7801 4.84061 17.2348 4.8628 17.7015C4.88499 18.1682 4.79274 18.6333 4.59377 19.0579C4.46355 19.334 4.43126 19.6449 4.502 19.9411C4.57274 20.2373 4.74247 20.5019 4.98424 20.6929C5.97963 21.5016 7.10852 22.1383 8.32236 22.5754C8.47758 22.628 8.64045 22.6559 8.8047 22.6579C9.02993 22.6574 9.25175 22.604 9.45157 22.5022C9.6514 22.4004 9.82339 22.2532 9.95314 22.0729C10.226 21.6834 10.5918 21.3651 11.0188 21.1455C11.4457 20.9259 11.9209 20.8117 12.4031 20.8129C12.8704 20.8134 13.331 20.9209 13.7484 21.1266C14.1657 21.3323 14.5283 21.6307 14.8072 21.9979C14.9927 22.2421 15.2555 22.4195 15.5546 22.5022C15.8537 22.585 16.1724 22.5685 16.461 22.4554C17.5709 22.0178 18.6042 21.413 19.5235 20.6629C19.7544 20.4758 19.9188 20.2219 19.9931 19.9375C20.0674 19.6532 20.0477 19.3531 19.9369 19.0804C19.7568 18.6627 19.6783 18.2098 19.7075 17.7574C19.7368 17.305 19.873 16.8654 20.1054 16.4733C20.3378 16.0813 20.66 15.7476 21.0467 15.4984C21.4333 15.2493 21.8738 15.0916 22.3333 15.0379C22.6313 14.9975 22.9084 14.8653 23.1245 14.6603C23.3406 14.4553 23.4845 14.1883 23.5353 13.8979C23.6583 13.2723 23.7249 12.6373 23.7344 12.0004C23.7345 11.3285 23.6705 10.658 23.543 9.99786C23.4913 9.71383 23.3495 9.45299 23.1379 9.25238C22.9262 9.05177 22.6554 8.9216 22.3639 8.88036ZM16.0781 12.0004C16.0781 12.742 15.8536 13.4671 15.433 14.0837C15.0123 14.7004 14.4145 15.1811 13.715 15.4649C13.0155 15.7487 12.2458 15.823 11.5032 15.6783C10.7606 15.5336 10.0785 15.1765 9.54312 14.652C9.00775 14.1276 8.64316 13.4594 8.49545 12.7319C8.34774 12.0045 8.42355 11.2505 8.71329 10.5653C9.00303 9.88007 9.49369 9.2944 10.1232 8.88235C10.7528 8.47029 11.4929 8.25036 12.25 8.25036C13.2653 8.25036 14.239 8.64545 14.9569 9.34871C15.6748 10.052 16.0781 11.0058 16.0781 12.0004Z" fill="#8C8C8C"/>
</svg>
