<svg width="327" height="132" viewBox="0 0 327 132" fill="none" xmlns="http://www.w3.org/2000/svg">
<g clip-path="url(#clip0_3_246)">
<path d="M173.747 48.3244C180.902 25.5716 188.067 -48.873 -47.4058 -4.56373L-121.883 64.1117L-55.9705 159.757L-45.8709 199.73C15.0882 201.724 139.635 156.791 173.747 48.3244Z" fill="white" fill-opacity="0.12"/>
<path d="M200.747 50.3244C207.902 27.5716 215.067 -46.873 -20.4058 -2.56373L-94.883 66.1117L-28.9705 161.757L-18.8709 201.73C42.0882 203.724 166.635 158.791 200.747 50.3244Z" fill="white" fill-opacity="0.12"/>
<path d="M226.747 48.3244C233.902 25.5716 241.067 -48.873 5.59416 -4.56373L-68.883 64.1117L-2.97052 159.757L7.12907 199.73C68.0882 201.724 192.635 156.791 226.747 48.3244Z" fill="white" fill-opacity="0.12"/>
</g>
<defs>
<clipPath id="clip0_3_246">
<rect width="327" height="132" rx="8" fill="white"/>
</clipPath>
</defs>
</svg>
