<svg width="327" height="132" viewBox="0 0 327 132" fill="none" xmlns="http://www.w3.org/2000/svg">
<g clip-path="url(#clip0_3_309)">
<path d="M-61.002 120.241L-9.32916 9.96551C-6.42428 14.6199 -2.02077 19.7489 4.28563 22.7039C17.9106 29.0883 30.1798 16.8358 50.1306 26.1844C64.8455 33.0795 66.0906 44.6069 74.3211 54.2082C79.9536 52.3577 86.1292 50.9946 94.09 54.7249C99.6957 57.3516 102.398 61.4242 104.105 66.0147C116.03 64.8571 128.241 60.1379 146.036 68.4764C157.919 74.0445 160.257 80.1226 164.163 85.6802C172.341 83.3756 180.445 82.4819 188.211 86.121C192.337 88.0546 195.371 90.2437 197.655 92.5743C200.65 92.1615 203.882 92.4056 207.595 94.1453C217.814 98.9336 218.169 107.042 226.928 111.146C238.12 116.39 248.682 106.515 268.146 115.635C278.661 120.563 285.101 127.906 288.798 133.619L230.961 257.049L-61.002 120.241Z" fill="white" fill-opacity="0.12"/>
<path d="M-67.0004 106.205L-10.1635 -1.49908C-7.69491 3.17546 -3.82381 8.35702 2.01402 11.4377C14.6266 18.0935 27.1894 6.29178 45.6578 16.0378C59.2794 23.2261 59.6994 34.6528 66.9337 44.3523C72.4483 42.6654 78.45 41.4741 85.8194 45.363C91.0086 48.1014 93.3226 52.1957 94.6485 56.7768C106.139 55.934 118.141 51.5778 134.614 60.2708C145.614 66.0756 147.446 72.1432 150.812 77.7359C158.793 75.6646 166.608 74.9861 173.798 78.7799C177.617 80.7957 180.374 83.0364 182.405 85.3981C185.298 85.0657 188.376 85.3888 191.813 87.2025C201.272 92.1944 201.069 100.219 209.177 104.497C219.537 109.965 230.307 100.469 248.325 109.978C258.059 115.114 263.731 122.536 266.886 128.278L203.27 248.83L-67.0004 106.205Z" fill="white" fill-opacity="0.12"/>
</g>
<defs>
<clipPath id="clip0_3_309">
<rect width="327" height="132" rx="8" fill="white"/>
</clipPath>
</defs>
</svg>
