<svg width="48" height="48" viewBox="0 0 48 48" fill="none" xmlns="http://www.w3.org/2000/svg">
<circle cx="24" cy="24" r="24" fill="white"/>
<path d="M20.2134 22.4934C20.0801 22.48 19.9201 22.48 19.7734 22.4934C16.6001 22.3867 14.0801 19.7867 14.0801 16.5867C14.0801 13.32 16.7201 10.6667 20.0001 10.6667C23.2667 10.6667 25.9201 13.32 25.9201 16.5867C25.9067 19.7867 23.3867 22.3867 20.2134 22.4934Z" stroke="#F4904E" stroke-width="1.5" stroke-linecap="round" stroke-linejoin="round"/>
<path d="M29.8804 13.3333C32.467 13.3333 34.547 15.4266 34.547 18C34.547 20.52 32.547 22.5733 30.0537 22.6666C29.947 22.6533 29.827 22.6533 29.707 22.6666" stroke="#F4904E" stroke-width="1.5" stroke-linecap="round" stroke-linejoin="round"/>
<path d="M13.547 27.4133C10.3203 29.5733 10.3203 33.0933 13.547 35.24C17.2136 37.6933 23.227 37.6933 26.8936 35.24C30.1203 33.08 30.1203 29.56 26.8936 27.4133C23.2403 24.9733 17.227 24.9733 13.547 27.4133Z" stroke="#F4904E" stroke-width="1.5" stroke-linecap="round" stroke-linejoin="round"/>
<path d="M32.4531 34.6667C33.4131 34.4667 34.3198 34.08 35.0665 33.5067C37.1465 31.9467 37.1465 29.3734 35.0665 27.8134C34.3331 27.2534 33.4398 26.88 32.4931 26.6667" stroke="#F4904E" stroke-width="1.5" stroke-linecap="round" stroke-linejoin="round"/>
</svg>
