<svg width="48" height="48" viewBox="0 0 48 48" fill="none" xmlns="http://www.w3.org/2000/svg">
<circle cx="24" cy="24" r="24" fill="white"/>
<path d="M18.6658 37.3333H29.3325C34.6925 37.3333 35.6525 35.1867 35.9325 32.5733L36.9325 21.9067C37.2925 18.6533 36.3591 16 30.6658 16H17.3325C11.6391 16 10.7058 18.6533 11.0658 21.9067L12.0658 32.5733C12.3458 35.1867 13.3058 37.3333 18.6658 37.3333Z" stroke="#D7AA89" stroke-width="1.5" stroke-miterlimit="10" stroke-linecap="round" stroke-linejoin="round"/>
<path d="M18.666 16V14.9333C18.666 12.5733 18.666 10.6666 22.9327 10.6666H25.066C29.3327 10.6666 29.3327 12.5733 29.3327 14.9333V16" stroke="#D7AA89" stroke-width="1.5" stroke-miterlimit="10" stroke-linecap="round" stroke-linejoin="round"/>
<path d="M26.6673 25.3333V26.6667C26.6673 26.68 26.6673 26.68 26.6673 26.6933C26.6673 28.1467 26.654 29.3333 24.0007 29.3333C21.3607 29.3333 21.334 28.16 21.334 26.7067V25.3333C21.334 24 21.334 24 22.6673 24H25.334C26.6673 24 26.6673 24 26.6673 25.3333Z" stroke="#D7AA89" stroke-width="1.5" stroke-miterlimit="10" stroke-linecap="round" stroke-linejoin="round"/>
<path d="M36.866 22.6666C33.786 24.9066 30.266 26.24 26.666 26.6933" stroke="#D7AA89" stroke-width="1.5" stroke-miterlimit="10" stroke-linecap="round" stroke-linejoin="round"/>
<path d="M11.4941 23.0266C14.4941 25.0799 17.8808 26.3199 21.3341 26.7066" stroke="#D7AA89" stroke-width="1.5" stroke-miterlimit="10" stroke-linecap="round" stroke-linejoin="round"/>
</svg>
