<svg width="25" height="24" viewBox="0 0 25 24" fill="none" xmlns="http://www.w3.org/2000/svg">
<circle cx="12" cy="12" r="12" fill="#FFDCCC"/>
<g clip-path="url(#clip0_326_1330)">
<path d="M16.3503 13.1605C15.9543 13.0225 15.6412 12.7184 15.4915 12.3263L15.4052 12.1003H14.4333C14.0617 11.1614 13.3091 10.4134 12.3675 10.0479C12.9345 9.63999 13.3042 8.97458 13.3042 8.2243C13.3042 6.98605 12.2968 5.97852 11.0584 5.97852C9.82007 5.97852 8.81262 6.98605 8.81262 8.2243C8.81262 8.97458 9.18231 9.63999 9.7493 10.0482C8.39368 10.5742 7.43018 11.8926 7.43018 13.432V15.5007H11.6931C11.7885 15.7726 11.9124 16.0352 12.0638 16.2835C12.4607 16.9354 13.0287 17.4654 13.7068 17.8156L14.0217 17.9785L14.3365 17.8156C15.0144 17.4654 15.5827 16.9354 15.9793 16.2835C16.3763 15.6317 16.5859 14.8838 16.5859 14.1207V13.2427L16.3503 13.1605ZM15.8831 14.1207C15.8831 15.4157 15.17 16.59 14.0217 17.1872C13.3033 16.8135 12.7553 16.2142 12.4455 15.5007C12.3483 15.2765 12.2744 15.041 12.2264 14.7978C12.1826 14.5775 12.1602 14.351 12.1602 14.1207V13.7259C12.5664 13.5271 12.8975 13.2043 13.1067 12.8031H14.9364C15.1457 13.2043 15.4769 13.5271 15.8831 13.7259V14.1207ZM9.51547 8.2243C9.51547 7.3736 10.2076 6.68146 11.0584 6.68146C11.9092 6.68146 12.6014 7.3736 12.6014 8.2243C12.6014 9.0751 11.9092 9.76724 11.0584 9.76724C10.2076 9.76724 9.51547 9.0751 9.51547 8.2243ZM8.13312 14.7978V13.432C8.13312 11.819 9.44544 10.5067 11.0584 10.5067C12.192 10.5067 13.1772 11.1551 13.6624 12.1003H12.6381L12.5519 12.3263C12.4021 12.7184 12.0891 13.0225 11.6931 13.1605L11.4572 13.2427V14.1207C11.4572 14.3485 11.476 14.5748 11.513 14.7978H8.13312Z" fill="#FF4F00"/>
<path d="M14.6864 13.8713L13.9835 14.5508L13.7492 14.7772L13.1765 14.2364L12.6938 14.7473L12.747 14.7975L13.4912 15.5005L13.7548 15.7493L14.0123 15.5005L14.6864 14.8489L15.3145 14.2418L14.826 13.7363L14.6864 13.8713Z" fill="#FF4F00"/>
</g>
<defs>
<clipPath id="clip0_326_1330">
<rect width="12" height="12" fill="white" transform="translate(6 6)"/>
</clipPath>
</defs>
</svg>
